<ttFont>
    <TTGlyph name=".notdef" xMin="68" yMin="0" xMax="612" yMax="1365">
      <contour>
        <pt x="68" y="0" on="1"/>
        <pt x="68" y="1365" on="1"/>
        <pt x="612" y="1365" on="1"/>
        <pt x="612" y="0" on="1"/>
      </contour>
      <contour>
        <pt x="136" y="68" on="1"/>
        <pt x="544" y="68" on="1"/>
        <pt x="544" y="1297" on="1"/>
        <pt x="136" y="1297" on="1"/>
      </contour>
    </TTGlyph>
    <TTGlyph name="A" xMin="16" yMin="0" xMax="1040" yMax="1792">
      <contour>
        <pt x="400" y="640" on="1"/>
        <pt x="656" y="640" on="1"/>
        <pt x="528" y="1408" on="1"/>
      </contour>
      <contour>
        <pt x="16" y="0" on="1"/>
        <pt x="400" y="1792" on="1"/>
        <pt x="656" y="1792" on="1"/>
        <pt x="1040" y="0" on="1"/>
        <pt x="784" y="0" on="1"/>
        <pt x="688" y="448" on="1"/>
        <pt x="368" y="448" on="1"/>
        <pt x="272" y="0" on="1"/>
      </contour>
    </TTGlyph>
    <TTGlyph name="AE" xMin="-126" yMin="0" xMax="1344" yMax="1792">
      <contour>
        <pt x="393" y="640" on="1"/>
        <pt x="640" y="640" on="1"/>
        <pt x="640" y="1298" on="1"/>
      </contour>
      <contour>
        <pt x="-126" y="0" on="1"/>
        <pt x="638" y="1792" on="1"/>
        <pt x="1344" y="1792" on="1"/>
        <pt x="1344" y="1600" on="1"/>
        <pt x="896" y="1600" on="1"/>
        <pt x="896" y="1024" on="1"/>
        <pt x="1216" y="1024" on="1"/>
        <pt x="1216" y="832" on="1"/>
        <pt x="896" y="832" on="1"/>
        <pt x="896" y="192" on="1"/>
        <pt x="1344" y="192" on="1"/>
        <pt x="1344" y="0" on="1"/>
        <pt x="640" y="0" on="1"/>
        <pt x="640" y="448" on="1"/>
        <pt x="320" y="448" on="1"/>
        <pt x="129" y="0" on="1"/>
      </contour>
    </TTGlyph>
    <TTGlyph name="Aacute" xMin="16" yMin="0" xMax="1040" yMax="2296">
      <component glyphName="A" x="0" y="0" flags="0x1004"/>
      <component glyphName="acute" x="336" y="504" flags="0x1004"/>
    </TTGlyph>
    <TTGlyph name="Abreve" xMin="16" yMin="0" xMax="1040" yMax="2296">
      <component glyphName="A" x="0" y="0" flags="0x1004"/>
      <component glyphName="breve" x="144" y="504" flags="0x1004"/>
    </TTGlyph>
    <TTGlyph name="Acircumflex" xMin="16" yMin="0" xMax="1040" yMax="2296">
      <component glyphName="A" x="0" y="0" flags="0x1004"/>
      <component glyphName="circumflex" x="144" y="504" flags="0x1004"/>
    </TTGlyph>
    <TTGlyph name="Adieresis" xMin="16" yMin="0" xMax="1040" yMax="2168">
      <component glyphName="A" x="0" y="0" flags="0x1004"/>
      <component glyphName="dieresis" x="80" y="376" flags="0x1004"/>
    </TTGlyph>
    <TTGlyph name="Agrave" xMin="16" yMin="0" xMax="1040" yMax="2296">
      <component glyphName="A" x="0" y="0" flags="0x1004"/>
      <component glyphName="grave" x="80" y="504" flags="0x1004"/>
    </TTGlyph>
    <TTGlyph name="Amacron" xMin="16" yMin="0" xMax="1040" yMax="2064">
      <component glyphName="A" x="0" y="0" flags="0x1004"/>
      <component glyphName="macron" x="188" y="505" flags="0x1004"/>
    </TTGlyph>
    <TTGlyph name="Aogonek" xMin="16" yMin="-519" xMax="1040" yMax="1792">
      <component glyphName="A" x="0" y="0" flags="0x1004"/>
      <component glyphName="ogonek" x="628" y="-6" flags="0x1004"/>
    </TTGlyph>
    <TTGlyph name="Aring" xMin="16" yMin="0" xMax="1040" yMax="2369">
      <component glyphName="A" x="0" y="0" flags="0x1004"/>
      <component glyphName="ring" x="208" y="449" flags="0x1004"/>
    </TTGlyph>
    <TTGlyph name="Atilde" xMin="16" yMin="0" xMax="1040" yMax="2205">
      <component glyphName="A" x="0" y="0" flags="0x1004"/>
      <component glyphName="tilde" x="48" y="460" flags="0x1004"/>
    </TTGlyph>
    <TTGlyph name="B" xMin="128" yMin="0" xMax="1088" yMax="1792">
      <contour>
        <pt x="384" y="1024" on="1"/>
        <pt x="512" y="1024" on="1"/>
        <pt x="832" y="1024" on="0"/>
        <pt x="832" y="1344" on="1"/>
        <pt x="832" y="1397" on="0"/>
        <pt x="806" y="1478" on="0"/>
        <pt x="770" y="1532" on="0"/>
        <pt x="697" y="1569" on="0"/>
        <pt x="637" y="1589" on="0"/>
        <pt x="526" y="1598" on="0"/>
        <pt x="452" y="1600" on="0"/>
        <pt x="384" y="1600" on="1"/>
      </contour>
      <contour>
        <pt x="384" y="192" on="1"/>
        <pt x="512" y="192" on="1"/>
        <pt x="678" y="192" on="0"/>
        <pt x="832" y="345" on="0"/>
        <pt x="832" y="679" on="0"/>
        <pt x="678" y="832" on="0"/>
        <pt x="512" y="832" on="1"/>
        <pt x="384" y="832" on="1"/>
      </contour>
      <contour>
        <pt x="128" y="0" on="1"/>
        <pt x="128" y="1792" on="1"/>
        <pt x="512" y="1792" on="1"/>
        <pt x="636" y="1792" on="0"/>
        <pt x="832" y="1740" on="0"/>
        <pt x="979" y="1634" on="0"/>
        <pt x="1058" y="1460" on="0"/>
        <pt x="1058" y="1344" on="1"/>
        <pt x="1058" y="1176" on="0"/>
        <pt x="916" y="1001" on="0"/>
        <pt x="768" y="960" on="1"/>
        <pt x="928" y="907" on="0"/>
        <pt x="1088" y="702" on="0"/>
        <pt x="1088" y="512" on="1"/>
        <pt x="1088" y="275" on="0"/>
        <pt x="813" y="0" on="0"/>
        <pt x="576" y="0" on="1"/>
      </contour>
    </TTGlyph>
    <TTGlyph name="C" xMin="96" yMin="-18" xMax="1065" yMax="1810">
      <contour>
        <pt x="588" y="-18" on="1"/>
        <pt x="475" y="-18" on="0"/>
        <pt x="303" y="46" on="0"/>
        <pt x="193" y="159" on="0"/>
        <pt x="124" y="328" on="0"/>
        <pt x="96" y="520" on="0"/>
        <pt x="96" y="641" on="1"/>
        <pt x="96" y="1152" on="1"/>
        <pt x="96" y="1273" on="0"/>
        <pt x="124" y="1465" on="0"/>
        <pt x="193" y="1634" on="0"/>
        <pt x="303" y="1746" on="0"/>
        <pt x="475" y="1810" on="0"/>
        <pt x="588" y="1810" on="1"/>
        <pt x="713" y="1810" on="0"/>
        <pt x="895" y="1736" on="0"/>
        <pt x="1004" y="1592" on="0"/>
        <pt x="1059" y="1402" on="0"/>
        <pt x="1064" y="1275" on="1"/>
        <pt x="1065" y="1256" on="0"/>
        <pt x="1065" y="1216" on="1"/>
        <pt x="809" y="1216" on="1"/>
        <pt x="809" y="1273" on="1"/>
        <pt x="808" y="1326" on="0"/>
        <pt x="802" y="1401" on="0"/>
        <pt x="786" y="1481" on="0"/>
        <pt x="755" y="1534" on="0"/>
        <pt x="708" y="1579" on="0"/>
        <pt x="636" y="1600" on="0"/>
        <pt x="588" y="1600" on="1"/>
        <pt x="526" y="1600" on="0"/>
        <pt x="437" y="1560" on="0"/>
        <pt x="387" y="1497" on="0"/>
        <pt x="360" y="1391" on="0"/>
        <pt x="352" y="1290" on="0"/>
        <pt x="352" y="1216" on="1"/>
        <pt x="352" y="576" on="1"/>
        <pt x="352" y="512" on="0"/>
        <pt x="363" y="408" on="0"/>
        <pt x="395" y="305" on="0"/>
        <pt x="446" y="235" on="0"/>
        <pt x="531" y="192" on="0"/>
        <pt x="645" y="192" on="0"/>
        <pt x="727" y="236" on="0"/>
        <pt x="774" y="304" on="0"/>
        <pt x="801" y="410" on="0"/>
        <pt x="809" y="510" on="0"/>
        <pt x="809" y="576" on="1"/>
        <pt x="809" y="640" on="1"/>
        <pt x="1065" y="640" on="1"/>
        <pt x="1065" y="576" on="1"/>
        <pt x="1065" y="437" on="0"/>
        <pt x="1016" y="227" on="0"/>
        <pt x="907" y="66" on="0"/>
        <pt x="720" y="-18" on="0"/>
      </contour>
    </TTGlyph>
    <TTGlyph name="Cacute" xMin="96" yMin="-18" xMax="1065" yMax="2296">
      <component glyphName="C" x="0" y="0" flags="0x1004"/>
      <component glyphName="acute" x="388" y="504" flags="0x1004"/>
    </TTGlyph>
    <TTGlyph name="Ccaron" xMin="96" yMin="-18" xMax="1065" yMax="2296">
      <component glyphName="C" x="0" y="0" flags="0x1004"/>
      <component glyphName="caron" x="196" y="504" flags="0x1004"/>
    </TTGlyph>
    <TTGlyph name="Ccedilla" xMin="96" yMin="-513" xMax="1065" yMax="1810">
      <component glyphName="C" x="0" y="0" flags="0x1004"/>
      <component glyphName="cedilla" x="388" y="-1" flags="0x1004"/>
    </TTGlyph>
    <TTGlyph name="Ccircumflex" xMin="96" yMin="-18" xMax="1065" yMax="2296">
      <component glyphName="C" x="0" y="0" flags="0x1004"/>
      <component glyphName="circumflex" x="196" y="504" flags="0x1004"/>
    </TTGlyph>
    <TTGlyph name="Cdotaccent" xMin="96" yMin="-18" xMax="1065" yMax="2168">
      <contour>
        <pt x="452" y="1912" on="1"/>
        <pt x="452" y="2168" on="1"/>
        <pt x="708" y="2168" on="1"/>
        <pt x="708" y="1912" on="1"/>
      </contour>
      <contour>
        <pt x="588" y="-18" on="1"/>
        <pt x="475" y="-18" on="0"/>
        <pt x="303" y="46" on="0"/>
        <pt x="193" y="159" on="0"/>
        <pt x="124" y="328" on="0"/>
        <pt x="96" y="520" on="0"/>
        <pt x="96" y="641" on="1"/>
        <pt x="96" y="1152" on="1"/>
        <pt x="96" y="1273" on="0"/>
        <pt x="124" y="1465" on="0"/>
        <pt x="193" y="1634" on="0"/>
        <pt x="303" y="1746" on="0"/>
        <pt x="475" y="1810" on="0"/>
        <pt x="588" y="1810" on="1"/>
        <pt x="713" y="1810" on="0"/>
        <pt x="895" y="1736" on="0"/>
        <pt x="1004" y="1592" on="0"/>
        <pt x="1059" y="1402" on="0"/>
        <pt x="1064" y="1275" on="1"/>
        <pt x="1065" y="1256" on="0"/>
        <pt x="1065" y="1216" on="1"/>
        <pt x="809" y="1216" on="1"/>
        <pt x="809" y="1273" on="1"/>
        <pt x="808" y="1326" on="0"/>
        <pt x="802" y="1401" on="0"/>
        <pt x="786" y="1481" on="0"/>
        <pt x="755" y="1534" on="0"/>
        <pt x="708" y="1579" on="0"/>
        <pt x="636" y="1600" on="0"/>
        <pt x="588" y="1600" on="1"/>
        <pt x="526" y="1600" on="0"/>
        <pt x="437" y="1560" on="0"/>
        <pt x="387" y="1497" on="0"/>
        <pt x="360" y="1391" on="0"/>
        <pt x="352" y="1290" on="0"/>
        <pt x="352" y="1216" on="1"/>
        <pt x="352" y="576" on="1"/>
        <pt x="352" y="512" on="0"/>
        <pt x="363" y="408" on="0"/>
        <pt x="395" y="305" on="0"/>
        <pt x="446" y="235" on="0"/>
        <pt x="531" y="192" on="0"/>
        <pt x="645" y="192" on="0"/>
        <pt x="727" y="236" on="0"/>
        <pt x="774" y="304" on="0"/>
        <pt x="801" y="410" on="0"/>
        <pt x="809" y="510" on="0"/>
        <pt x="809" y="576" on="1"/>
        <pt x="809" y="640" on="1"/>
        <pt x="1065" y="640" on="1"/>
        <pt x="1065" y="576" on="1"/>
        <pt x="1065" y="437" on="0"/>
        <pt x="1016" y="227" on="0"/>
        <pt x="907" y="66" on="0"/>
        <pt x="720" y="-18" on="0"/>
      </contour>
    </TTGlyph>
    <TTGlyph name="D" xMin="128" yMin="0" xMax="1037" yMax="1792">
      <contour>
        <pt x="128" y="0" on="1"/>
        <pt x="128" y="1792" on="1"/>
        <pt x="525" y="1792" on="1"/>
        <pt x="806" y="1792" on="0"/>
        <pt x="1037" y="1562" on="0"/>
        <pt x="1037" y="1280" on="1"/>
        <pt x="1037" y="576" on="1"/>
        <pt x="1037" y="281" on="0"/>
        <pt x="802" y="0" on="0"/>
        <pt x="523" y="0" on="1"/>
      </contour>
      <contour>
        <pt x="384" y="192" on="1"/>
        <pt x="525" y="192" on="1"/>
        <pt x="588" y="192" on="0"/>
        <pt x="678" y="215" on="0"/>
        <pt x="734" y="276" on="0"/>
        <pt x="766" y="331" on="0"/>
        <pt x="779" y="447" on="0"/>
        <pt x="781" y="522" on="0"/>
        <pt x="781" y="601" on="1"/>
        <pt x="781" y="627" on="0"/>
        <pt x="781" y="640" on="1"/>
        <pt x="781" y="1216" on="1"/>
        <pt x="781" y="1265" on="0"/>
        <pt x="780" y="1323" on="0"/>
        <pt x="775" y="1402" on="0"/>
        <pt x="765" y="1448" on="0"/>
        <pt x="747" y="1505" on="0"/>
        <pt x="720" y="1537" on="0"/>
        <pt x="681" y="1572" on="0"/>
        <pt x="630" y="1589" on="0"/>
        <pt x="562" y="1600" on="0"/>
        <pt x="520" y="1600" on="1"/>
        <pt x="384" y="1600" on="1"/>
      </contour>
    </TTGlyph>
    <TTGlyph name="Dcaron" xMin="128" yMin="0" xMax="1037" yMax="2296">
      <component glyphName="D" x="0" y="0" flags="0x1004"/>
      <component glyphName="caron" x="198" y="504" flags="0x1004"/>
    </TTGlyph>
    <TTGlyph name="Dcroat" xMin="34" yMin="0" xMax="1024" yMax="1792">
      <component glyphName="Eth" x="0" y="0" flags="0x1004"/>
    </TTGlyph>
    <TTGlyph name="E" xMin="128" yMin="0" xMax="832" yMax="1792">
      <contour>
        <pt x="128" y="0" on="1"/>
        <pt x="128" y="1792" on="1"/>
        <pt x="832" y="1792" on="1"/>
        <pt x="832" y="1600" on="1"/>
        <pt x="384" y="1600" on="1"/>
        <pt x="384" y="1024" on="1"/>
        <pt x="704" y="1024" on="1"/>
        <pt x="704" y="832" on="1"/>
        <pt x="384" y="832" on="1"/>
        <pt x="384" y="192" on="1"/>
        <pt x="832" y="192" on="1"/>
        <pt x="832" y="0" on="1"/>
      </contour>
    </TTGlyph>
    <TTGlyph name="Eacute" xMin="128" yMin="0" xMax="832" yMax="2296">
      <component glyphName="E" x="0" y="0" flags="0x1004"/>
      <component glyphName="acute" x="288" y="504" flags="0x1004"/>
    </TTGlyph>
    <TTGlyph name="Ecaron" xMin="128" yMin="0" xMax="832" yMax="2296">
      <component glyphName="E" x="0" y="0" flags="0x1004"/>
      <component glyphName="caron" x="96" y="504" flags="0x1004"/>
    </TTGlyph>
    <TTGlyph name="Ecircumflex" xMin="128" yMin="0" xMax="832" yMax="2296">
      <component glyphName="E" x="0" y="0" flags="0x1004"/>
      <component glyphName="circumflex" x="96" y="504" flags="0x1004"/>
    </TTGlyph>
    <TTGlyph name="Edieresis" xMin="128" yMin="0" xMax="832" yMax="2168">
      <component glyphName="E" x="0" y="0" flags="0x1004"/>
      <component glyphName="dieresis" x="32" y="376" flags="0x1004"/>
    </TTGlyph>
    <TTGlyph name="Edotaccent" xMin="128" yMin="0" xMax="832" yMax="2188">
      <component glyphName="dotaccent" x="288" y="486" flags="0x1004"/>
      <component glyphName="E" x="0" y="0" flags="0x1204"/>
    </TTGlyph>
    <TTGlyph name="Egrave" xMin="128" yMin="0" xMax="832" yMax="2296">
      <component glyphName="E" x="0" y="0" flags="0x1004"/>
      <component glyphName="grave" x="32" y="504" flags="0x1004"/>
    </TTGlyph>
    <TTGlyph name="Emacron" xMin="128" yMin="0" xMax="832" yMax="2064">
      <component glyphName="E" x="0" y="0" flags="0x1004"/>
      <component glyphName="macron" x="140" y="505" flags="0x1004"/>
    </TTGlyph>
    <TTGlyph name="Eogonek" xMin="128" yMin="-505" xMax="832" yMax="1792">
      <component glyphName="E" x="0" y="0" flags="0x1004"/>
      <component glyphName="ogonek" x="270" y="8" flags="0x1004"/>
    </TTGlyph>
    <TTGlyph name="Eth" xMin="34" yMin="0" xMax="1024" yMax="1792">
      <contour>
        <pt x="128" y="0" on="1"/>
        <pt x="128" y="852" on="1"/>
        <pt x="34" y="852" on="1"/>
        <pt x="34" y="1004" on="1"/>
        <pt x="128" y="1004" on="1"/>
        <pt x="128" y="1792" on="1"/>
        <pt x="512" y="1792" on="1"/>
        <pt x="793" y="1792" on="0"/>
        <pt x="1024" y="1562" on="0"/>
        <pt x="1024" y="1280" on="1"/>
        <pt x="1024" y="576" on="1"/>
        <pt x="1024" y="281" on="0"/>
        <pt x="789" y="0" on="0"/>
        <pt x="510" y="0" on="1"/>
      </contour>
      <contour>
        <pt x="384" y="192" on="1"/>
        <pt x="512" y="192" on="1"/>
        <pt x="575" y="192" on="0"/>
        <pt x="665" y="215" on="0"/>
        <pt x="721" y="276" on="0"/>
        <pt x="753" y="331" on="0"/>
        <pt x="766" y="447" on="0"/>
        <pt x="768" y="522" on="0"/>
        <pt x="768" y="601" on="1"/>
        <pt x="768" y="627" on="0"/>
        <pt x="768" y="640" on="1"/>
        <pt x="768" y="1216" on="1"/>
        <pt x="768" y="1265" on="0"/>
        <pt x="767" y="1323" on="0"/>
        <pt x="762" y="1402" on="0"/>
        <pt x="752" y="1448" on="0"/>
        <pt x="734" y="1505" on="0"/>
        <pt x="707" y="1537" on="0"/>
        <pt x="668" y="1572" on="0"/>
        <pt x="617" y="1589" on="0"/>
        <pt x="549" y="1600" on="0"/>
        <pt x="507" y="1600" on="1"/>
        <pt x="384" y="1600" on="1"/>
        <pt x="384" y="1004" on="1"/>
        <pt x="528" y="1004" on="1"/>
        <pt x="528" y="852" on="1"/>
        <pt x="384" y="852" on="1"/>
      </contour>
    </TTGlyph>
    <TTGlyph name="Euro" xMin="0" yMin="-27" xMax="909" yMax="1536">
      <contour>
        <pt x="589" y="-27" on="0"/>
        <pt x="399" y="-27" on="0"/>
        <pt x="253" y="25" on="0"/>
        <pt x="159" y="116" on="0"/>
        <pt x="98" y="253" on="0"/>
        <pt x="71" y="409" on="0"/>
        <pt x="68" y="508" on="1"/>
        <pt x="0" y="508" on="1"/>
        <pt x="0" y="674" on="1"/>
        <pt x="68" y="674" on="1"/>
        <pt x="68" y="827" on="1"/>
        <pt x="0" y="827" on="1"/>
        <pt x="0" y="993" on="1"/>
        <pt x="70" y="993" on="1"/>
        <pt x="73" y="1092" on="0"/>
        <pt x="99" y="1248" on="0"/>
        <pt x="158" y="1389" on="0"/>
        <pt x="250" y="1482" on="0"/>
        <pt x="393" y="1536" on="0"/>
        <pt x="487" y="1536" on="1"/>
        <pt x="601" y="1536" on="0"/>
        <pt x="764" y="1462" on="0"/>
        <pt x="858" y="1321" on="0"/>
        <pt x="902" y="1138" on="0"/>
        <pt x="903" y="1018" on="1"/>
        <pt x="653" y="1018" on="1"/>
        <pt x="653" y="1309" on="0"/>
        <pt x="492" y="1309" on="1"/>
        <pt x="467" y="1309" on="0"/>
        <pt x="426" y="1301" on="0"/>
        <pt x="395" y="1282" on="0"/>
        <pt x="370" y="1263" on="0"/>
        <pt x="352" y="1228" on="0"/>
        <pt x="339" y="1201" on="0"/>
        <pt x="331" y="1151" on="0"/>
        <pt x="326" y="1119" on="0"/>
        <pt x="323" y="1060" on="0"/>
        <pt x="322" y="1026" on="0"/>
        <pt x="322" y="993" on="1"/>
        <pt x="518" y="993" on="1"/>
        <pt x="518" y="827" on="1"/>
        <pt x="322" y="827" on="1"/>
        <pt x="322" y="674" on="1"/>
        <pt x="518" y="674" on="1"/>
        <pt x="518" y="508" on="1"/>
        <pt x="324" y="508" on="1"/>
        <pt x="326" y="460" on="0"/>
        <pt x="331" y="400" on="0"/>
        <pt x="344" y="321" on="0"/>
        <pt x="367" y="273" on="0"/>
        <pt x="404" y="226" on="0"/>
        <pt x="461" y="205" on="0"/>
        <pt x="499" y="205" on="1"/>
        <pt x="542" y="205" on="0"/>
        <pt x="604" y="247" on="0"/>
        <pt x="637" y="309" on="0"/>
        <pt x="657" y="405" on="0"/>
        <pt x="662" y="487" on="0"/>
        <pt x="662" y="541" on="1"/>
        <pt x="909" y="541" on="1"/>
        <pt x="909" y="439" on="0"/>
        <pt x="886" y="275" on="0"/>
        <pt x="827" y="129" on="0"/>
        <pt x="734" y="30" on="0"/>
      </contour>
    </TTGlyph>
    <TTGlyph name="F" xMin="128" yMin="0" xMax="832" yMax="1792">
      <contour>
        <pt x="128" y="0" on="1"/>
        <pt x="128" y="1792" on="1"/>
        <pt x="832" y="1792" on="1"/>
        <pt x="832" y="1600" on="1"/>
        <pt x="384" y="1600" on="1"/>
        <pt x="384" y="1024" on="1"/>
        <pt x="704" y="1024" on="1"/>
        <pt x="704" y="832" on="1"/>
        <pt x="384" y="832" on="1"/>
        <pt x="384" y="0" on="1"/>
      </contour>
    </TTGlyph>
    <TTGlyph name="G" xMin="96" yMin="-18" xMax="1120" yMax="1810">
      <contour>
        <pt x="608" y="-18" on="1"/>
        <pt x="485" y="-18" on="0"/>
        <pt x="304" y="52" on="0"/>
        <pt x="190" y="172" on="0"/>
        <pt x="122" y="358" on="0"/>
        <pt x="96" y="564" on="0"/>
        <pt x="96" y="698" on="1"/>
        <pt x="96" y="1152" on="1"/>
        <pt x="96" y="1810" on="0"/>
        <pt x="618" y="1810" on="1"/>
        <pt x="743" y="1810" on="0"/>
        <pt x="927" y="1735" on="0"/>
        <pt x="1041" y="1591" on="0"/>
        <pt x="1099" y="1398" on="0"/>
        <pt x="1104" y="1271" on="1"/>
        <pt x="1105" y="1253" on="0"/>
        <pt x="1105" y="1216" on="1"/>
        <pt x="849" y="1216" on="1"/>
        <pt x="849" y="1270" on="1"/>
        <pt x="848" y="1333" on="0"/>
        <pt x="837" y="1424" on="0"/>
        <pt x="808" y="1512" on="0"/>
        <pt x="758" y="1567" on="0"/>
        <pt x="675" y="1600" on="0"/>
        <pt x="618" y="1600" on="1"/>
        <pt x="540" y="1600" on="0"/>
        <pt x="433" y="1543" on="0"/>
        <pt x="376" y="1434" on="0"/>
        <pt x="352" y="1303" on="0"/>
        <pt x="352" y="1216" on="1"/>
        <pt x="352" y="640" on="1"/>
        <pt x="352" y="576" on="0"/>
        <pt x="360" y="473" on="0"/>
        <pt x="379" y="366" on="0"/>
        <pt x="416" y="288" on="0"/>
        <pt x="471" y="225" on="0"/>
        <pt x="554" y="192" on="0"/>
        <pt x="608" y="192" on="1"/>
        <pt x="672" y="192" on="0"/>
        <pt x="766" y="242" on="0"/>
        <pt x="821" y="321" on="0"/>
        <pt x="853" y="443" on="0"/>
        <pt x="864" y="563" on="0"/>
        <pt x="864" y="640" on="1"/>
        <pt x="864" y="704" on="1"/>
        <pt x="608" y="704" on="1"/>
        <pt x="608" y="894" on="1"/>
        <pt x="1120" y="894" on="1"/>
        <pt x="1120" y="0" on="1"/>
        <pt x="928" y="0" on="1"/>
        <pt x="864" y="192" on="1"/>
        <pt x="789" y="-18" on="0"/>
      </contour>
    </TTGlyph>
    <TTGlyph name="Gbreve" xMin="96" yMin="-18" xMax="1120" yMax="2296">
      <component glyphName="G" x="0" y="0" flags="0x1004"/>
      <component glyphName="breve" x="224" y="504" flags="0x1004"/>
    </TTGlyph>
    <TTGlyph name="Gcircumflex" xMin="96" yMin="-18" xMax="1120" yMax="2296">
      <component glyphName="G" x="0" y="0" flags="0x1004"/>
      <component glyphName="circumflex" x="224" y="504" flags="0x1004"/>
    </TTGlyph>
    <TTGlyph name="Gcommaaccent" xMin="96" yMin="-18" xMax="1120" yMax="1810">
      <component glyphName="G" x="0" y="0" flags="0x1004"/>
    </TTGlyph>
    <TTGlyph name="Gdotaccent" xMin="96" yMin="-18" xMax="1120" yMax="2168">
      <contour>
        <pt x="480" y="1912" on="1"/>
        <pt x="480" y="2168" on="1"/>
        <pt x="736" y="2168" on="1"/>
        <pt x="736" y="1912" on="1"/>
      </contour>
      <contour>
        <pt x="608" y="-18" on="1"/>
        <pt x="485" y="-18" on="0"/>
        <pt x="304" y="52" on="0"/>
        <pt x="190" y="172" on="0"/>
        <pt x="122" y="358" on="0"/>
        <pt x="96" y="564" on="0"/>
        <pt x="96" y="698" on="1"/>
        <pt x="96" y="1152" on="1"/>
        <pt x="96" y="1810" on="0"/>
        <pt x="618" y="1810" on="1"/>
        <pt x="743" y="1810" on="0"/>
        <pt x="927" y="1735" on="0"/>
        <pt x="1041" y="1591" on="0"/>
        <pt x="1099" y="1398" on="0"/>
        <pt x="1104" y="1271" on="1"/>
        <pt x="1105" y="1253" on="0"/>
        <pt x="1105" y="1216" on="1"/>
        <pt x="849" y="1216" on="1"/>
        <pt x="849" y="1270" on="1"/>
        <pt x="848" y="1333" on="0"/>
        <pt x="837" y="1424" on="0"/>
        <pt x="808" y="1512" on="0"/>
        <pt x="758" y="1567" on="0"/>
        <pt x="675" y="1600" on="0"/>
        <pt x="618" y="1600" on="1"/>
        <pt x="540" y="1600" on="0"/>
        <pt x="433" y="1543" on="0"/>
        <pt x="376" y="1434" on="0"/>
        <pt x="352" y="1303" on="0"/>
        <pt x="352" y="1216" on="1"/>
        <pt x="352" y="640" on="1"/>
        <pt x="352" y="576" on="0"/>
        <pt x="360" y="473" on="0"/>
        <pt x="379" y="366" on="0"/>
        <pt x="416" y="288" on="0"/>
        <pt x="471" y="225" on="0"/>
        <pt x="554" y="192" on="0"/>
        <pt x="608" y="192" on="1"/>
        <pt x="672" y="192" on="0"/>
        <pt x="766" y="242" on="0"/>
        <pt x="821" y="321" on="0"/>
        <pt x="853" y="443" on="0"/>
        <pt x="864" y="563" on="0"/>
        <pt x="864" y="640" on="1"/>
        <pt x="864" y="704" on="1"/>
        <pt x="608" y="704" on="1"/>
        <pt x="608" y="894" on="1"/>
        <pt x="1120" y="894" on="1"/>
        <pt x="1120" y="0" on="1"/>
        <pt x="928" y="0" on="1"/>
        <pt x="864" y="192" on="1"/>
        <pt x="789" y="-18" on="0"/>
      </contour>
    </TTGlyph>
    <TTGlyph name="H" xMin="128" yMin="0" xMax="1088" yMax="1792">
      <contour>
        <pt x="128" y="0" on="1"/>
        <pt x="128" y="1792" on="1"/>
        <pt x="384" y="1792" on="1"/>
        <pt x="384" y="1024" on="1"/>
        <pt x="832" y="1024" on="1"/>
        <pt x="832" y="1792" on="1"/>
        <pt x="1088" y="1792" on="1"/>
        <pt x="1088" y="0" on="1"/>
        <pt x="832" y="0" on="1"/>
        <pt x="832" y="832" on="1"/>
        <pt x="384" y="832" on="1"/>
        <pt x="384" y="0" on="1"/>
      </contour>
    </TTGlyph>
    <TTGlyph name="Hbar" xMin="30" yMin="0" xMax="1186" yMax="1792">
      <contour>
        <pt x="384" y="1024" on="1"/>
        <pt x="832" y="1024" on="1"/>
        <pt x="832" y="1355" on="1"/>
        <pt x="384" y="1355" on="1"/>
      </contour>
      <contour>
        <pt x="128" y="0" on="1"/>
        <pt x="128" y="1355" on="1"/>
        <pt x="30" y="1355" on="1"/>
        <pt x="30" y="1494" on="1"/>
        <pt x="128" y="1494" on="1"/>
        <pt x="128" y="1792" on="1"/>
        <pt x="384" y="1792" on="1"/>
        <pt x="384" y="1494" on="1"/>
        <pt x="832" y="1494" on="1"/>
        <pt x="832" y="1792" on="1"/>
        <pt x="1088" y="1792" on="1"/>
        <pt x="1088" y="1494" on="1"/>
        <pt x="1186" y="1494" on="1"/>
        <pt x="1186" y="1355" on="1"/>
        <pt x="1088" y="1355" on="1"/>
        <pt x="1088" y="0" on="1"/>
        <pt x="832" y="0" on="1"/>
        <pt x="832" y="832" on="1"/>
        <pt x="384" y="832" on="1"/>
        <pt x="384" y="0" on="1"/>
      </contour>
    </TTGlyph>
    <TTGlyph name="Hcircumflex" xMin="128" yMin="0" xMax="1088" yMax="2296">
      <component glyphName="H" x="0" y="0" flags="0x1004"/>
      <component glyphName="circumflex" x="224" y="504" flags="0x1004"/>
    </TTGlyph>
    <TTGlyph name="I" xMin="140" yMin="0" xMax="396" yMax="1792">
      <contour>
        <pt x="140" y="0" on="1"/>
        <pt x="140" y="1792" on="1"/>
        <pt x="396" y="1792" on="1"/>
        <pt x="396" y="0" on="1"/>
      </contour>
    </TTGlyph>
    <TTGlyph name="IJ" xMin="140" yMin="0" xMax="1054" yMax="1792">
      <component glyphName="J" x="542" y="0" flags="0x1004"/>
      <component glyphName="I" x="0" y="0" flags="0x1004"/>
    </TTGlyph>
    <TTGlyph name="Iacute" xMin="140" yMin="0" xMax="588" yMax="2296">
      <component glyphName="I" x="0" y="0" flags="0x1004"/>
      <component glyphName="acute" x="76" y="504" flags="0x1004"/>
    </TTGlyph>
    <TTGlyph name="Ibreve" xMin="-52" yMin="0" xMax="588" yMax="2296">
      <component glyphName="I" x="0" y="0" flags="0x1004"/>
      <component glyphName="breve" x="-116" y="504" flags="0x1004"/>
    </TTGlyph>
    <TTGlyph name="Icircumflex" xMin="-52" yMin="0" xMax="588" yMax="2296">
      <component glyphName="I" x="0" y="0" flags="0x1004"/>
      <component glyphName="circumflex" x="-116" y="504" flags="0x1004"/>
    </TTGlyph>
    <TTGlyph name="Idieresis" xMin="-52" yMin="0" xMax="588" yMax="2168">
      <component glyphName="I" x="0" y="0" flags="0x1004"/>
      <component glyphName="dieresis" x="-180" y="376" flags="0x1004"/>
    </TTGlyph>
    <TTGlyph name="Idotaccent" xMin="140" yMin="0" xMax="396" yMax="2168">
      <contour>
        <pt x="140" y="1912" on="1"/>
        <pt x="140" y="2168" on="1"/>
        <pt x="396" y="2168" on="1"/>
        <pt x="396" y="1912" on="1"/>
      </contour>
      <contour>
        <pt x="140" y="0" on="1"/>
        <pt x="140" y="1792" on="1"/>
        <pt x="396" y="1792" on="1"/>
        <pt x="396" y="0" on="1"/>
      </contour>
    </TTGlyph>
    <TTGlyph name="Igrave" xMin="-52" yMin="0" xMax="396" yMax="2296">
      <component glyphName="I" x="0" y="0" flags="0x1004"/>
      <component glyphName="grave" x="-180" y="504" flags="0x1004"/>
    </TTGlyph>
    <TTGlyph name="Imacron" xMin="51" yMin="0" xMax="485" yMax="2064">
      <component glyphName="I" x="0" y="0" flags="0x1004"/>
      <component glyphName="macron" x="-72" y="505" flags="0x1004"/>
    </TTGlyph>
    <TTGlyph name="Iogonek" xMin="-52" yMin="-505" xMax="396" yMax="1792">
      <component glyphName="I" x="0" y="0" flags="0x1004"/>
      <component glyphName="ogonek" x="-6" y="8" flags="0x1004"/>
    </TTGlyph>
    <TTGlyph name="Itilde" xMin="-85" yMin="0" xMax="621" yMax="2205">
      <component glyphName="I" x="0" y="0" flags="0x1004"/>
      <component glyphName="tilde" x="-212" y="460" flags="0x1004"/>
    </TTGlyph>
    <TTGlyph name="J" xMin="0" yMin="0" xMax="512" yMax="1792">
      <contour>
        <pt x="0" y="0" on="1"/>
        <pt x="0" y="192" on="1"/>
        <pt x="83" y="192" on="0"/>
        <pt x="176" y="210" on="0"/>
        <pt x="236" y="269" on="0"/>
        <pt x="256" y="364" on="0"/>
        <pt x="256" y="448" on="1"/>
        <pt x="256" y="1792" on="1"/>
        <pt x="512" y="1792" on="1"/>
        <pt x="512" y="448" on="1"/>
        <pt x="512" y="326" on="0"/>
        <pt x="480" y="167" on="0"/>
        <pt x="395" y="51" on="0"/>
        <pt x="244" y="0" on="0"/>
        <pt x="128" y="0" on="1"/>
      </contour>
    </TTGlyph>
    <TTGlyph name="Jcircumflex" xMin="0" yMin="0" xMax="666" yMax="2296">
      <component glyphName="J" x="0" y="0" flags="0x1004"/>
      <component glyphName="circumflex" x="-38" y="504" flags="0x1004"/>
    </TTGlyph>
    <TTGlyph name="K" xMin="128" yMin="0" xMax="1152" yMax="1792">
      <contour>
        <pt x="128" y="0" on="1"/>
        <pt x="128" y="1792" on="1"/>
        <pt x="384" y="1792" on="1"/>
        <pt x="384" y="1024" on="1"/>
        <pt x="768" y="1792" on="1"/>
        <pt x="1088" y="1792" on="1"/>
        <pt x="703" y="1088" on="1"/>
        <pt x="1152" y="0" on="1"/>
        <pt x="832" y="0" on="1"/>
        <pt x="512" y="832" on="1"/>
        <pt x="384" y="576" on="1"/>
        <pt x="384" y="0" on="1"/>
      </contour>
    </TTGlyph>
    <TTGlyph name="Kcommaaccent" xMin="128" yMin="-634" xMax="1152" yMax="1792">
      <component glyphName="uni0326" x="475" y="-43" flags="0x1004"/>
      <component glyphName="K" x="0" y="0" flags="0x1204"/>
    </TTGlyph>
    <TTGlyph name="L" xMin="128" yMin="0" xMax="832" yMax="1792">
      <contour>
        <pt x="128" y="0" on="1"/>
        <pt x="128" y="1792" on="1"/>
        <pt x="384" y="1792" on="1"/>
        <pt x="384" y="192" on="1"/>
        <pt x="832" y="192" on="1"/>
        <pt x="832" y="0" on="1"/>
      </contour>
    </TTGlyph>
    <TTGlyph name="Lacute" xMin="128" yMin="0" xMax="832" yMax="2296">
      <component glyphName="L" x="0" y="0" flags="0x1004"/>
      <component glyphName="acute" x="288" y="504" flags="0x1004"/>
    </TTGlyph>
    <TTGlyph name="Lcaron" xMin="128" yMin="0" xMax="1241" yMax="1810">
      <component glyphName="L" x="0" y="0" flags="0x1004"/>
      <component glyphName="comma" x="909" y="1554" flags="0x1004"/>
    </TTGlyph>
    <TTGlyph name="Lcommaaccent" xMin="128" yMin="-634" xMax="832" yMax="1792">
      <component glyphName="uni0326" x="315" y="-43" flags="0x1004"/>
      <component glyphName="L" x="0" y="0" flags="0x1204"/>
    </TTGlyph>
    <TTGlyph name="Ldot" xMin="128" yMin="0" xMax="856" yMax="1792">
      <component glyphName="period" x="536" y="912" flags="0x1004"/>
      <component glyphName="L" x="0" y="0" flags="0x1004"/>
      <component glyphName="periodcentered" x="494" y="0" flags="0x1004"/>
    </TTGlyph>
    <TTGlyph name="Lslash" xMin="49" yMin="0" xMax="881" yMax="1792">
      <contour>
        <pt x="177" y="0" on="1"/>
        <pt x="177" y="858" on="1"/>
        <pt x="49" y="787" on="1"/>
        <pt x="49" y="993" on="1"/>
        <pt x="177" y="1064" on="1"/>
        <pt x="177" y="1792" on="1"/>
        <pt x="433" y="1792" on="1"/>
        <pt x="433" y="1207" on="1"/>
        <pt x="699" y="1355" on="1"/>
        <pt x="699" y="1149" on="1"/>
        <pt x="433" y="1001" on="1"/>
        <pt x="433" y="192" on="1"/>
        <pt x="881" y="192" on="1"/>
        <pt x="881" y="0" on="1"/>
      </contour>
    </TTGlyph>
    <TTGlyph name="M" xMin="128" yMin="0" xMax="1344" yMax="1792">
      <contour>
        <pt x="128" y="0" on="1"/>
        <pt x="128" y="1792" on="1"/>
        <pt x="482" y="1792" on="1"/>
        <pt x="736" y="420" on="1"/>
        <pt x="990" y="1792" on="1"/>
        <pt x="1344" y="1792" on="1"/>
        <pt x="1344" y="0" on="1"/>
        <pt x="1088" y="0" on="1"/>
        <pt x="1088" y="1414" on="1"/>
        <pt x="832" y="0" on="1"/>
        <pt x="640" y="0" on="1"/>
        <pt x="384" y="1414" on="1"/>
        <pt x="384" y="0" on="1"/>
      </contour>
    </TTGlyph>
    <TTGlyph name="N" xMin="128" yMin="0" xMax="1024" yMax="1792">
      <contour>
        <pt x="128" y="0" on="1"/>
        <pt x="128" y="1792" on="1"/>
        <pt x="320" y="1792" on="1"/>
        <pt x="768" y="684" on="1"/>
        <pt x="768" y="1792" on="1"/>
        <pt x="1024" y="1792" on="1"/>
        <pt x="1024" y="0" on="1"/>
        <pt x="842" y="0" on="1"/>
        <pt x="384" y="1192" on="1"/>
        <pt x="384" y="0" on="1"/>
      </contour>
    </TTGlyph>
    <TTGlyph name="Nacute" xMin="128" yMin="0" xMax="1024" yMax="2296">
      <component glyphName="N" x="0" y="0" flags="0x1004"/>
      <component glyphName="acute" x="384" y="504" flags="0x1004"/>
    </TTGlyph>
    <TTGlyph name="Ncaron" xMin="128" yMin="0" xMax="1024" yMax="2296">
      <component glyphName="N" x="0" y="0" flags="0x1004"/>
      <component glyphName="caron" x="192" y="504" flags="0x1004"/>
    </TTGlyph>
    <TTGlyph name="Ncommaaccent" xMin="128" yMin="-634" xMax="1024" yMax="1792">
      <component glyphName="uni0326" x="411" y="-43" flags="0x1004"/>
      <component glyphName="N" x="0" y="0" flags="0x1204"/>
    </TTGlyph>
    <TTGlyph name="Ntilde" xMin="128" yMin="0" xMax="1024" yMax="2205">
      <component glyphName="N" x="0" y="0" flags="0x1004"/>
      <component glyphName="tilde" x="96" y="460" flags="0x1004"/>
    </TTGlyph>
    <TTGlyph name="O" xMin="96" yMin="-18" xMax="1084" yMax="1810">
      <contour>
        <pt x="590" y="-18" on="1"/>
        <pt x="455" y="-18" on="0"/>
        <pt x="262" y="64" on="0"/>
        <pt x="148" y="222" on="0"/>
        <pt x="96" y="435" on="0"/>
        <pt x="96" y="576" on="1"/>
        <pt x="96" y="1226" on="1"/>
        <pt x="96" y="1367" on="0"/>
        <pt x="148" y="1577" on="0"/>
        <pt x="262" y="1732" on="0"/>
        <pt x="455" y="1810" on="0"/>
        <pt x="590" y="1810" on="1"/>
        <pt x="852" y="1810" on="0"/>
        <pt x="1084" y="1510" on="0"/>
        <pt x="1084" y="1226" on="1"/>
        <pt x="1084" y="576" on="1"/>
        <pt x="1084" y="437" on="0"/>
        <pt x="1031" y="224" on="0"/>
        <pt x="917" y="65" on="0"/>
        <pt x="724" y="-18" on="0"/>
      </contour>
      <contour>
        <pt x="455" y="192" on="0"/>
        <pt x="725" y="192" on="0"/>
        <pt x="828" y="354" on="0"/>
        <pt x="828" y="512" on="1"/>
        <pt x="828" y="1290" on="1"/>
        <pt x="828" y="1446" on="0"/>
        <pt x="726" y="1600" on="0"/>
        <pt x="454" y="1600" on="0"/>
        <pt x="352" y="1446" on="0"/>
        <pt x="352" y="1290" on="1"/>
        <pt x="352" y="512" on="1"/>
        <pt x="352" y="354" on="0"/>
      </contour>
    </TTGlyph>
    <TTGlyph name="OE" xMin="128" yMin="-18" xMax="1600" yMax="1810">
      <contour>
        <pt x="503" y="192" on="0"/>
        <pt x="777" y="192" on="0"/>
        <pt x="896" y="358" on="0"/>
        <pt x="896" y="512" on="1"/>
        <pt x="896" y="1294" on="1"/>
        <pt x="894" y="1441" on="0"/>
        <pt x="774" y="1600" on="0"/>
        <pt x="640" y="1600" on="1"/>
        <pt x="503" y="1600" on="0"/>
        <pt x="384" y="1434" on="0"/>
        <pt x="384" y="1280" on="1"/>
        <pt x="384" y="512" on="1"/>
        <pt x="384" y="358" on="0"/>
      </contour>
      <contour>
        <pt x="640" y="-18" on="1"/>
        <pt x="128" y="-18" on="0"/>
        <pt x="128" y="576" on="1"/>
        <pt x="128" y="1216" on="1"/>
        <pt x="128" y="1810" on="0"/>
        <pt x="640" y="1810" on="1"/>
        <pt x="816" y="1810" on="0"/>
        <pt x="896" y="1664" on="1"/>
        <pt x="896" y="1792" on="1"/>
        <pt x="1600" y="1792" on="1"/>
        <pt x="1600" y="1600" on="1"/>
        <pt x="1152" y="1600" on="1"/>
        <pt x="1152" y="1024" on="1"/>
        <pt x="1472" y="1024" on="1"/>
        <pt x="1472" y="832" on="1"/>
        <pt x="1152" y="832" on="1"/>
        <pt x="1152" y="192" on="1"/>
        <pt x="1600" y="192" on="1"/>
        <pt x="1600" y="0" on="1"/>
        <pt x="896" y="0" on="1"/>
        <pt x="896" y="128" on="1"/>
        <pt x="820" y="-18" on="0"/>
      </contour>
    </TTGlyph>
    <TTGlyph name="Oacute" xMin="96" yMin="-18" xMax="1084" yMax="2296">
      <component glyphName="O" x="0" y="0" flags="0x1004"/>
      <component glyphName="acute" x="398" y="504" flags="0x1004"/>
    </TTGlyph>
    <TTGlyph name="Obreve" xMin="96" yMin="-18" xMax="1084" yMax="2296">
      <component glyphName="O" x="0" y="0" flags="0x1004"/>
      <component glyphName="breve" x="206" y="504" flags="0x1004"/>
    </TTGlyph>
    <TTGlyph name="Ocircumflex" xMin="96" yMin="-18" xMax="1084" yMax="2296">
      <component glyphName="O" x="0" y="0" flags="0x1004"/>
      <component glyphName="circumflex" x="206" y="504" flags="0x1004"/>
    </TTGlyph>
    <TTGlyph name="Odieresis" xMin="96" yMin="-18" xMax="1084" yMax="2168">
      <component glyphName="O" x="0" y="0" flags="0x1004"/>
      <component glyphName="dieresis" x="142" y="376" flags="0x1004"/>
    </TTGlyph>
    <TTGlyph name="Ograve" xMin="96" yMin="-18" xMax="1084" yMax="2296">
      <component glyphName="O" x="0" y="0" flags="0x1004"/>
      <component glyphName="grave" x="142" y="504" flags="0x1004"/>
    </TTGlyph>
    <TTGlyph name="Ohungarumlaut" xMin="96" yMin="-18" xMax="1084" yMax="2296">
      <component glyphName="O" x="0" y="0" flags="0x1004"/>
      <component glyphName="hungarumlaut" x="161" y="504" flags="0x1004"/>
    </TTGlyph>
    <TTGlyph name="Omacron" xMin="96" yMin="-18" xMax="1084" yMax="2064">
      <component glyphName="O" x="0" y="0" flags="0x1004"/>
      <component glyphName="macron" x="250" y="505" flags="0x1004"/>
    </TTGlyph>
    <TTGlyph name="Oslash" xMin="96" yMin="-156" xMax="1084" yMax="1944">
      <contour>
        <pt x="590" y="192" on="1"/>
        <pt x="725" y="192" on="0"/>
        <pt x="828" y="354" on="0"/>
        <pt x="828" y="512" on="1"/>
        <pt x="828" y="1290" on="1"/>
        <pt x="828" y="1417" on="0"/>
        <pt x="799" y="1484" on="1"/>
        <pt x="463" y="219" on="1"/>
        <pt x="512" y="192" on="0"/>
      </contour>
      <contour>
        <pt x="387" y="301" on="1"/>
        <pt x="723" y="1571" on="1"/>
        <pt x="671" y="1600" on="0"/>
        <pt x="590" y="1600" on="1"/>
        <pt x="454" y="1600" on="0"/>
        <pt x="352" y="1446" on="0"/>
        <pt x="352" y="1290" on="1"/>
        <pt x="352" y="512" on="1"/>
        <pt x="352" y="374" on="0"/>
      </contour>
      <contour>
        <pt x="364" y="-156" on="1"/>
        <pt x="274" y="-128" on="1"/>
        <pt x="319" y="43" on="1"/>
        <pt x="96" y="169" on="0"/>
        <pt x="96" y="576" on="1"/>
        <pt x="96" y="1226" on="1"/>
        <pt x="96" y="1367" on="0"/>
        <pt x="148" y="1577" on="0"/>
        <pt x="262" y="1732" on="0"/>
        <pt x="455" y="1810" on="0"/>
        <pt x="590" y="1810" on="1"/>
        <pt x="700" y="1810" on="0"/>
        <pt x="779" y="1785" on="1"/>
        <pt x="821" y="1944" on="1"/>
        <pt x="914" y="1920" on="1"/>
        <pt x="868" y="1746" on="1"/>
        <pt x="1084" y="1619" on="0"/>
        <pt x="1084" y="1226" on="1"/>
        <pt x="1084" y="576" on="1"/>
        <pt x="1084" y="437" on="0"/>
        <pt x="1031" y="224" on="0"/>
        <pt x="917" y="65" on="0"/>
        <pt x="724" y="-18" on="0"/>
        <pt x="590" y="-18" on="1"/>
        <pt x="486" y="-18" on="0"/>
        <pt x="407" y="6" on="1"/>
      </contour>
    </TTGlyph>
    <TTGlyph name="Otilde" xMin="96" yMin="-18" xMax="1084" yMax="2205">
      <component glyphName="O" x="0" y="0" flags="0x1004"/>
      <component glyphName="tilde" x="110" y="460" flags="0x1004"/>
    </TTGlyph>
    <TTGlyph name="P" xMin="128" yMin="0" xMax="1024" yMax="1792">
      <contour>
        <pt x="384" y="1024" on="1"/>
        <pt x="448" y="1024" on="1"/>
        <pt x="535" y="1024" on="0"/>
        <pt x="646" y="1044" on="0"/>
        <pt x="731" y="1099" on="0"/>
        <pt x="768" y="1201" on="0"/>
        <pt x="768" y="1280" on="1"/>
        <pt x="768" y="1376" on="0"/>
        <pt x="740" y="1495" on="0"/>
        <pt x="665" y="1571" on="0"/>
        <pt x="546" y="1600" on="0"/>
        <pt x="448" y="1600" on="1"/>
        <pt x="384" y="1600" on="1"/>
      </contour>
      <contour>
        <pt x="128" y="0" on="1"/>
        <pt x="128" y="1792" on="1"/>
        <pt x="576" y="1792" on="1"/>
        <pt x="1024" y="1792" on="0"/>
        <pt x="1024" y="1280" on="1"/>
        <pt x="1024" y="1061" on="0"/>
        <pt x="793" y="832" on="0"/>
        <pt x="576" y="832" on="1"/>
        <pt x="384" y="832" on="1"/>
        <pt x="384" y="0" on="1"/>
      </contour>
    </TTGlyph>
    <TTGlyph name="Q" xMin="96" yMin="-256" xMax="1084" yMax="1810">
      <contour>
        <pt x="455" y="192" on="0"/>
        <pt x="725" y="192" on="0"/>
        <pt x="828" y="354" on="0"/>
        <pt x="828" y="512" on="1"/>
        <pt x="828" y="1290" on="1"/>
        <pt x="828" y="1446" on="0"/>
        <pt x="726" y="1600" on="0"/>
        <pt x="454" y="1600" on="0"/>
        <pt x="352" y="1446" on="0"/>
        <pt x="352" y="1290" on="1"/>
        <pt x="352" y="512" on="1"/>
        <pt x="352" y="354" on="0"/>
      </contour>
      <contour>
        <pt x="1063" y="-256" on="1"/>
        <pt x="954" y="-256" on="0"/>
        <pt x="739" y="-104" on="0"/>
        <pt x="690" y="-11" on="1"/>
        <pt x="647" y="-18" on="0"/>
        <pt x="590" y="-18" on="1"/>
        <pt x="455" y="-18" on="0"/>
        <pt x="262" y="64" on="0"/>
        <pt x="148" y="222" on="0"/>
        <pt x="96" y="435" on="0"/>
        <pt x="96" y="576" on="1"/>
        <pt x="96" y="1226" on="1"/>
        <pt x="96" y="1367" on="0"/>
        <pt x="148" y="1577" on="0"/>
        <pt x="262" y="1732" on="0"/>
        <pt x="455" y="1810" on="0"/>
        <pt x="590" y="1810" on="1"/>
        <pt x="852" y="1810" on="0"/>
        <pt x="1084" y="1510" on="0"/>
        <pt x="1084" y="1226" on="1"/>
        <pt x="1084" y="576" on="1"/>
        <pt x="1084" y="180" on="0"/>
        <pt x="869" y="49" on="1"/>
        <pt x="898" y="7" on="0"/>
        <pt x="1015" y="-46" on="0"/>
        <pt x="1063" y="-46" on="1"/>
      </contour>
    </TTGlyph>
    <TTGlyph name="R" xMin="128" yMin="0" xMax="1088" yMax="1792">
      <contour>
        <pt x="384" y="1024" on="1"/>
        <pt x="448" y="1024" on="1"/>
        <pt x="608" y="1024" on="0"/>
        <pt x="768" y="1159" on="0"/>
        <pt x="768" y="1465" on="0"/>
        <pt x="608" y="1600" on="0"/>
        <pt x="448" y="1600" on="1"/>
        <pt x="384" y="1600" on="1"/>
      </contour>
      <contour>
        <pt x="128" y="0" on="1"/>
        <pt x="128" y="1792" on="1"/>
        <pt x="448" y="1792" on="1"/>
        <pt x="734" y="1792" on="0"/>
        <pt x="1024" y="1570" on="0"/>
        <pt x="1024" y="1312" on="1"/>
        <pt x="1024" y="1152" on="0"/>
        <pt x="910" y="936" on="0"/>
        <pt x="800" y="896" on="1"/>
        <pt x="1088" y="0" on="1"/>
        <pt x="834" y="0" on="1"/>
        <pt x="576" y="832" on="1"/>
        <pt x="384" y="832" on="1"/>
        <pt x="384" y="0" on="1"/>
      </contour>
    </TTGlyph>
    <TTGlyph name="Racute" xMin="128" yMin="0" xMax="1088" yMax="2296">
      <component glyphName="R" x="0" y="0" flags="0x1004"/>
      <component glyphName="acute" x="416" y="504" flags="0x1004"/>
    </TTGlyph>
    <TTGlyph name="Rcaron" xMin="128" yMin="0" xMax="1088" yMax="2296">
      <component glyphName="R" x="0" y="0" flags="0x1004"/>
      <component glyphName="caron" x="224" y="504" flags="0x1004"/>
    </TTGlyph>
    <TTGlyph name="Rcommaaccent" xMin="128" yMin="-634" xMax="1088" yMax="1792">
      <component glyphName="uni0326" x="443" y="-43" flags="0x1004"/>
      <component glyphName="R" x="0" y="0" flags="0x1204"/>
    </TTGlyph>
    <TTGlyph name="S" xMin="82" yMin="-18" xMax="1043" yMax="1810">
      <contour>
        <pt x="595" y="-18" on="1"/>
        <pt x="353" y="-18" on="0"/>
        <pt x="98" y="266" on="0"/>
        <pt x="83" y="512" on="1"/>
        <pt x="339" y="576" on="1"/>
        <pt x="358" y="192" on="0"/>
        <pt x="595" y="192" on="1"/>
        <pt x="787" y="192" on="0"/>
        <pt x="787" y="384" on="1"/>
        <pt x="787" y="441" on="0"/>
        <pt x="756" y="538" on="0"/>
        <pt x="692" y="619" on="0"/>
        <pt x="640" y="668" on="0"/>
        <pt x="595" y="704" on="1"/>
        <pt x="275" y="960" on="1"/>
        <pt x="187" y="1029" on="0"/>
        <pt x="82" y="1242" on="0"/>
        <pt x="82" y="1378" on="1"/>
        <pt x="82" y="1576" on="0"/>
        <pt x="328" y="1810" on="0"/>
        <pt x="531" y="1810" on="1"/>
        <pt x="749" y="1810" on="0"/>
        <pt x="1006" y="1597" on="0"/>
        <pt x="1036" y="1402" on="1"/>
        <pt x="1039" y="1381" on="0"/>
        <pt x="1043" y="1344" on="1"/>
        <pt x="787" y="1280" on="1"/>
        <pt x="786" y="1297" on="0"/>
        <pt x="782" y="1331" on="1"/>
        <pt x="765" y="1453" on="0"/>
        <pt x="646" y="1600" on="0"/>
        <pt x="531" y="1600" on="1"/>
        <pt x="439" y="1600" on="0"/>
        <pt x="339" y="1497" on="0"/>
        <pt x="339" y="1405" on="1"/>
        <pt x="339" y="1254" on="0"/>
        <pt x="467" y="1152" on="1"/>
        <pt x="787" y="896" on="1"/>
        <pt x="1043" y="689" on="0"/>
        <pt x="1043" y="401" on="1"/>
        <pt x="1043" y="204" on="0"/>
        <pt x="800" y="-18" on="0"/>
      </contour>
    </TTGlyph>
    <TTGlyph name="Sacute" xMin="82" yMin="-18" xMax="1043" yMax="2296">
      <component glyphName="S" x="0" y="0" flags="0x1004"/>
      <component glyphName="acute" x="370" y="504" flags="0x1004"/>
    </TTGlyph>
    <TTGlyph name="Scaron" xMin="82" yMin="-18" xMax="1043" yMax="2296">
      <component glyphName="S" x="0" y="0" flags="0x1004"/>
      <component glyphName="caron" x="178" y="504" flags="0x1004"/>
    </TTGlyph>
    <TTGlyph name="Scedilla" xMin="82" yMin="-513" xMax="1043" yMax="1810">
      <component glyphName="S" x="0" y="0" flags="0x1004"/>
      <component glyphName="cedilla" x="370" y="-1" flags="0x1004"/>
    </TTGlyph>
    <TTGlyph name="Scircumflex" xMin="82" yMin="-18" xMax="1043" yMax="2296">
      <component glyphName="S" x="0" y="0" flags="0x1004"/>
      <component glyphName="circumflex" x="178" y="504" flags="0x1004"/>
    </TTGlyph>
    <TTGlyph name="Scommaaccent" xMin="82" yMin="-652" xMax="1043" yMax="1810">
      <component glyphName="uni0326" x="430" y="-61" flags="0x1004"/>
      <component glyphName="S" x="0" y="0" flags="0x1204"/>
    </TTGlyph>
    <TTGlyph name="T" xMin="-1" yMin="0" xMax="895" yMax="1792">
      <contour>
        <pt x="319" y="0" on="1"/>
        <pt x="319" y="1564" on="1"/>
        <pt x="-1" y="1564" on="1"/>
        <pt x="-1" y="1792" on="1"/>
        <pt x="895" y="1792" on="1"/>
        <pt x="895" y="1564" on="1"/>
        <pt x="575" y="1564" on="1"/>
        <pt x="575" y="0" on="1"/>
      </contour>
    </TTGlyph>
    <TTGlyph name="Tcaron" xMin="-1" yMin="0" xMax="895" yMax="2296">
      <component glyphName="T" x="0" y="0" flags="0x1004"/>
      <component glyphName="caron" x="63" y="504" flags="0x1004"/>
    </TTGlyph>
    <TTGlyph name="Tcommaaccent" xMin="-1" yMin="-495" xMax="895" yMax="1792">
      <component glyphName="cedilla" x="255" y="17" flags="0x1004"/>
      <component glyphName="T" x="0" y="0" flags="0x1204"/>
    </TTGlyph>
    <TTGlyph name="Thorn" xMin="72" yMin="0" xMax="931" yMax="1792">
      <contour>
        <pt x="324" y="581" on="1"/>
        <pt x="369" y="581" on="1"/>
        <pt x="524" y="581" on="0"/>
        <pt x="669" y="712" on="0"/>
        <pt x="669" y="888" on="1"/>
        <pt x="669" y="1052" on="0"/>
        <pt x="542" y="1188" on="0"/>
        <pt x="401" y="1188" on="1"/>
        <pt x="324" y="1188" on="1"/>
      </contour>
      <contour>
        <pt x="72" y="0" on="1"/>
        <pt x="72" y="1792" on="1"/>
        <pt x="324" y="1792" on="1"/>
        <pt x="324" y="1411" on="1"/>
        <pt x="504" y="1411" on="1"/>
        <pt x="720" y="1411" on="0"/>
        <pt x="931" y="1136" on="0"/>
        <pt x="931" y="886" on="1"/>
        <pt x="931" y="622" on="0"/>
        <pt x="694" y="364" on="0"/>
        <pt x="457" y="364" on="1"/>
        <pt x="326" y="364" on="1"/>
        <pt x="326" y="0" on="1"/>
      </contour>
    </TTGlyph>
    <TTGlyph name="U" xMin="114" yMin="-19" xMax="1138" yMax="1792">
      <contour>
        <pt x="743" y="-19" on="0"/>
        <pt x="509" y="-19" on="0"/>
        <pt x="331" y="43" on="0"/>
        <pt x="216" y="154" on="0"/>
        <pt x="144" y="322" on="0"/>
        <pt x="114" y="517" on="0"/>
        <pt x="114" y="640" on="1"/>
        <pt x="114" y="1792" on="1"/>
        <pt x="370" y="1792" on="1"/>
        <pt x="370" y="640" on="1"/>
        <pt x="370" y="557" on="0"/>
        <pt x="377" y="445" on="0"/>
        <pt x="407" y="318" on="0"/>
        <pt x="460" y="242" on="0"/>
        <pt x="557" y="192" on="0"/>
        <pt x="695" y="192" on="0"/>
        <pt x="792" y="242" on="0"/>
        <pt x="845" y="318" on="0"/>
        <pt x="875" y="445" on="0"/>
        <pt x="882" y="557" on="0"/>
        <pt x="882" y="640" on="1"/>
        <pt x="882" y="1792" on="1"/>
        <pt x="1138" y="1792" on="1"/>
        <pt x="1138" y="640" on="1"/>
        <pt x="1138" y="517" on="0"/>
        <pt x="1108" y="322" on="0"/>
        <pt x="1036" y="154" on="0"/>
        <pt x="921" y="43" on="0"/>
      </contour>
    </TTGlyph>
    <TTGlyph name="Uacute" xMin="114" yMin="-19" xMax="1138" yMax="2296">
      <component glyphName="U" x="0" y="0" flags="0x1004"/>
      <component glyphName="acute" x="434" y="504" flags="0x1004"/>
    </TTGlyph>
    <TTGlyph name="Ubreve" xMin="114" yMin="-19" xMax="1138" yMax="2296">
      <component glyphName="U" x="0" y="0" flags="0x1004"/>
      <component glyphName="breve" x="242" y="504" flags="0x1004"/>
    </TTGlyph>
    <TTGlyph name="Ucircumflex" xMin="114" yMin="-19" xMax="1138" yMax="2296">
      <component glyphName="U" x="0" y="0" flags="0x1004"/>
      <component glyphName="circumflex" x="242" y="504" flags="0x1004"/>
    </TTGlyph>
    <TTGlyph name="Udieresis" xMin="114" yMin="-19" xMax="1138" yMax="2168">
      <component glyphName="U" x="0" y="0" flags="0x1004"/>
      <component glyphName="dieresis" x="178" y="376" flags="0x1004"/>
    </TTGlyph>
    <TTGlyph name="Ugrave" xMin="114" yMin="-19" xMax="1138" yMax="2296">
      <component glyphName="U" x="0" y="0" flags="0x1004"/>
      <component glyphName="grave" x="178" y="504" flags="0x1004"/>
    </TTGlyph>
    <TTGlyph name="Uhungarumlaut" xMin="114" yMin="-19" xMax="1138" yMax="2296">
      <component glyphName="U" x="0" y="0" flags="0x1004"/>
      <component glyphName="hungarumlaut" x="197" y="504" flags="0x1004"/>
    </TTGlyph>
    <TTGlyph name="Umacron" xMin="114" yMin="-19" xMax="1138" yMax="2064">
      <component glyphName="U" x="0" y="0" flags="0x1004"/>
      <component glyphName="macron" x="286" y="505" flags="0x1004"/>
    </TTGlyph>
    <TTGlyph name="Uogonek" xMin="114" yMin="-524" xMax="1138" yMax="1792">
      <component glyphName="U" x="0" y="0" flags="0x1004"/>
      <component glyphName="ogonek" x="352" y="-11" flags="0x1004"/>
    </TTGlyph>
    <TTGlyph name="Uring" xMin="114" yMin="-19" xMax="1138" yMax="2424">
      <component glyphName="U" x="0" y="0" flags="0x1004"/>
      <component glyphName="ring" x="306" y="504" flags="0x1004"/>
    </TTGlyph>
    <TTGlyph name="Utilde" xMin="114" yMin="-19" xMax="1138" yMax="2205">
      <component glyphName="U" x="0" y="0" flags="0x1004"/>
      <component glyphName="tilde" x="146" y="460" flags="0x1004"/>
    </TTGlyph>
    <TTGlyph name="V" xMin="12" yMin="0" xMax="1036" yMax="1792">
      <contour>
        <pt x="396" y="0" on="1"/>
        <pt x="12" y="1792" on="1"/>
        <pt x="268" y="1792" on="1"/>
        <pt x="457" y="832" on="1"/>
        <pt x="523" y="384" on="1"/>
        <pt x="591" y="832" on="1"/>
        <pt x="780" y="1792" on="1"/>
        <pt x="1036" y="1792" on="1"/>
        <pt x="652" y="0" on="1"/>
      </contour>
    </TTGlyph>
    <TTGlyph name="W" xMin="11" yMin="0" xMax="1547" yMax="1792">
      <contour>
        <pt x="331" y="0" on="1"/>
        <pt x="11" y="1792" on="1"/>
        <pt x="267" y="1792" on="1"/>
        <pt x="395" y="960" on="1"/>
        <pt x="460" y="448" on="1"/>
        <pt x="523" y="960" on="1"/>
        <pt x="651" y="1792" on="1"/>
        <pt x="907" y="1792" on="1"/>
        <pt x="1035" y="960" on="1"/>
        <pt x="1098" y="448" on="1"/>
        <pt x="1163" y="960" on="1"/>
        <pt x="1291" y="1792" on="1"/>
        <pt x="1547" y="1792" on="1"/>
        <pt x="1227" y="0" on="1"/>
        <pt x="971" y="0" on="1"/>
        <pt x="843" y="832" on="1"/>
        <pt x="779" y="1344" on="1"/>
        <pt x="715" y="832" on="1"/>
        <pt x="587" y="0" on="1"/>
      </contour>
    </TTGlyph>
    <TTGlyph name="Wacute" xMin="11" yMin="0" xMax="1547" yMax="2296">
      <component glyphName="W" x="0" y="0" flags="0x1004"/>
      <component glyphName="acute" x="587" y="504" flags="0x1004"/>
    </TTGlyph>
    <TTGlyph name="Wcircumflex" xMin="11" yMin="0" xMax="1547" yMax="2296">
      <component glyphName="W" x="0" y="0" flags="0x1004"/>
      <component glyphName="circumflex" x="395" y="504" flags="0x1004"/>
    </TTGlyph>
    <TTGlyph name="Wdieresis" xMin="11" yMin="0" xMax="1547" yMax="2168">
      <component glyphName="W" x="0" y="0" flags="0x1004"/>
      <component glyphName="dieresis" x="331" y="376" flags="0x1004"/>
    </TTGlyph>
    <TTGlyph name="Wgrave" xMin="11" yMin="0" xMax="1547" yMax="2296">
      <component glyphName="W" x="0" y="0" flags="0x1004"/>
      <component glyphName="grave" x="331" y="504" flags="0x1004"/>
    </TTGlyph>
    <TTGlyph name="X" xMin="23" yMin="0" xMax="1047" yMax="1792">
      <contour>
        <pt x="25" y="0" on="1"/>
        <pt x="343" y="929" on="1"/>
        <pt x="23" y="1792" on="1"/>
        <pt x="279" y="1792" on="1"/>
        <pt x="535" y="1088" on="1"/>
        <pt x="791" y="1792" on="1"/>
        <pt x="1047" y="1792" on="1"/>
        <pt x="727" y="933" on="1"/>
        <pt x="1043" y="0" on="1"/>
        <pt x="789" y="0" on="1"/>
        <pt x="535" y="768" on="1"/>
        <pt x="281" y="0" on="1"/>
      </contour>
    </TTGlyph>
    <TTGlyph name="Y" xMin="-3" yMin="0" xMax="1021" yMax="1792">
      <contour>
        <pt x="381" y="0" on="1"/>
        <pt x="381" y="576" on="1"/>
        <pt x="-3" y="1792" on="1"/>
        <pt x="253" y="1792" on="1"/>
        <pt x="509" y="896" on="1"/>
        <pt x="765" y="1792" on="1"/>
        <pt x="1021" y="1792" on="1"/>
        <pt x="637" y="576" on="1"/>
        <pt x="637" y="0" on="1"/>
      </contour>
    </TTGlyph>
    <TTGlyph name="Yacute" xMin="-3" yMin="0" xMax="1021" yMax="2296">
      <component glyphName="Y" x="0" y="0" flags="0x1004"/>
      <component glyphName="acute" x="317" y="504" flags="0x1004"/>
    </TTGlyph>
    <TTGlyph name="Ycircumflex" xMin="-3" yMin="0" xMax="1021" yMax="2296">
      <component glyphName="Y" x="0" y="0" flags="0x1004"/>
      <component glyphName="circumflex" x="125" y="504" flags="0x1004"/>
    </TTGlyph>
    <TTGlyph name="Ydieresis" xMin="-3" yMin="0" xMax="1021" yMax="2168">
      <component glyphName="Y" x="0" y="0" flags="0x1004"/>
      <component glyphName="dieresis" x="61" y="376" flags="0x1004"/>
    </TTGlyph>
    <TTGlyph name="Ygrave" xMin="-3" yMin="0" xMax="1021" yMax="2296">
      <component glyphName="Y" x="0" y="0" flags="0x1004"/>
      <component glyphName="grave" x="61" y="504" flags="0x1004"/>
    </TTGlyph>
    <TTGlyph name="Z" xMin="62" yMin="0" xMax="894" yMax="1792">
      <contour>
        <pt x="62" y="0" on="1"/>
        <pt x="62" y="192" on="1"/>
        <pt x="638" y="1600" on="1"/>
        <pt x="126" y="1600" on="1"/>
        <pt x="126" y="1792" on="1"/>
        <pt x="894" y="1792" on="1"/>
        <pt x="894" y="1600" on="1"/>
        <pt x="318" y="192" on="1"/>
        <pt x="894" y="192" on="1"/>
        <pt x="894" y="0" on="1"/>
      </contour>
    </TTGlyph>
    <TTGlyph name="Zacute" xMin="62" yMin="0" xMax="894" yMax="2296">
      <component glyphName="Z" x="0" y="0" flags="0x1004"/>
      <component glyphName="acute" x="286" y="504" flags="0x1004"/>
    </TTGlyph>
    <TTGlyph name="Zcaron" xMin="62" yMin="0" xMax="894" yMax="2296">
      <component glyphName="Z" x="0" y="0" flags="0x1004"/>
      <component glyphName="caron" x="94" y="504" flags="0x1004"/>
    </TTGlyph>
    <TTGlyph name="Zdotaccent" xMin="62" yMin="0" xMax="894" yMax="2168">
      <contour>
        <pt x="350" y="1912" on="1"/>
        <pt x="350" y="2168" on="1"/>
        <pt x="606" y="2168" on="1"/>
        <pt x="606" y="1912" on="1"/>
      </contour>
      <contour>
        <pt x="62" y="0" on="1"/>
        <pt x="62" y="192" on="1"/>
        <pt x="638" y="1600" on="1"/>
        <pt x="126" y="1600" on="1"/>
        <pt x="126" y="1792" on="1"/>
        <pt x="894" y="1792" on="1"/>
        <pt x="894" y="1600" on="1"/>
        <pt x="318" y="192" on="1"/>
        <pt x="894" y="192" on="1"/>
        <pt x="894" y="0" on="1"/>
      </contour>
    </TTGlyph>
    <TTGlyph name="a" xMin="84" yMin="-18" xMax="885" yMax="1298">
      <contour>
        <pt x="468" y="192" on="1"/>
        <pt x="495" y="192" on="0"/>
        <pt x="546" y="224" on="0"/>
        <pt x="572" y="254" on="0"/>
        <pt x="591" y="279" on="1"/>
        <pt x="594" y="284" on="0"/>
        <pt x="596" y="286" on="1"/>
        <pt x="596" y="640" on="1"/>
        <pt x="580" y="629" on="0"/>
        <pt x="506" y="583" on="0"/>
        <pt x="462" y="554" on="0"/>
        <pt x="400" y="503" on="0"/>
        <pt x="366" y="456" on="0"/>
        <pt x="340" y="388" on="0"/>
        <pt x="340" y="351" on="1"/>
        <pt x="340" y="192" on="0"/>
      </contour>
      <contour>
        <pt x="340" y="-18" on="1"/>
        <pt x="233" y="-18" on="0"/>
        <pt x="84" y="167" on="0"/>
        <pt x="84" y="283" on="1"/>
        <pt x="84" y="376" on="0"/>
        <pt x="147" y="528" on="0"/>
        <pt x="217" y="619" on="0"/>
        <pt x="381" y="716" on="0"/>
        <pt x="465" y="752" on="0"/>
        <pt x="569" y="793" on="1"/>
        <pt x="587" y="800" on="0"/>
        <pt x="596" y="804" on="1"/>
        <pt x="596" y="896" on="1"/>
        <pt x="596" y="993" on="0"/>
        <pt x="542" y="1100" on="0"/>
        <pt x="468" y="1100" on="1"/>
        <pt x="402" y="1100" on="0"/>
        <pt x="345" y="1009" on="0"/>
        <pt x="341" y="929" on="1"/>
        <pt x="340" y="918" on="0"/>
        <pt x="340" y="896" on="1"/>
        <pt x="84" y="896" on="1"/>
        <pt x="86" y="1080" on="0"/>
        <pt x="288" y="1298" on="0"/>
        <pt x="468" y="1298" on="1"/>
        <pt x="647" y="1298" on="0"/>
        <pt x="852" y="1077" on="0"/>
        <pt x="852" y="896" on="1"/>
        <pt x="852" y="320" on="1"/>
        <pt x="852" y="120" on="0"/>
        <pt x="885" y="0" on="1"/>
        <pt x="630" y="0" on="1"/>
        <pt x="596" y="192" on="1"/>
        <pt x="576" y="152" on="0"/>
        <pt x="551" y="108" on="0"/>
        <pt x="503" y="43" on="0"/>
        <pt x="455" y="8" on="0"/>
        <pt x="383" y="-18" on="0"/>
      </contour>
    </TTGlyph>
    <TTGlyph name="aacute" xMin="84" yMin="-18" xMax="885" yMax="1784">
      <component glyphName="a" x="0" y="0" flags="0x1004"/>
      <component glyphName="acute" x="264" y="-8" flags="0x1004"/>
    </TTGlyph>
    <TTGlyph name="abreve" xMin="84" yMin="-18" xMax="885" yMax="1784">
      <component glyphName="a" x="0" y="0" flags="0x1004"/>
      <component glyphName="breve" x="72" y="-8" flags="0x1004"/>
    </TTGlyph>
    <TTGlyph name="acircumflex" xMin="84" yMin="-18" xMax="885" yMax="1784">
      <component glyphName="a" x="0" y="0" flags="0x1004"/>
      <component glyphName="circumflex" x="72" y="-8" flags="0x1004"/>
    </TTGlyph>
    <TTGlyph name="acute" xMin="128" yMin="1408" xMax="512" yMax="1792">
      <contour>
        <pt x="128" y="1408" on="1"/>
        <pt x="256" y="1792" on="1"/>
        <pt x="512" y="1792" on="1"/>
        <pt x="256" y="1408" on="1"/>
      </contour>
    </TTGlyph>
    <TTGlyph name="adieresis" xMin="84" yMin="-18" xMax="885" yMax="1656">
      <component glyphName="a" x="0" y="0" flags="0x1004"/>
      <component glyphName="dieresis" x="8" y="-136" flags="0x1004"/>
    </TTGlyph>
    <TTGlyph name="ae" xMin="97" yMin="-18" xMax="1363" yMax="1298">
      <contour>
        <pt x="864" y="764" on="1"/>
        <pt x="981" y="764" on="1"/>
        <pt x="1021" y="770" on="0"/>
        <pt x="1065" y="783" on="0"/>
        <pt x="1104" y="812" on="0"/>
        <pt x="1120" y="863" on="0"/>
        <pt x="1120" y="904" on="1"/>
        <pt x="1120" y="983" on="0"/>
        <pt x="1058" y="1088" on="0"/>
        <pt x="992" y="1088" on="1"/>
        <pt x="965" y="1088" on="0"/>
        <pt x="924" y="1065" on="0"/>
        <pt x="897" y="1034" on="0"/>
        <pt x="878" y="977" on="0"/>
        <pt x="869" y="932" on="0"/>
        <pt x="865" y="856" on="0"/>
        <pt x="864" y="814" on="0"/>
        <pt x="864" y="775" on="1"/>
        <pt x="864" y="768" on="0"/>
      </contour>
      <contour>
        <pt x="481" y="192" on="1"/>
        <pt x="565" y="192" on="0"/>
        <pt x="652" y="291" on="1"/>
        <pt x="613" y="433" on="0"/>
        <pt x="609" y="580" on="1"/>
        <pt x="553" y="565" on="0"/>
        <pt x="476" y="536" on="0"/>
        <pt x="395" y="484" on="0"/>
        <pt x="353" y="404" on="0"/>
        <pt x="353" y="351" on="1"/>
        <pt x="353" y="192" on="0"/>
      </contour>
      <contour>
        <pt x="353" y="-18" on="1"/>
        <pt x="246" y="-18" on="0"/>
        <pt x="97" y="167" on="0"/>
        <pt x="97" y="283" on="1"/>
        <pt x="97" y="348" on="0"/>
        <pt x="128" y="458" on="0"/>
        <pt x="176" y="537" on="0"/>
        <pt x="258" y="604" on="0"/>
        <pt x="335" y="647" on="0"/>
        <pt x="452" y="687" on="0"/>
        <pt x="542" y="710" on="0"/>
        <pt x="609" y="725" on="1"/>
        <pt x="609" y="896" on="1"/>
        <pt x="609" y="993" on="0"/>
        <pt x="555" y="1100" on="0"/>
        <pt x="481" y="1100" on="1"/>
        <pt x="431" y="1100" on="0"/>
        <pt x="372" y="1042" on="0"/>
        <pt x="353" y="958" on="0"/>
        <pt x="353" y="896" on="1"/>
        <pt x="97" y="896" on="1"/>
        <pt x="99" y="1080" on="0"/>
        <pt x="302" y="1298" on="0"/>
        <pt x="481" y="1298" on="1"/>
        <pt x="576" y="1298" on="0"/>
        <pt x="713" y="1218" on="0"/>
        <pt x="737" y="1146" on="1"/>
        <pt x="775" y="1213" on="0"/>
        <pt x="904" y="1298" on="0"/>
        <pt x="992" y="1298" on="1"/>
        <pt x="1169" y="1298" on="0"/>
        <pt x="1354" y="1072" on="0"/>
        <pt x="1354" y="880" on="1"/>
        <pt x="1354" y="841" on="0"/>
        <pt x="1339" y="777" on="0"/>
        <pt x="1314" y="730" on="0"/>
        <pt x="1272" y="693" on="0"/>
        <pt x="1230" y="668" on="0"/>
        <pt x="1168" y="649" on="0"/>
        <pt x="1114" y="639" on="0"/>
        <pt x="1037" y="631" on="0"/>
        <pt x="979" y="627" on="0"/>
        <pt x="893" y="622" on="0"/>
        <pt x="864" y="619" on="1"/>
        <pt x="864" y="576" on="1"/>
        <pt x="864" y="562" on="0"/>
        <pt x="864" y="533" on="1"/>
        <pt x="862" y="496" on="0"/>
        <pt x="865" y="416" on="0"/>
        <pt x="869" y="338" on="0"/>
        <pt x="887" y="269" on="0"/>
        <pt x="913" y="216" on="0"/>
        <pt x="960" y="185" on="0"/>
        <pt x="992" y="185" on="1"/>
        <pt x="1016" y="185" on="0"/>
        <pt x="1054" y="202" on="0"/>
        <pt x="1078" y="226" on="0"/>
        <pt x="1095" y="271" on="0"/>
        <pt x="1103" y="306" on="0"/>
        <pt x="1107" y="369" on="0"/>
        <pt x="1108" y="405" on="0"/>
        <pt x="1108" y="439" on="1"/>
        <pt x="1108" y="442" on="0"/>
        <pt x="1108" y="446" on="0"/>
        <pt x="1108" y="448" on="1"/>
        <pt x="1363" y="448" on="1"/>
        <pt x="1363" y="220" on="0"/>
        <pt x="1188" y="-18" on="0"/>
        <pt x="991" y="-18" on="1"/>
        <pt x="767" y="-18" on="0"/>
        <pt x="684" y="179" on="1"/>
        <pt x="652" y="133" on="0"/>
        <pt x="598" y="72" on="0"/>
        <pt x="519" y="12" on="0"/>
        <pt x="416" y="-18" on="0"/>
      </contour>
    </TTGlyph>
    <TTGlyph name="agrave" xMin="84" yMin="-18" xMax="885" yMax="1784">
      <component glyphName="a" x="0" y="0" flags="0x1004"/>
      <component glyphName="grave" x="8" y="-8" flags="0x1004"/>
    </TTGlyph>
    <TTGlyph name="amacron" xMin="84" yMin="-18" xMax="885" yMax="1552">
      <component glyphName="a" x="0" y="0" flags="0x1004"/>
      <component glyphName="macron" x="116" y="-7" flags="0x1004"/>
    </TTGlyph>
    <TTGlyph name="ampersand" xMin="128" yMin="-18" xMax="1216" yMax="1810">
      <contour>
        <pt x="545" y="1024" on="1"/>
        <pt x="609" y="1104" on="0"/>
        <pt x="704" y="1355" on="0"/>
        <pt x="704" y="1472" on="1"/>
        <pt x="704" y="1530" on="0"/>
        <pt x="634" y="1600" on="0"/>
        <pt x="576" y="1600" on="1"/>
        <pt x="511" y="1600" on="0"/>
        <pt x="448" y="1487" on="0"/>
        <pt x="448" y="1408" on="1"/>
        <pt x="448" y="1343" on="0"/>
        <pt x="482" y="1191" on="0"/>
        <pt x="516" y="1094" on="0"/>
      </contour>
      <contour>
        <pt x="512" y="192" on="1"/>
        <pt x="634" y="192" on="0"/>
        <pt x="736" y="320" on="1"/>
        <pt x="613" y="503" on="1"/>
        <pt x="600" y="524" on="0"/>
        <pt x="537" y="605" on="0"/>
        <pt x="491" y="674" on="0"/>
        <pt x="481" y="704" on="1"/>
        <pt x="437" y="646" on="0"/>
        <pt x="384" y="476" on="0"/>
        <pt x="384" y="384" on="1"/>
        <pt x="384" y="300" on="0"/>
        <pt x="444" y="192" on="0"/>
      </contour>
      <contour>
        <pt x="512" y="-18" on="1"/>
        <pt x="334" y="-18" on="0"/>
        <pt x="128" y="202" on="0"/>
        <pt x="128" y="384" on="1"/>
        <pt x="128" y="670" on="0"/>
        <pt x="384" y="896" on="1"/>
        <pt x="370" y="925" on="0"/>
        <pt x="282" y="1086" on="0"/>
        <pt x="236" y="1183" on="0"/>
        <pt x="192" y="1338" on="0"/>
        <pt x="192" y="1408" on="1"/>
        <pt x="192" y="1588" on="0"/>
        <pt x="400" y="1810" on="0"/>
        <pt x="576" y="1810" on="1"/>
        <pt x="741" y="1810" on="0"/>
        <pt x="960" y="1627" on="0"/>
        <pt x="960" y="1472" on="1"/>
        <pt x="960" y="1402" on="0"/>
        <pt x="916" y="1258" on="0"/>
        <pt x="855" y="1146" on="0"/>
        <pt x="759" y="1021" on="0"/>
        <pt x="688" y="944" on="0"/>
        <pt x="640" y="896" on="1"/>
        <pt x="896" y="512" on="1"/>
        <pt x="914" y="552" on="0"/>
        <pt x="940" y="672" on="0"/>
        <pt x="949" y="739" on="0"/>
        <pt x="960" y="832" on="1"/>
        <pt x="1216" y="832" on="1"/>
        <pt x="1216" y="710" on="0"/>
        <pt x="1122" y="448" on="0"/>
        <pt x="1057" y="350" on="1"/>
        <pt x="1132" y="256" on="0"/>
        <pt x="1216" y="256" on="1"/>
        <pt x="1216" y="-18" on="1"/>
        <pt x="1191" y="-18" on="0"/>
        <pt x="1146" y="-13" on="0"/>
        <pt x="1100" y="4" on="0"/>
        <pt x="1068" y="15" on="0"/>
        <pt x="1023" y="46" on="0"/>
        <pt x="1003" y="57" on="0"/>
        <pt x="957" y="99" on="0"/>
        <pt x="947" y="107" on="0"/>
        <pt x="897" y="156" on="0"/>
        <pt x="896" y="157" on="1"/>
        <pt x="833" y="77" on="0"/>
        <pt x="638" y="-18" on="0"/>
      </contour>
    </TTGlyph>
    <TTGlyph name="aogonek" xMin="84" yMin="-515" xMax="885" yMax="1298">
      <component glyphName="a" x="0" y="0" flags="0x1004"/>
      <component glyphName="ogonek" x="432" y="-2" flags="0x1004"/>
    </TTGlyph>
    <TTGlyph name="aring" xMin="84" yMin="-18" xMax="885" yMax="1912">
      <component glyphName="a" x="0" y="0" flags="0x1004"/>
      <component glyphName="ring" x="136" y="-8" flags="0x1004"/>
    </TTGlyph>
    <TTGlyph name="asciicircum" xMin="64" yMin="896" xMax="832" yMax="1536">
      <contour>
        <pt x="64" y="896" on="1"/>
        <pt x="320" y="1536" on="1"/>
        <pt x="576" y="1536" on="1"/>
        <pt x="832" y="896" on="1"/>
        <pt x="576" y="896" on="1"/>
        <pt x="447" y="1344" on="1"/>
        <pt x="320" y="896" on="1"/>
      </contour>
    </TTGlyph>
    <TTGlyph name="asciitilde" xMin="127" yMin="812" xMax="833" yMax="1105">
      <contour>
        <pt x="613" y="812" on="1"/>
        <pt x="565" y="812" on="0"/>
        <pt x="464" y="856" on="0"/>
        <pt x="370" y="899" on="0"/>
        <pt x="329" y="899" on="1"/>
        <pt x="281" y="899" on="0"/>
        <pt x="281" y="832" on="1"/>
        <pt x="127" y="832" on="1"/>
        <pt x="127" y="948" on="0"/>
        <pt x="242" y="1105" on="0"/>
        <pt x="347" y="1105" on="1"/>
        <pt x="405" y="1105" on="0"/>
        <pt x="579" y="1019" on="0"/>
        <pt x="628" y="1019" on="1"/>
        <pt x="679" y="1019" on="0"/>
        <pt x="679" y="1088" on="1"/>
        <pt x="833" y="1088" on="1"/>
        <pt x="833" y="969" on="0"/>
        <pt x="720" y="812" on="0"/>
      </contour>
    </TTGlyph>
    <TTGlyph name="asterisk" xMin="106" yMin="904" xMax="854" yMax="1664">
      <contour>
        <pt x="343" y="904" on="1"/>
        <pt x="191" y="994" on="1"/>
        <pt x="363" y="1237" on="1"/>
        <pt x="106" y="1335" on="1"/>
        <pt x="167" y="1496" on="1"/>
        <pt x="412" y="1364" on="1"/>
        <pt x="384" y="1664" on="1"/>
        <pt x="576" y="1664" on="1"/>
        <pt x="547" y="1364" on="1"/>
        <pt x="793" y="1496" on="1"/>
        <pt x="854" y="1335" on="1"/>
        <pt x="597" y="1236" on="1"/>
        <pt x="769" y="994" on="1"/>
        <pt x="617" y="904" on="1"/>
        <pt x="480" y="1181" on="1"/>
      </contour>
    </TTGlyph>
    <TTGlyph name="at" xMin="128" yMin="-128" xMax="1654" yMax="1572">
      <contour>
        <pt x="884" y="502" on="1"/>
        <pt x="953" y="502" on="0"/>
        <pt x="958" y="542" on="1"/>
        <pt x="958" y="945" on="1"/>
        <pt x="951" y="996" on="0"/>
        <pt x="904" y="996" on="1"/>
        <pt x="884" y="996" on="0"/>
        <pt x="850" y="988" on="0"/>
        <pt x="824" y="967" on="0"/>
        <pt x="804" y="948" on="0"/>
        <pt x="789" y="910" on="0"/>
        <pt x="779" y="885" on="0"/>
        <pt x="773" y="834" on="0"/>
        <pt x="770" y="807" on="0"/>
        <pt x="768" y="748" on="0"/>
        <pt x="768" y="724" on="0"/>
        <pt x="768" y="693" on="1"/>
        <pt x="768" y="502" on="0"/>
      </contour>
      <contour>
        <pt x="958" y="-128" on="1"/>
        <pt x="524" y="-128" on="0"/>
        <pt x="128" y="315" on="0"/>
        <pt x="128" y="768" on="1"/>
        <pt x="128" y="1140" on="0"/>
        <pt x="534" y="1572" on="0"/>
        <pt x="896" y="1572" on="1"/>
        <pt x="1267" y="1572" on="0"/>
        <pt x="1654" y="1149" on="0"/>
        <pt x="1654" y="768" on="1"/>
        <pt x="1654" y="667" on="0"/>
        <pt x="1610" y="496" on="0"/>
        <pt x="1522" y="366" on="0"/>
        <pt x="1379" y="292" on="0"/>
        <pt x="1286" y="292" on="1"/>
        <pt x="1190" y="292" on="0"/>
        <pt x="1047" y="360" on="0"/>
        <pt x="1011" y="420" on="1"/>
        <pt x="954" y="292" on="0"/>
        <pt x="840" y="292" on="1"/>
        <pt x="734" y="292" on="0"/>
        <pt x="583" y="404" on="0"/>
        <pt x="512" y="582" on="0"/>
        <pt x="512" y="693" on="1"/>
        <pt x="512" y="770" on="0"/>
        <pt x="530" y="909" on="0"/>
        <pt x="575" y="1042" on="0"/>
        <pt x="643" y="1138" on="0"/>
        <pt x="749" y="1197" on="0"/>
        <pt x="816" y="1197" on="1"/>
        <pt x="882" y="1197" on="0"/>
        <pt x="955" y="1124" on="0"/>
        <pt x="958" y="1061" on="1"/>
        <pt x="958" y="1188" on="1"/>
        <pt x="1214" y="1188" on="1"/>
        <pt x="1214" y="620" on="1"/>
        <pt x="1214" y="582" on="0"/>
        <pt x="1220" y="538" on="0"/>
        <pt x="1252" y="502" on="0"/>
        <pt x="1282" y="502" on="1"/>
        <pt x="1398" y="502" on="0"/>
        <pt x="1398" y="768" on="1"/>
        <pt x="1398" y="916" on="0"/>
        <pt x="1346" y="1135" on="0"/>
        <pt x="1230" y="1298" on="0"/>
        <pt x="1034" y="1380" on="0"/>
        <pt x="896" y="1380" on="1"/>
        <pt x="767" y="1380" on="0"/>
        <pt x="569" y="1290" on="0"/>
        <pt x="446" y="1126" on="0"/>
        <pt x="384" y="904" on="0"/>
        <pt x="384" y="768" on="1"/>
        <pt x="384" y="596" on="0"/>
        <pt x="442" y="345" on="0"/>
        <pt x="572" y="158" on="0"/>
        <pt x="797" y="64" on="0"/>
        <pt x="958" y="64" on="1"/>
        <pt x="1083" y="64" on="0"/>
        <pt x="1254" y="119" on="1"/>
        <pt x="1348" y="-77" on="1"/>
        <pt x="1125" y="-128" on="0"/>
      </contour>
    </TTGlyph>
    <TTGlyph name="atilde" xMin="84" yMin="-18" xMax="885" yMax="1693">
      <component glyphName="a" x="0" y="0" flags="0x1004"/>
      <component glyphName="tilde" x="-24" y="-52" flags="0x1004"/>
    </TTGlyph>
    <TTGlyph name="b" xMin="117" yMin="-18" xMax="949" yMax="1791">
      <contour>
        <pt x="565" y="192" on="1"/>
        <pt x="606" y="192" on="0"/>
        <pt x="661" y="252" on="0"/>
        <pt x="686" y="363" on="0"/>
        <pt x="695" y="473" on="0"/>
        <pt x="695" y="546" on="1"/>
        <pt x="695" y="600" on="0"/>
        <pt x="694" y="778" on="0"/>
        <pt x="694" y="868" on="0"/>
        <pt x="690" y="935" on="0"/>
        <pt x="674" y="1009" on="0"/>
        <pt x="647" y="1057" on="0"/>
        <pt x="599" y="1088" on="0"/>
        <pt x="565" y="1088" on="1"/>
        <pt x="459" y="1088" on="0"/>
        <pt x="373" y="1037" on="1"/>
        <pt x="373" y="232" on="1"/>
        <pt x="472" y="192" on="0"/>
      </contour>
      <contour>
        <pt x="629" y="-18" on="1"/>
        <pt x="551" y="-18" on="0"/>
        <pt x="431" y="56" on="0"/>
        <pt x="373" y="116" on="1"/>
        <pt x="373" y="0" on="1"/>
        <pt x="117" y="0" on="1"/>
        <pt x="117" y="1791" on="1"/>
        <pt x="373" y="1791" on="1"/>
        <pt x="373" y="1153" on="1"/>
        <pt x="409" y="1191" on="0"/>
        <pt x="445" y="1225" on="0"/>
        <pt x="514" y="1277" on="0"/>
        <pt x="588" y="1298" on="0"/>
        <pt x="633" y="1298" on="1"/>
        <pt x="698" y="1298" on="0"/>
        <pt x="800" y="1251" on="0"/>
        <pt x="866" y="1185" on="0"/>
        <pt x="912" y="1061" on="0"/>
        <pt x="935" y="961" on="0"/>
        <pt x="947" y="791" on="0"/>
        <pt x="949" y="686" on="0"/>
        <pt x="949" y="594" on="1"/>
        <pt x="949" y="577" on="1"/>
        <pt x="949" y="493" on="0"/>
        <pt x="932" y="337" on="0"/>
        <pt x="887" y="175" on="0"/>
        <pt x="818" y="57" on="0"/>
        <pt x="703" y="-18" on="0"/>
      </contour>
    </TTGlyph>
    <TTGlyph name="backslash" xMin="64" yMin="0" xMax="512" yMax="1792">
      <contour>
        <pt x="256" y="0" on="1"/>
        <pt x="64" y="1792" on="1"/>
        <pt x="320" y="1792" on="1"/>
        <pt x="512" y="0" on="1"/>
      </contour>
    </TTGlyph>
    <TTGlyph name="bar" xMin="128" yMin="-128" xMax="320" yMax="1920">
      <contour>
        <pt x="128" y="-128" on="1"/>
        <pt x="128" y="1920" on="1"/>
        <pt x="320" y="1920" on="1"/>
        <pt x="320" y="-128" on="1"/>
      </contour>
    </TTGlyph>
    <TTGlyph name="braceleft" xMin="64" yMin="-64" xMax="640" yMax="1856">
      <contour>
        <pt x="640" y="-64" on="1"/>
        <pt x="508" y="-64" on="0"/>
        <pt x="330" y="10" on="0"/>
        <pt x="232" y="164" on="0"/>
        <pt x="192" y="366" on="0"/>
        <pt x="192" y="512" on="1"/>
        <pt x="192" y="525" on="0"/>
        <pt x="193" y="584" on="0"/>
        <pt x="192" y="607" on="0"/>
        <pt x="190" y="657" on="0"/>
        <pt x="186" y="677" on="0"/>
        <pt x="177" y="713" on="0"/>
        <pt x="164" y="729" on="0"/>
        <pt x="145" y="752" on="0"/>
        <pt x="119" y="761" on="0"/>
        <pt x="85" y="768" on="0"/>
        <pt x="64" y="768" on="1"/>
        <pt x="64" y="1024" on="1"/>
        <pt x="88" y="1024" on="0"/>
        <pt x="126" y="1038" on="0"/>
        <pt x="152" y="1071" on="0"/>
        <pt x="172" y="1103" on="0"/>
        <pt x="183" y="1162" on="0"/>
        <pt x="190" y="1202" on="0"/>
        <pt x="192" y="1275" on="0"/>
        <pt x="193" y="1314" on="0"/>
        <pt x="192" y="1393" on="0"/>
        <pt x="192" y="1408" on="1"/>
        <pt x="192" y="1539" on="0"/>
        <pt x="235" y="1706" on="0"/>
        <pt x="342" y="1813" on="0"/>
        <pt x="509" y="1856" on="0"/>
        <pt x="640" y="1856" on="1"/>
        <pt x="640" y="1664" on="1"/>
        <pt x="601" y="1664" on="0"/>
        <pt x="543" y="1654" on="0"/>
        <pt x="502" y="1638" on="0"/>
        <pt x="474" y="1604" on="0"/>
        <pt x="458" y="1570" on="0"/>
        <pt x="450" y="1509" on="0"/>
        <pt x="448" y="1454" on="0"/>
        <pt x="448" y="1408" on="1"/>
        <pt x="448" y="986" on="0"/>
        <pt x="256" y="896" on="1"/>
        <pt x="351" y="855" on="0"/>
        <pt x="448" y="658" on="0"/>
        <pt x="448" y="512" on="1"/>
        <pt x="448" y="509" on="0"/>
        <pt x="448" y="503" on="1"/>
        <pt x="448" y="447" on="0"/>
        <pt x="449" y="391" on="0"/>
        <pt x="456" y="296" on="0"/>
        <pt x="470" y="247" on="0"/>
        <pt x="498" y="183" on="0"/>
        <pt x="538" y="151" on="0"/>
        <pt x="600" y="128" on="0"/>
        <pt x="640" y="128" on="1"/>
      </contour>
    </TTGlyph>
    <TTGlyph name="braceright" xMin="64" yMin="-64" xMax="640" yMax="1856">
      <contour>
        <pt x="64" y="-64" on="1"/>
        <pt x="64" y="128" on="1"/>
        <pt x="92" y="128" on="0"/>
        <pt x="140" y="137" on="0"/>
        <pt x="176" y="160" on="0"/>
        <pt x="204" y="183" on="0"/>
        <pt x="225" y="226" on="0"/>
        <pt x="239" y="258" on="0"/>
        <pt x="248" y="317" on="0"/>
        <pt x="253" y="355" on="0"/>
        <pt x="256" y="427" on="0"/>
        <pt x="256" y="466" on="0"/>
        <pt x="256" y="506" on="1"/>
        <pt x="256" y="510" on="0"/>
        <pt x="256" y="512" on="1"/>
        <pt x="256" y="657" on="0"/>
        <pt x="353" y="856" on="0"/>
        <pt x="448" y="896" on="1"/>
        <pt x="256" y="982" on="0"/>
        <pt x="256" y="1408" on="1"/>
        <pt x="256" y="1444" on="0"/>
        <pt x="255" y="1489" on="0"/>
        <pt x="251" y="1542" on="0"/>
        <pt x="243" y="1573" on="0"/>
        <pt x="230" y="1609" on="0"/>
        <pt x="210" y="1629" on="0"/>
        <pt x="182" y="1649" on="0"/>
        <pt x="143" y="1658" on="0"/>
        <pt x="95" y="1664" on="0"/>
        <pt x="64" y="1664" on="1"/>
        <pt x="64" y="1856" on="1"/>
        <pt x="237" y="1856" on="0"/>
        <pt x="428" y="1772" on="0"/>
        <pt x="512" y="1581" on="0"/>
        <pt x="512" y="1408" on="1"/>
        <pt x="512" y="1392" on="0"/>
        <pt x="511" y="1315" on="0"/>
        <pt x="511" y="1275" on="0"/>
        <pt x="514" y="1202" on="0"/>
        <pt x="520" y="1161" on="0"/>
        <pt x="532" y="1104" on="0"/>
        <pt x="551" y="1071" on="0"/>
        <pt x="578" y="1038" on="0"/>
        <pt x="616" y="1024" on="0"/>
        <pt x="640" y="1024" on="1"/>
        <pt x="640" y="768" on="1"/>
        <pt x="613" y="768" on="0"/>
        <pt x="571" y="757" on="0"/>
        <pt x="544" y="737" on="0"/>
        <pt x="525" y="708" on="0"/>
        <pt x="516" y="671" on="0"/>
        <pt x="512" y="626" on="0"/>
        <pt x="512" y="576" on="0"/>
        <pt x="512" y="549" on="1"/>
        <pt x="512" y="525" on="0"/>
        <pt x="512" y="512" on="1"/>
        <pt x="512" y="395" on="0"/>
        <pt x="488" y="223" on="0"/>
        <pt x="428" y="77" on="0"/>
        <pt x="327" y="-14" on="0"/>
        <pt x="171" y="-64" on="0"/>
      </contour>
    </TTGlyph>
    <TTGlyph name="bracketleft" xMin="128" yMin="-64" xMax="640" yMax="1856">
      <contour>
        <pt x="128" y="-64" on="1"/>
        <pt x="128" y="1856" on="1"/>
        <pt x="640" y="1856" on="1"/>
        <pt x="640" y="1728" on="1"/>
        <pt x="384" y="1728" on="1"/>
        <pt x="384" y="64" on="1"/>
        <pt x="640" y="64" on="1"/>
        <pt x="640" y="-64" on="1"/>
      </contour>
    </TTGlyph>
    <TTGlyph name="bracketright" xMin="128" yMin="-64" xMax="640" yMax="1856">
      <contour>
        <pt x="128" y="-64" on="1"/>
        <pt x="128" y="64" on="1"/>
        <pt x="384" y="64" on="1"/>
        <pt x="384" y="1728" on="1"/>
        <pt x="128" y="1728" on="1"/>
        <pt x="128" y="1856" on="1"/>
        <pt x="640" y="1856" on="1"/>
        <pt x="640" y="-64" on="1"/>
      </contour>
    </TTGlyph>
    <TTGlyph name="breve" xMin="64" yMin="1408" xMax="704" yMax="1792">
      <contour>
        <pt x="384" y="1408" on="1"/>
        <pt x="205" y="1408" on="0"/>
        <pt x="64" y="1594" on="0"/>
        <pt x="64" y="1792" on="1"/>
        <pt x="256" y="1792" on="1"/>
        <pt x="256" y="1690" on="0"/>
        <pt x="305" y="1600" on="0"/>
        <pt x="463" y="1600" on="0"/>
        <pt x="512" y="1691" on="0"/>
        <pt x="512" y="1792" on="1"/>
        <pt x="704" y="1792" on="1"/>
        <pt x="704" y="1592" on="0"/>
        <pt x="565" y="1408" on="0"/>
      </contour>
    </TTGlyph>
    <TTGlyph name="brokenbar" xMin="94" yMin="-14" xMax="297" yMax="1518">
      <contour>
        <pt x="94" y="889" on="1"/>
        <pt x="94" y="1518" on="1"/>
        <pt x="297" y="1518" on="1"/>
        <pt x="297" y="889" on="1"/>
      </contour>
      <contour>
        <pt x="94" y="-14" on="1"/>
        <pt x="94" y="614" on="1"/>
        <pt x="297" y="614" on="1"/>
        <pt x="297" y="-14" on="1"/>
      </contour>
    </TTGlyph>
    <TTGlyph name="bullet" xMin="221" yMin="595" xMax="751" yMax="1187">
      <contour>
        <pt x="486" y="595" on="1"/>
        <pt x="363" y="595" on="0"/>
        <pt x="221" y="762" on="0"/>
        <pt x="221" y="891" on="1"/>
        <pt x="221" y="1021" on="0"/>
        <pt x="362" y="1187" on="0"/>
        <pt x="486" y="1187" on="1"/>
        <pt x="609" y="1187" on="0"/>
        <pt x="751" y="1020" on="0"/>
        <pt x="751" y="891" on="1"/>
        <pt x="751" y="761" on="0"/>
        <pt x="610" y="595" on="0"/>
      </contour>
    </TTGlyph>
    <TTGlyph name="c" xMin="48" yMin="-18" xMax="818" yMax="1298">
      <contour>
        <pt x="434" y="-18" on="1"/>
        <pt x="341" y="-18" on="0"/>
        <pt x="204" y="44" on="0"/>
        <pt x="122" y="144" on="0"/>
        <pt x="72" y="299" on="0"/>
        <pt x="53" y="454" on="0"/>
        <pt x="51" y="557" on="1"/>
        <pt x="48" y="640" on="0"/>
        <pt x="51" y="724" on="1"/>
        <pt x="53" y="826" on="0"/>
        <pt x="72" y="982" on="0"/>
        <pt x="123" y="1137" on="0"/>
        <pt x="204" y="1236" on="0"/>
        <pt x="341" y="1298" on="0"/>
        <pt x="434" y="1298" on="1"/>
        <pt x="636" y="1298" on="0"/>
        <pt x="812" y="1080" on="0"/>
        <pt x="818" y="866" on="1"/>
        <pt x="818" y="832" on="1"/>
        <pt x="562" y="832" on="1"/>
        <pt x="562" y="868" on="1"/>
        <pt x="561" y="916" on="0"/>
        <pt x="550" y="988" on="0"/>
        <pt x="525" y="1060" on="0"/>
        <pt x="472" y="1099" on="0"/>
        <pt x="396" y="1099" on="0"/>
        <pt x="344" y="1054" on="0"/>
        <pt x="317" y="970" on="0"/>
        <pt x="305" y="881" on="0"/>
        <pt x="304" y="823" on="1"/>
        <pt x="300" y="699" on="0"/>
        <pt x="304" y="449" on="1"/>
        <pt x="306" y="394" on="0"/>
        <pt x="318" y="311" on="0"/>
        <pt x="345" y="234" on="0"/>
        <pt x="397" y="192" on="0"/>
        <pt x="434" y="192" on="1"/>
        <pt x="468" y="192" on="0"/>
        <pt x="517" y="218" on="0"/>
        <pt x="543" y="256" on="0"/>
        <pt x="558" y="320" on="0"/>
        <pt x="562" y="375" on="0"/>
        <pt x="562" y="417" on="1"/>
        <pt x="562" y="448" on="1"/>
        <pt x="818" y="448" on="1"/>
        <pt x="818" y="415" on="1"/>
        <pt x="815" y="314" on="0"/>
        <pt x="771" y="159" on="0"/>
        <pt x="682" y="43" on="0"/>
        <pt x="535" y="-18" on="0"/>
      </contour>
    </TTGlyph>
    <TTGlyph name="cacute" xMin="48" yMin="-18" xMax="818" yMax="1784">
      <component glyphName="c" x="0" y="0" flags="0x1004"/>
      <component glyphName="acute" x="285" y="-8" flags="0x1004"/>
    </TTGlyph>
    <TTGlyph name="caron" xMin="64" yMin="1408" xMax="704" yMax="1792">
      <contour>
        <pt x="256" y="1408" on="1"/>
        <pt x="64" y="1792" on="1"/>
        <pt x="256" y="1792" on="1"/>
        <pt x="384" y="1536" on="1"/>
        <pt x="512" y="1792" on="1"/>
        <pt x="704" y="1792" on="1"/>
        <pt x="512" y="1408" on="1"/>
      </contour>
    </TTGlyph>
    <TTGlyph name="ccaron" xMin="48" yMin="-18" xMax="818" yMax="1784">
      <component glyphName="c" x="0" y="0" flags="0x1004"/>
      <component glyphName="caron" x="93" y="-8" flags="0x1004"/>
    </TTGlyph>
    <TTGlyph name="ccedilla" xMin="48" yMin="-513" xMax="818" yMax="1298">
      <component glyphName="c" x="0" y="0" flags="0x1004"/>
      <component glyphName="cedilla" x="285" y="-1" flags="0x1004"/>
    </TTGlyph>
    <TTGlyph name="ccircumflex" xMin="48" yMin="-18" xMax="818" yMax="1784">
      <component glyphName="c" x="0" y="0" flags="0x1004"/>
      <component glyphName="circumflex" x="93" y="-8" flags="0x1004"/>
    </TTGlyph>
    <TTGlyph name="cdotaccent" xMin="48" yMin="-18" xMax="818" yMax="1656">
      <contour>
        <pt x="349" y="1400" on="1"/>
        <pt x="349" y="1656" on="1"/>
        <pt x="605" y="1656" on="1"/>
        <pt x="605" y="1400" on="1"/>
      </contour>
      <contour>
        <pt x="434" y="-18" on="1"/>
        <pt x="341" y="-18" on="0"/>
        <pt x="204" y="44" on="0"/>
        <pt x="122" y="144" on="0"/>
        <pt x="72" y="299" on="0"/>
        <pt x="53" y="454" on="0"/>
        <pt x="51" y="557" on="1"/>
        <pt x="48" y="640" on="0"/>
        <pt x="51" y="724" on="1"/>
        <pt x="53" y="826" on="0"/>
        <pt x="72" y="982" on="0"/>
        <pt x="123" y="1137" on="0"/>
        <pt x="204" y="1236" on="0"/>
        <pt x="341" y="1298" on="0"/>
        <pt x="434" y="1298" on="1"/>
        <pt x="636" y="1298" on="0"/>
        <pt x="812" y="1080" on="0"/>
        <pt x="818" y="866" on="1"/>
        <pt x="818" y="832" on="1"/>
        <pt x="562" y="832" on="1"/>
        <pt x="562" y="868" on="1"/>
        <pt x="561" y="916" on="0"/>
        <pt x="550" y="988" on="0"/>
        <pt x="525" y="1060" on="0"/>
        <pt x="472" y="1099" on="0"/>
        <pt x="396" y="1099" on="0"/>
        <pt x="344" y="1054" on="0"/>
        <pt x="317" y="970" on="0"/>
        <pt x="305" y="881" on="0"/>
        <pt x="304" y="823" on="1"/>
        <pt x="300" y="699" on="0"/>
        <pt x="304" y="449" on="1"/>
        <pt x="306" y="394" on="0"/>
        <pt x="318" y="311" on="0"/>
        <pt x="345" y="234" on="0"/>
        <pt x="397" y="192" on="0"/>
        <pt x="434" y="192" on="1"/>
        <pt x="468" y="192" on="0"/>
        <pt x="517" y="218" on="0"/>
        <pt x="543" y="256" on="0"/>
        <pt x="558" y="320" on="0"/>
        <pt x="562" y="375" on="0"/>
        <pt x="562" y="417" on="1"/>
        <pt x="562" y="448" on="1"/>
        <pt x="818" y="448" on="1"/>
        <pt x="818" y="415" on="1"/>
        <pt x="815" y="314" on="0"/>
        <pt x="771" y="159" on="0"/>
        <pt x="682" y="43" on="0"/>
        <pt x="535" y="-18" on="0"/>
      </contour>
    </TTGlyph>
    <TTGlyph name="cedilla" xMin="64" yMin="-512" xMax="512" yMax="0">
      <contour>
        <pt x="64" y="-512" on="1"/>
        <pt x="64" y="-384" on="1"/>
        <pt x="79" y="-384" on="0"/>
        <pt x="152" y="-386" on="0"/>
        <pt x="172" y="-386" on="1"/>
        <pt x="240" y="-386" on="0"/>
        <pt x="320" y="-359" on="0"/>
        <pt x="320" y="-320" on="1"/>
        <pt x="320" y="-306" on="0"/>
        <pt x="305" y="-280" on="0"/>
        <pt x="276" y="-257" on="0"/>
        <pt x="247" y="-239" on="0"/>
        <pt x="203" y="-220" on="0"/>
        <pt x="177" y="-209" on="0"/>
        <pt x="133" y="-194" on="0"/>
        <pt x="128" y="-192" on="1"/>
        <pt x="128" y="0" on="1"/>
        <pt x="256" y="0" on="1"/>
        <pt x="256" y="-128" on="1"/>
        <pt x="303" y="-141" on="0"/>
        <pt x="372" y="-167" on="0"/>
        <pt x="462" y="-213" on="0"/>
        <pt x="512" y="-279" on="0"/>
        <pt x="512" y="-320" on="1"/>
        <pt x="512" y="-358" on="0"/>
        <pt x="490" y="-417" on="0"/>
        <pt x="455" y="-457" on="0"/>
        <pt x="398" y="-485" on="0"/>
        <pt x="342" y="-501" on="0"/>
        <pt x="260" y="-510" on="0"/>
        <pt x="195" y="-512" on="0"/>
        <pt x="149" y="-512" on="1"/>
      </contour>
    </TTGlyph>
    <TTGlyph name="cent" xMin="129" yMin="-128" xMax="898" yMax="1408">
      <contour>
        <pt x="479" y="206" on="1"/>
        <pt x="479" y="1071" on="1"/>
        <pt x="456" y="1060" on="0"/>
        <pt x="421" y="1021" on="0"/>
        <pt x="401" y="960" on="0"/>
        <pt x="388" y="908" on="0"/>
        <pt x="384" y="818" on="0"/>
        <pt x="383" y="767" on="0"/>
        <pt x="385" y="660" on="0"/>
        <pt x="385" y="640" on="1"/>
        <pt x="385" y="616" on="0"/>
        <pt x="383" y="518" on="0"/>
        <pt x="383" y="458" on="0"/>
        <pt x="386" y="371" on="0"/>
        <pt x="398" y="314" on="0"/>
        <pt x="418" y="254" on="0"/>
        <pt x="454" y="216" on="0"/>
      </contour>
      <contour>
        <pt x="479" y="-128" on="1"/>
        <pt x="479" y="-15" on="1"/>
        <pt x="391" y="-8" on="0"/>
        <pt x="265" y="50" on="0"/>
        <pt x="189" y="138" on="0"/>
        <pt x="144" y="278" on="0"/>
        <pt x="129" y="428" on="0"/>
        <pt x="129" y="532" on="1"/>
        <pt x="129" y="733" on="1"/>
        <pt x="129" y="833" on="0"/>
        <pt x="146" y="987" on="0"/>
        <pt x="193" y="1128" on="0"/>
        <pt x="270" y="1223" on="0"/>
        <pt x="394" y="1286" on="0"/>
        <pt x="479" y="1294" on="1"/>
        <pt x="479" y="1408" on="1"/>
        <pt x="557" y="1408" on="1"/>
        <pt x="557" y="1294" on="1"/>
        <pt x="735" y="1274" on="0"/>
        <pt x="897" y="1040" on="0"/>
        <pt x="897" y="831" on="1"/>
        <pt x="641" y="832" on="1"/>
        <pt x="641" y="933" on="0"/>
        <pt x="609" y="1049" on="0"/>
        <pt x="557" y="1073" on="1"/>
        <pt x="557" y="207" on="1"/>
        <pt x="581" y="219" on="0"/>
        <pt x="614" y="260" on="0"/>
        <pt x="631" y="304" on="0"/>
        <pt x="639" y="376" on="0"/>
        <pt x="641" y="428" on="0"/>
        <pt x="641" y="473" on="1"/>
        <pt x="897" y="473" on="1"/>
        <pt x="897" y="468" on="0"/>
        <pt x="898" y="438" on="0"/>
        <pt x="898" y="430" on="1"/>
        <pt x="898" y="239" on="0"/>
        <pt x="725" y="5" on="0"/>
        <pt x="557" y="-14" on="1"/>
        <pt x="557" y="-128" on="1"/>
      </contour>
    </TTGlyph>
    <TTGlyph name="circumflex" xMin="64" yMin="1408" xMax="704" yMax="1792">
      <contour>
        <pt x="64" y="1408" on="1"/>
        <pt x="256" y="1792" on="1"/>
        <pt x="512" y="1792" on="1"/>
        <pt x="704" y="1408" on="1"/>
        <pt x="512" y="1408" on="1"/>
        <pt x="384" y="1664" on="1"/>
        <pt x="256" y="1408" on="1"/>
      </contour>
    </TTGlyph>
    <TTGlyph name="colon" xMin="128" yMin="256" xMax="384" yMax="1088">
      <contour>
        <pt x="128" y="832" on="1"/>
        <pt x="128" y="1088" on="1"/>
        <pt x="384" y="1088" on="1"/>
        <pt x="384" y="832" on="1"/>
      </contour>
      <contour>
        <pt x="128" y="256" on="1"/>
        <pt x="128" y="512" on="1"/>
        <pt x="384" y="512" on="1"/>
        <pt x="384" y="256" on="1"/>
      </contour>
    </TTGlyph>
    <TTGlyph name="comma" xMin="76" yMin="-256" xMax="332" yMax="256">
      <contour>
        <pt x="140" y="-256" on="1"/>
        <pt x="76" y="-128" on="1"/>
        <pt x="145" y="-128" on="0"/>
        <pt x="204" y="-68" on="0"/>
        <pt x="204" y="0" on="1"/>
        <pt x="76" y="0" on="1"/>
        <pt x="76" y="256" on="1"/>
        <pt x="332" y="256" on="1"/>
        <pt x="332" y="112" on="0"/>
        <pt x="329" y="14" on="1"/>
        <pt x="327" y="-40" on="0"/>
        <pt x="319" y="-114" on="0"/>
        <pt x="295" y="-187" on="0"/>
        <pt x="255" y="-230" on="0"/>
        <pt x="188" y="-256" on="0"/>
      </contour>
    </TTGlyph>
    <TTGlyph name="copyright" xMin="70" yMin="-14" xMax="1458" yMax="1415">
      <contour>
        <pt x="764" y="-14" on="1"/>
        <pt x="614" y="-14" on="0"/>
        <pt x="355" y="96" on="0"/>
        <pt x="174" y="286" on="0"/>
        <pt x="70" y="550" on="0"/>
        <pt x="70" y="700" on="1"/>
        <pt x="70" y="902" on="0"/>
        <pt x="246" y="1228" on="0"/>
        <pt x="564" y="1415" on="0"/>
        <pt x="764" y="1415" on="1"/>
        <pt x="914" y="1415" on="0"/>
        <pt x="1173" y="1305" on="0"/>
        <pt x="1354" y="1115" on="0"/>
        <pt x="1458" y="850" on="0"/>
        <pt x="1458" y="700" on="1"/>
        <pt x="1458" y="499" on="0"/>
        <pt x="1281" y="173" on="0"/>
        <pt x="963" y="-14" on="0"/>
      </contour>
      <contour>
        <pt x="612" y="133" on="0"/>
        <pt x="916" y="133" on="0"/>
        <pt x="1156" y="284" on="0"/>
        <pt x="1286" y="540" on="0"/>
        <pt x="1286" y="696" on="1"/>
        <pt x="1286" y="813" on="0"/>
        <pt x="1210" y="1021" on="0"/>
        <pt x="1075" y="1172" on="0"/>
        <pt x="879" y="1260" on="0"/>
        <pt x="764" y="1260" on="1"/>
        <pt x="611" y="1260" on="0"/>
        <pt x="370" y="1109" on="0"/>
        <pt x="242" y="853" on="0"/>
        <pt x="242" y="696" on="1"/>
        <pt x="242" y="541" on="0"/>
        <pt x="372" y="284" on="0"/>
      </contour>
      <contour>
        <pt x="768" y="217" on="1"/>
        <pt x="710" y="217" on="0"/>
        <pt x="619" y="246" on="0"/>
        <pt x="558" y="291" on="0"/>
        <pt x="515" y="369" on="0"/>
        <pt x="491" y="445" on="0"/>
        <pt x="478" y="560" on="0"/>
        <pt x="475" y="654" on="0"/>
        <pt x="475" y="723" on="1"/>
        <pt x="475" y="810" on="0"/>
        <pt x="487" y="934" on="0"/>
        <pt x="523" y="1057" on="0"/>
        <pt x="587" y="1133" on="0"/>
        <pt x="697" y="1180" on="0"/>
        <pt x="774" y="1180" on="1"/>
        <pt x="1055" y="1180" on="0"/>
        <pt x="1055" y="840" on="1"/>
        <pt x="872" y="840" on="1"/>
        <pt x="872" y="881" on="0"/>
        <pt x="866" y="939" on="0"/>
        <pt x="848" y="1003" on="0"/>
        <pt x="807" y="1036" on="0"/>
        <pt x="776" y="1036" on="1"/>
        <pt x="753" y="1036" on="0"/>
        <pt x="716" y="1026" on="0"/>
        <pt x="690" y="1002" on="0"/>
        <pt x="672" y="977" on="0"/>
        <pt x="661" y="934" on="0"/>
        <pt x="655" y="900" on="0"/>
        <pt x="654" y="842" on="0"/>
        <pt x="654" y="805" on="0"/>
        <pt x="655" y="739" on="0"/>
        <pt x="655" y="703" on="0"/>
        <pt x="654" y="639" on="0"/>
        <pt x="653" y="595" on="0"/>
        <pt x="654" y="534" on="0"/>
        <pt x="659" y="491" on="0"/>
        <pt x="669" y="441" on="0"/>
        <pt x="686" y="408" on="0"/>
        <pt x="710" y="379" on="0"/>
        <pt x="746" y="365" on="0"/>
        <pt x="768" y="365" on="1"/>
        <pt x="803" y="365" on="0"/>
        <pt x="849" y="401" on="0"/>
        <pt x="868" y="470" on="0"/>
        <pt x="874" y="532" on="0"/>
        <pt x="874" y="578" on="1"/>
        <pt x="1053" y="578" on="1"/>
        <pt x="1053" y="562" on="1"/>
        <pt x="1053" y="406" on="0"/>
        <pt x="912" y="217" on="0"/>
      </contour>
    </TTGlyph>
    <TTGlyph name="currency" xMin="105" yMin="489" xMax="919" yMax="1303">
      <contour>
        <pt x="421" y="682" on="0"/>
        <pt x="603" y="682" on="0"/>
        <pt x="704" y="800" on="0"/>
        <pt x="704" y="992" on="0"/>
        <pt x="603" y="1110" on="0"/>
        <pt x="512" y="1110" on="1"/>
        <pt x="420" y="1110" on="0"/>
        <pt x="320" y="993" on="0"/>
        <pt x="320" y="801" on="0"/>
      </contour>
      <contour>
        <pt x="195" y="489" on="1"/>
        <pt x="105" y="579" on="1"/>
        <pt x="191" y="665" on="1"/>
        <pt x="128" y="761" on="0"/>
        <pt x="128" y="897" on="1"/>
        <pt x="128" y="1030" on="0"/>
        <pt x="191" y="1127" on="1"/>
        <pt x="105" y="1213" on="1"/>
        <pt x="195" y="1303" on="1"/>
        <pt x="281" y="1217" on="1"/>
        <pt x="378" y="1280" on="0"/>
        <pt x="646" y="1280" on="0"/>
        <pt x="743" y="1217" on="1"/>
        <pt x="829" y="1303" on="1"/>
        <pt x="919" y="1213" on="1"/>
        <pt x="832" y="1126" on="1"/>
        <pt x="896" y="1028" on="0"/>
        <pt x="896" y="897" on="1"/>
        <pt x="896" y="765" on="0"/>
        <pt x="832" y="665" on="1"/>
        <pt x="919" y="579" on="1"/>
        <pt x="829" y="489" on="1"/>
        <pt x="743" y="575" on="1"/>
        <pt x="646" y="512" on="0"/>
        <pt x="378" y="512" on="0"/>
        <pt x="281" y="575" on="1"/>
      </contour>
    </TTGlyph>
    <TTGlyph name="d" xMin="93" yMin="-18" xMax="926" yMax="1791">
      <contour>
        <pt x="478" y="192" on="1"/>
        <pt x="571" y="192" on="0"/>
        <pt x="670" y="232" on="1"/>
        <pt x="670" y="1037" on="1"/>
        <pt x="584" y="1088" on="0"/>
        <pt x="478" y="1088" on="1"/>
        <pt x="440" y="1088" on="0"/>
        <pt x="388" y="1051" on="0"/>
        <pt x="362" y="980" on="0"/>
        <pt x="350" y="905" on="0"/>
        <pt x="349" y="854" on="1"/>
        <pt x="345" y="630" on="0"/>
        <pt x="349" y="499" on="1"/>
        <pt x="350" y="435" on="0"/>
        <pt x="362" y="335" on="0"/>
        <pt x="389" y="242" on="0"/>
        <pt x="441" y="192" on="0"/>
      </contour>
      <contour>
        <pt x="414" y="-18" on="1"/>
        <pt x="329" y="-18" on="0"/>
        <pt x="202" y="78" on="0"/>
        <pt x="133" y="242" on="0"/>
        <pt x="99" y="419" on="0"/>
        <pt x="95" y="521" on="1"/>
        <pt x="93" y="568" on="0"/>
        <pt x="95" y="751" on="1"/>
        <pt x="97" y="817" on="0"/>
        <pt x="105" y="924" on="0"/>
        <pt x="124" y="1040" on="0"/>
        <pt x="153" y="1129" on="0"/>
        <pt x="201" y="1212" on="0"/>
        <pt x="265" y="1266" on="0"/>
        <pt x="355" y="1298" on="0"/>
        <pt x="410" y="1298" on="1"/>
        <pt x="453" y="1298" on="0"/>
        <pt x="528" y="1275" on="0"/>
        <pt x="596" y="1226" on="0"/>
        <pt x="637" y="1188" on="0"/>
        <pt x="670" y="1153" on="1"/>
        <pt x="670" y="1791" on="1"/>
        <pt x="926" y="1791" on="1"/>
        <pt x="926" y="0" on="1"/>
        <pt x="670" y="0" on="1"/>
        <pt x="670" y="116" on="1"/>
        <pt x="612" y="56" on="0"/>
        <pt x="492" y="-18" on="0"/>
      </contour>
    </TTGlyph>
    <TTGlyph name="dagger" xMin="100" yMin="0" xMax="751" yMax="1536">
      <contour>
        <pt x="300" y="0" on="1"/>
        <pt x="300" y="990" on="1"/>
        <pt x="100" y="990" on="1"/>
        <pt x="100" y="1190" on="1"/>
        <pt x="300" y="1190" on="1"/>
        <pt x="300" y="1536" on="1"/>
        <pt x="550" y="1536" on="1"/>
        <pt x="550" y="1190" on="1"/>
        <pt x="751" y="1190" on="1"/>
        <pt x="751" y="990" on="1"/>
        <pt x="550" y="990" on="1"/>
        <pt x="550" y="0" on="1"/>
      </contour>
    </TTGlyph>
    <TTGlyph name="daggerdbl" xMin="100" yMin="0" xMax="751" yMax="1536">
      <contour>
        <pt x="300" y="0" on="1"/>
        <pt x="300" y="500" on="1"/>
        <pt x="100" y="500" on="1"/>
        <pt x="100" y="700" on="1"/>
        <pt x="300" y="700" on="1"/>
        <pt x="300" y="1050" on="1"/>
        <pt x="100" y="1050" on="1"/>
        <pt x="100" y="1250" on="1"/>
        <pt x="300" y="1250" on="1"/>
        <pt x="300" y="1536" on="1"/>
        <pt x="550" y="1536" on="1"/>
        <pt x="550" y="1250" on="1"/>
        <pt x="751" y="1250" on="1"/>
        <pt x="751" y="1050" on="1"/>
        <pt x="550" y="1050" on="1"/>
        <pt x="550" y="700" on="1"/>
        <pt x="751" y="700" on="1"/>
        <pt x="751" y="500" on="1"/>
        <pt x="550" y="500" on="1"/>
        <pt x="550" y="0" on="1"/>
      </contour>
    </TTGlyph>
    <TTGlyph name="dcaron" xMin="93" yMin="-18" xMax="1334" yMax="1791">
      <component glyphName="d" x="0" y="0" flags="0x1004"/>
      <component glyphName="comma" x="1002" y="1535" flags="0x1004"/>
    </TTGlyph>
    <TTGlyph name="dcroat" xMin="96" yMin="-18" xMax="1056" yMax="1791">
      <contour>
        <pt x="480" y="192" on="1"/>
        <pt x="573" y="192" on="0"/>
        <pt x="672" y="232" on="1"/>
        <pt x="672" y="1037" on="1"/>
        <pt x="586" y="1088" on="0"/>
        <pt x="480" y="1088" on="1"/>
        <pt x="456" y="1088" on="0"/>
        <pt x="417" y="1073" on="0"/>
        <pt x="390" y="1041" on="0"/>
        <pt x="370" y="1006" on="0"/>
        <pt x="359" y="951" on="0"/>
        <pt x="353" y="907" on="0"/>
        <pt x="351" y="838" on="0"/>
        <pt x="351" y="794" on="0"/>
        <pt x="352" y="722" on="0"/>
        <pt x="352" y="705" on="1"/>
        <pt x="352" y="684" on="0"/>
        <pt x="351" y="600" on="0"/>
        <pt x="350" y="539" on="0"/>
        <pt x="351" y="451" on="0"/>
        <pt x="358" y="386" on="0"/>
        <pt x="368" y="312" on="0"/>
        <pt x="388" y="260" on="0"/>
        <pt x="415" y="215" on="0"/>
        <pt x="455" y="192" on="0"/>
      </contour>
      <contour>
        <pt x="416" y="-18" on="1"/>
        <pt x="342" y="-18" on="0"/>
        <pt x="227" y="57" on="0"/>
        <pt x="157" y="175" on="0"/>
        <pt x="113" y="337" on="0"/>
        <pt x="96" y="493" on="0"/>
        <pt x="96" y="577" on="1"/>
        <pt x="96" y="581" on="0"/>
        <pt x="96" y="589" on="1"/>
        <pt x="96" y="685" on="0"/>
        <pt x="98" y="785" on="0"/>
        <pt x="109" y="961" on="0"/>
        <pt x="132" y="1058" on="0"/>
        <pt x="178" y="1185" on="0"/>
        <pt x="244" y="1250" on="0"/>
        <pt x="346" y="1298" on="0"/>
        <pt x="412" y="1298" on="1"/>
        <pt x="455" y="1298" on="0"/>
        <pt x="530" y="1275" on="0"/>
        <pt x="598" y="1226" on="0"/>
        <pt x="639" y="1188" on="0"/>
        <pt x="672" y="1153" on="1"/>
        <pt x="672" y="1500" on="1"/>
        <pt x="412" y="1500" on="1"/>
        <pt x="412" y="1638" on="1"/>
        <pt x="672" y="1638" on="1"/>
        <pt x="672" y="1791" on="1"/>
        <pt x="928" y="1791" on="1"/>
        <pt x="928" y="1638" on="1"/>
        <pt x="1056" y="1638" on="1"/>
        <pt x="1056" y="1500" on="1"/>
        <pt x="928" y="1500" on="1"/>
        <pt x="928" y="0" on="1"/>
        <pt x="672" y="0" on="1"/>
        <pt x="672" y="116" on="1"/>
        <pt x="614" y="56" on="0"/>
        <pt x="494" y="-18" on="0"/>
      </contour>
    </TTGlyph>
    <TTGlyph name="degree" xMin="128" yMin="1042" xMax="896" yMax="1810">
      <contour>
        <pt x="692" y="1042" on="0"/>
        <pt x="332" y="1042" on="0"/>
        <pt x="128" y="1248" on="0"/>
        <pt x="128" y="1427" on="1"/>
        <pt x="128" y="1605" on="0"/>
        <pt x="332" y="1810" on="0"/>
        <pt x="692" y="1810" on="0"/>
        <pt x="896" y="1605" on="0"/>
        <pt x="896" y="1427" on="1"/>
        <pt x="896" y="1248" on="0"/>
      </contour>
      <contour>
        <pt x="421" y="1212" on="0"/>
        <pt x="603" y="1212" on="0"/>
        <pt x="704" y="1330" on="0"/>
        <pt x="704" y="1522" on="0"/>
        <pt x="603" y="1640" on="0"/>
        <pt x="512" y="1640" on="1"/>
        <pt x="420" y="1640" on="0"/>
        <pt x="320" y="1523" on="0"/>
        <pt x="320" y="1331" on="0"/>
      </contour>
    </TTGlyph>
    <TTGlyph name="dieresis" xMin="128" yMin="1536" xMax="768" yMax="1792">
      <contour>
        <pt x="512" y="1536" on="1"/>
        <pt x="512" y="1792" on="1"/>
        <pt x="768" y="1792" on="1"/>
        <pt x="768" y="1536" on="1"/>
      </contour>
      <contour>
        <pt x="128" y="1536" on="1"/>
        <pt x="128" y="1792" on="1"/>
        <pt x="384" y="1792" on="1"/>
        <pt x="384" y="1536" on="1"/>
      </contour>
    </TTGlyph>
    <TTGlyph name="divide" xMin="0" yMin="233" xMax="640" yMax="1135">
      <contour>
        <pt x="192" y="879" on="1"/>
        <pt x="192" y="1135" on="1"/>
        <pt x="448" y="1135" on="1"/>
        <pt x="448" y="879" on="1"/>
      </contour>
      <contour>
        <pt x="0" y="576" on="1"/>
        <pt x="0" y="768" on="1"/>
        <pt x="640" y="768" on="1"/>
        <pt x="640" y="576" on="1"/>
      </contour>
      <contour>
        <pt x="192" y="233" on="1"/>
        <pt x="192" y="489" on="1"/>
        <pt x="448" y="489" on="1"/>
        <pt x="448" y="233" on="1"/>
      </contour>
    </TTGlyph>
    <TTGlyph name="dollar" xMin="127" yMin="-128" xMax="1088" yMax="1920">
      <contour>
        <pt x="704" y="198" on="1"/>
        <pt x="832" y="227" on="0"/>
        <pt x="832" y="384" on="1"/>
        <pt x="832" y="462" on="0"/>
        <pt x="776" y="576" on="0"/>
        <pt x="724" y="628" on="1"/>
        <pt x="704" y="648" on="1"/>
      </contour>
      <contour>
        <pt x="576" y="1101" on="1"/>
        <pt x="576" y="1600" on="1"/>
        <pt x="484" y="1600" on="0"/>
        <pt x="384" y="1496" on="0"/>
        <pt x="384" y="1405" on="1"/>
        <pt x="384" y="1253" on="0"/>
        <pt x="512" y="1152" on="1"/>
      </contour>
      <contour>
        <pt x="576" y="-128" on="1"/>
        <pt x="576" y="-15" on="1"/>
        <pt x="368" y="0" on="0"/>
        <pt x="141" y="285" on="0"/>
        <pt x="128" y="512" on="1"/>
        <pt x="384" y="576" on="1"/>
        <pt x="394" y="283" on="0"/>
        <pt x="555" y="208" on="1"/>
        <pt x="576" y="200" on="1"/>
        <pt x="576" y="755" on="1"/>
        <pt x="320" y="960" on="1"/>
        <pt x="232" y="1031" on="0"/>
        <pt x="127" y="1242" on="0"/>
        <pt x="127" y="1378" on="1"/>
        <pt x="127" y="1576" on="0"/>
        <pt x="373" y="1810" on="0"/>
        <pt x="576" y="1810" on="1"/>
        <pt x="576" y="1920" on="1"/>
        <pt x="704" y="1920" on="1"/>
        <pt x="704" y="1799" on="1"/>
        <pt x="745" y="1790" on="1"/>
        <pt x="1061" y="1704" on="0"/>
        <pt x="1088" y="1344" on="1"/>
        <pt x="832" y="1280" on="1"/>
        <pt x="823" y="1468" on="0"/>
        <pt x="724" y="1549" on="1"/>
        <pt x="704" y="1564" on="1"/>
        <pt x="704" y="998" on="1"/>
        <pt x="832" y="896" on="1"/>
        <pt x="945" y="808" on="0"/>
        <pt x="1088" y="559" on="0"/>
        <pt x="1088" y="401" on="1"/>
        <pt x="1088" y="220" on="0"/>
        <pt x="880" y="4" on="0"/>
        <pt x="704" y="-15" on="1"/>
        <pt x="704" y="-128" on="1"/>
      </contour>
    </TTGlyph>
    <TTGlyph name="dotaccent" xMin="64" yMin="1446" xMax="320" yMax="1702">
      <contour>
        <pt x="64" y="1446" on="1"/>
        <pt x="64" y="1702" on="1"/>
        <pt x="320" y="1702" on="1"/>
        <pt x="320" y="1446" on="1"/>
      </contour>
    </TTGlyph>
    <TTGlyph name="dotlessi" xMin="128" yMin="0" xMax="384" yMax="1280">
      <contour>
        <pt x="128" y="0" on="1"/>
        <pt x="128" y="1280" on="1"/>
        <pt x="384" y="1280" on="1"/>
        <pt x="384" y="0" on="1"/>
      </contour>
    </TTGlyph>
    <TTGlyph name="e" xMin="91" yMin="-18" xMax="862" yMax="1298">
      <contour>
        <pt x="476" y="-18" on="1"/>
        <pt x="383" y="-18" on="0"/>
        <pt x="246" y="46" on="0"/>
        <pt x="165" y="149" on="0"/>
        <pt x="115" y="310" on="0"/>
        <pt x="96" y="471" on="0"/>
        <pt x="94" y="578" on="1"/>
        <pt x="91" y="662" on="0"/>
        <pt x="94" y="746" on="1"/>
        <pt x="97" y="846" on="0"/>
        <pt x="118" y="1001" on="0"/>
        <pt x="170" y="1147" on="0"/>
        <pt x="253" y="1241" on="0"/>
        <pt x="388" y="1298" on="0"/>
        <pt x="478" y="1298" on="1"/>
        <pt x="560" y="1298" on="0"/>
        <pt x="685" y="1255" on="0"/>
        <pt x="768" y="1168" on="0"/>
        <pt x="823" y="1062" on="0"/>
        <pt x="851" y="911" on="0"/>
        <pt x="862" y="765" on="0"/>
        <pt x="862" y="670" on="1"/>
        <pt x="862" y="640" on="1"/>
        <pt x="350" y="640" on="1"/>
        <pt x="350" y="576" on="1"/>
        <pt x="350" y="563" on="0"/>
        <pt x="350" y="535" on="1"/>
        <pt x="348" y="498" on="0"/>
        <pt x="351" y="419" on="0"/>
        <pt x="355" y="343" on="0"/>
        <pt x="373" y="274" on="0"/>
        <pt x="399" y="222" on="0"/>
        <pt x="446" y="192" on="0"/>
        <pt x="478" y="192" on="1"/>
        <pt x="518" y="192" on="0"/>
        <pt x="570" y="223" on="0"/>
        <pt x="595" y="285" on="0"/>
        <pt x="605" y="347" on="0"/>
        <pt x="606" y="394" on="1"/>
        <pt x="606" y="448" on="1"/>
        <pt x="860" y="448" on="1"/>
        <pt x="860" y="397" on="1"/>
        <pt x="851" y="192" on="0"/>
        <pt x="667" y="-18" on="0"/>
      </contour>
      <contour>
        <pt x="350" y="768" on="1"/>
        <pt x="604" y="768" on="1"/>
        <pt x="604" y="845" on="1"/>
        <pt x="603" y="896" on="0"/>
        <pt x="593" y="972" on="0"/>
        <pt x="568" y="1048" on="0"/>
        <pt x="516" y="1088" on="0"/>
        <pt x="478" y="1088" on="1"/>
        <pt x="439" y="1088" on="0"/>
        <pt x="386" y="1046" on="0"/>
        <pt x="361" y="967" on="0"/>
        <pt x="351" y="891" on="0"/>
        <pt x="350" y="838" on="1"/>
      </contour>
    </TTGlyph>
    <TTGlyph name="eacute" xMin="91" yMin="-18" xMax="862" yMax="1784">
      <component glyphName="e" x="0" y="0" flags="0x1004"/>
      <component glyphName="acute" x="285" y="-8" flags="0x1004"/>
    </TTGlyph>
    <TTGlyph name="ecaron" xMin="91" yMin="-18" xMax="862" yMax="1784">
      <component glyphName="e" x="0" y="0" flags="0x1004"/>
      <component glyphName="caron" x="93" y="-8" flags="0x1004"/>
    </TTGlyph>
    <TTGlyph name="ecircumflex" xMin="91" yMin="-18" xMax="862" yMax="1784">
      <component glyphName="e" x="0" y="0" flags="0x1004"/>
      <component glyphName="circumflex" x="93" y="-8" flags="0x1004"/>
    </TTGlyph>
    <TTGlyph name="edieresis" xMin="91" yMin="-18" xMax="862" yMax="1656">
      <component glyphName="e" x="0" y="0" flags="0x1004"/>
      <component glyphName="dieresis" x="29" y="-136" flags="0x1004"/>
    </TTGlyph>
    <TTGlyph name="edotaccent" xMin="91" yMin="-18" xMax="862" yMax="1676">
      <component glyphName="dotaccent" x="285" y="-26" flags="0x1004"/>
      <component glyphName="e" x="0" y="0" flags="0x1204"/>
    </TTGlyph>
    <TTGlyph name="egrave" xMin="91" yMin="-18" xMax="862" yMax="1784">
      <component glyphName="e" x="0" y="0" flags="0x1004"/>
      <component glyphName="grave" x="29" y="-8" flags="0x1004"/>
    </TTGlyph>
    <TTGlyph name="eight" xMin="64" yMin="-18" xMax="960" yMax="1810">
      <contour>
        <pt x="513" y="1063" on="1"/>
        <pt x="563" y="1063" on="0"/>
        <pt x="630" y="1109" on="0"/>
        <pt x="662" y="1196" on="0"/>
        <pt x="673" y="1284" on="0"/>
        <pt x="673" y="1344" on="1"/>
        <pt x="673" y="1600" on="0"/>
        <pt x="513" y="1600" on="1"/>
        <pt x="351" y="1600" on="0"/>
        <pt x="351" y="1344" on="1"/>
        <pt x="351" y="1284" on="0"/>
        <pt x="363" y="1195" on="0"/>
        <pt x="395" y="1109" on="0"/>
        <pt x="462" y="1063" on="0"/>
      </contour>
      <contour>
        <pt x="463" y="192" on="0"/>
        <pt x="563" y="192" on="0"/>
        <pt x="635" y="228" on="0"/>
        <pt x="675" y="282" on="0"/>
        <pt x="698" y="371" on="0"/>
        <pt x="704" y="453" on="0"/>
        <pt x="704" y="511" on="1"/>
        <pt x="704" y="575" on="0"/>
        <pt x="688" y="676" on="0"/>
        <pt x="648" y="768" on="0"/>
        <pt x="570" y="818" on="0"/>
        <pt x="456" y="818" on="0"/>
        <pt x="377" y="768" on="0"/>
        <pt x="336" y="677" on="0"/>
        <pt x="320" y="576" on="0"/>
        <pt x="320" y="511" on="1"/>
        <pt x="320" y="453" on="0"/>
        <pt x="327" y="370" on="0"/>
        <pt x="350" y="281" on="0"/>
        <pt x="391" y="227" on="0"/>
      </contour>
      <contour>
        <pt x="513" y="-18" on="1"/>
        <pt x="277" y="-18" on="0"/>
        <pt x="64" y="255" on="0"/>
        <pt x="64" y="511" on="1"/>
        <pt x="64" y="678" on="0"/>
        <pt x="156" y="881" on="0"/>
        <pt x="258" y="946" on="1"/>
        <pt x="172" y="1011" on="0"/>
        <pt x="90" y="1201" on="0"/>
        <pt x="90" y="1344" on="1"/>
        <pt x="90" y="1566" on="0"/>
        <pt x="302" y="1810" on="0"/>
        <pt x="513" y="1810" on="1"/>
        <pt x="723" y="1810" on="0"/>
        <pt x="934" y="1565" on="0"/>
        <pt x="934" y="1344" on="1"/>
        <pt x="934" y="1200" on="0"/>
        <pt x="853" y="1011" on="0"/>
        <pt x="767" y="946" on="1"/>
        <pt x="868" y="880" on="0"/>
        <pt x="960" y="676" on="0"/>
        <pt x="960" y="511" on="1"/>
        <pt x="960" y="255" on="0"/>
        <pt x="748" y="-18" on="0"/>
      </contour>
    </TTGlyph>
    <TTGlyph name="emacron" xMin="91" yMin="-18" xMax="862" yMax="1552">
      <component glyphName="e" x="0" y="0" flags="0x1004"/>
      <component glyphName="macron" x="137" y="-7" flags="0x1004"/>
    </TTGlyph>
    <TTGlyph name="emdash" xMin="0" yMin="448" xMax="384" yMax="640">
      <contour>
        <pt x="0" y="448" on="1"/>
        <pt x="0" y="640" on="1"/>
        <pt x="384" y="640" on="1"/>
        <pt x="384" y="448" on="1"/>
      </contour>
    </TTGlyph>
    <TTGlyph name="endash" xMin="0" yMin="448" xMax="384" yMax="640">
      <contour>
        <pt x="0" y="448" on="1"/>
        <pt x="0" y="640" on="1"/>
        <pt x="384" y="640" on="1"/>
        <pt x="384" y="448" on="1"/>
      </contour>
    </TTGlyph>
    <TTGlyph name="eogonek" xMin="91" yMin="-523" xMax="862" yMax="1298">
      <component glyphName="e" x="0" y="0" flags="0x1004"/>
      <component glyphName="ogonek" x="203" y="-10" flags="0x1004"/>
    </TTGlyph>
    <TTGlyph name="equal" xMin="64" yMin="255" xMax="640" yMax="768">
      <contour>
        <pt x="64" y="576" on="1"/>
        <pt x="64" y="768" on="1"/>
        <pt x="640" y="768" on="1"/>
        <pt x="640" y="576" on="1"/>
      </contour>
      <contour>
        <pt x="64" y="255" on="1"/>
        <pt x="64" y="447" on="1"/>
        <pt x="640" y="447" on="1"/>
        <pt x="640" y="255" on="1"/>
      </contour>
    </TTGlyph>
    <TTGlyph name="eth" xMin="129" yMin="-18" xMax="1088" yMax="1810">
      <contour>
        <pt x="576" y="192" on="1"/>
        <pt x="631" y="192" on="0"/>
        <pt x="709" y="246" on="0"/>
        <pt x="750" y="342" on="0"/>
        <pt x="768" y="449" on="0"/>
        <pt x="768" y="512" on="1"/>
        <pt x="768" y="978" on="1"/>
        <pt x="693" y="1088" on="0"/>
        <pt x="576" y="1088" on="1"/>
        <pt x="384" y="1088" on="0"/>
        <pt x="384" y="704" on="1"/>
        <pt x="384" y="702" on="0"/>
        <pt x="384" y="698" on="1"/>
        <pt x="384" y="625" on="0"/>
        <pt x="386" y="545" on="0"/>
        <pt x="396" y="404" on="0"/>
        <pt x="421" y="323" on="0"/>
        <pt x="461" y="234" on="0"/>
        <pt x="530" y="192" on="0"/>
      </contour>
      <contour>
        <pt x="576" y="-18" on="1"/>
        <pt x="470" y="-18" on="0"/>
        <pt x="310" y="50" on="0"/>
        <pt x="212" y="165" on="0"/>
        <pt x="152" y="337" on="0"/>
        <pt x="129" y="523" on="0"/>
        <pt x="129" y="640" on="1"/>
        <pt x="129" y="741" on="0"/>
        <pt x="149" y="919" on="0"/>
        <pt x="203" y="1095" on="0"/>
        <pt x="287" y="1220" on="0"/>
        <pt x="424" y="1298" on="0"/>
        <pt x="512" y="1298" on="1"/>
        <pt x="602" y="1298" on="0"/>
        <pt x="746" y="1216" on="0"/>
        <pt x="768" y="1152" on="1"/>
        <pt x="768" y="1345" on="0"/>
        <pt x="699" y="1446" on="1"/>
        <pt x="256" y="1344" on="1"/>
        <pt x="256" y="1472" on="1"/>
        <pt x="576" y="1546" on="1"/>
        <pt x="504" y="1578" on="0"/>
        <pt x="323" y="1600" on="0"/>
        <pt x="192" y="1600" on="1"/>
        <pt x="192" y="1810" on="1"/>
        <pt x="434" y="1810" on="0"/>
        <pt x="764" y="1722" on="0"/>
        <pt x="860" y="1611" on="1"/>
        <pt x="1088" y="1664" on="1"/>
        <pt x="1088" y="1536" on="1"/>
        <pt x="932" y="1500" on="1"/>
        <pt x="1024" y="1311" on="0"/>
        <pt x="1024" y="960" on="1"/>
        <pt x="1024" y="576" on="1"/>
        <pt x="1024" y="452" on="0"/>
        <pt x="971" y="241" on="0"/>
        <pt x="866" y="76" on="0"/>
        <pt x="690" y="-18" on="0"/>
      </contour>
    </TTGlyph>
    <TTGlyph name="exclam" xMin="64" yMin="0" xMax="320" yMax="1792">
      <contour>
        <pt x="128" y="384" on="1"/>
        <pt x="64" y="1792" on="1"/>
        <pt x="320" y="1792" on="1"/>
        <pt x="274" y="384" on="1"/>
      </contour>
      <contour>
        <pt x="64" y="0" on="1"/>
        <pt x="64" y="256" on="1"/>
        <pt x="320" y="256" on="1"/>
        <pt x="320" y="0" on="1"/>
      </contour>
    </TTGlyph>
    <TTGlyph name="exclamdown" xMin="64" yMin="0" xMax="320" yMax="1536">
      <contour>
        <pt x="64" y="1280" on="1"/>
        <pt x="64" y="1536" on="1"/>
        <pt x="320" y="1536" on="1"/>
        <pt x="320" y="1280" on="1"/>
      </contour>
      <contour>
        <pt x="64" y="0" on="1"/>
        <pt x="128" y="1152" on="1"/>
        <pt x="256" y="1152" on="1"/>
        <pt x="256" y="0" on="1"/>
      </contour>
    </TTGlyph>
    <TTGlyph name="f" xMin="56" yMin="0" xMax="632" yMax="1728">
      <contour>
        <pt x="184" y="0" on="1"/>
        <pt x="184" y="1088" on="1"/>
        <pt x="56" y="1088" on="1"/>
        <pt x="56" y="1280" on="1"/>
        <pt x="184" y="1280" on="1"/>
        <pt x="184" y="1329" on="1"/>
        <pt x="184" y="1410" on="0"/>
        <pt x="196" y="1523" on="0"/>
        <pt x="233" y="1628" on="0"/>
        <pt x="296" y="1691" on="0"/>
        <pt x="401" y="1728" on="0"/>
        <pt x="474" y="1728" on="1"/>
        <pt x="536" y="1728" on="0"/>
        <pt x="632" y="1716" on="1"/>
        <pt x="632" y="1526" on="1"/>
        <pt x="622" y="1527" on="0"/>
        <pt x="560" y="1536" on="0"/>
        <pt x="546" y="1536" on="1"/>
        <pt x="482" y="1536" on="0"/>
        <pt x="440" y="1455" on="0"/>
        <pt x="440" y="1376" on="1"/>
        <pt x="440" y="1280" on="1"/>
        <pt x="632" y="1280" on="1"/>
        <pt x="632" y="1088" on="1"/>
        <pt x="440" y="1088" on="1"/>
        <pt x="440" y="0" on="1"/>
      </contour>
    </TTGlyph>
    <TTGlyph name="five" xMin="92" yMin="-18" xMax="988" yMax="1792">
      <contour>
        <pt x="535" y="-18" on="1"/>
        <pt x="296" y="-18" on="0"/>
        <pt x="92" y="251" on="0"/>
        <pt x="92" y="512" on="1"/>
        <pt x="348" y="512" on="1"/>
        <pt x="348" y="472" on="1"/>
        <pt x="348" y="421" on="0"/>
        <pt x="355" y="346" on="0"/>
        <pt x="376" y="267" on="0"/>
        <pt x="413" y="218" on="0"/>
        <pt x="477" y="186" on="0"/>
        <pt x="521" y="186" on="1"/>
        <pt x="556" y="186" on="0"/>
        <pt x="613" y="203" on="0"/>
        <pt x="654" y="228" on="0"/>
        <pt x="686" y="276" on="0"/>
        <pt x="707" y="317" on="0"/>
        <pt x="721" y="389" on="0"/>
        <pt x="728" y="438" on="0"/>
        <pt x="732" y="527" on="0"/>
        <pt x="732" y="576" on="0"/>
        <pt x="732" y="625" on="1"/>
        <pt x="732" y="647" on="0"/>
        <pt x="732" y="658" on="1"/>
        <pt x="732" y="701" on="0"/>
        <pt x="730" y="762" on="0"/>
        <pt x="721" y="833" on="0"/>
        <pt x="705" y="881" on="0"/>
        <pt x="677" y="929" on="0"/>
        <pt x="637" y="957" on="0"/>
        <pt x="578" y="974" on="0"/>
        <pt x="541" y="974" on="1"/>
        <pt x="473" y="974" on="0"/>
        <pt x="373" y="886" on="0"/>
        <pt x="350" y="826" on="1"/>
        <pt x="132" y="826" on="1"/>
        <pt x="132" y="1792" on="1"/>
        <pt x="924" y="1792" on="1"/>
        <pt x="924" y="1536" on="1"/>
        <pt x="364" y="1536" on="1"/>
        <pt x="348" y="1102" on="1"/>
        <pt x="456" y="1166" on="0"/>
        <pt x="604" y="1166" on="1"/>
        <pt x="691" y="1166" on="0"/>
        <pt x="824" y="1113" on="0"/>
        <pt x="910" y="1021" on="0"/>
        <pt x="965" y="885" on="0"/>
        <pt x="988" y="733" on="0"/>
        <pt x="988" y="640" on="1"/>
        <pt x="988" y="525" on="0"/>
        <pt x="964" y="339" on="0"/>
        <pt x="902" y="167" on="0"/>
        <pt x="802" y="51" on="0"/>
        <pt x="641" y="-18" on="0"/>
      </contour>
    </TTGlyph>
    <TTGlyph name="florin" xMin="0" yMin="-256" xMax="640" yMax="1728">
      <contour>
        <pt x="158" y="-256" on="1"/>
        <pt x="96" y="-256" on="0"/>
        <pt x="0" y="-244" on="1"/>
        <pt x="0" y="-54" on="1"/>
        <pt x="60" y="-64" on="0"/>
        <pt x="86" y="-64" on="1"/>
        <pt x="150" y="-64" on="0"/>
        <pt x="192" y="17" on="0"/>
        <pt x="192" y="96" on="1"/>
        <pt x="192" y="1088" on="1"/>
        <pt x="56" y="1088" on="1"/>
        <pt x="56" y="1280" on="1"/>
        <pt x="192" y="1280" on="1"/>
        <pt x="192" y="1344" on="1"/>
        <pt x="192" y="1422" on="0"/>
        <pt x="205" y="1533" on="0"/>
        <pt x="242" y="1633" on="0"/>
        <pt x="306" y="1693" on="0"/>
        <pt x="409" y="1728" on="0"/>
        <pt x="482" y="1728" on="1"/>
        <pt x="544" y="1728" on="0"/>
        <pt x="640" y="1716" on="1"/>
        <pt x="640" y="1526" on="1"/>
        <pt x="630" y="1527" on="0"/>
        <pt x="568" y="1536" on="0"/>
        <pt x="554" y="1536" on="1"/>
        <pt x="490" y="1536" on="0"/>
        <pt x="448" y="1455" on="0"/>
        <pt x="448" y="1376" on="1"/>
        <pt x="448" y="1280" on="1"/>
        <pt x="632" y="1280" on="1"/>
        <pt x="632" y="1088" on="1"/>
        <pt x="448" y="1088" on="1"/>
        <pt x="448" y="128" on="1"/>
        <pt x="448" y="49" on="0"/>
        <pt x="435" y="-62" on="0"/>
        <pt x="399" y="-162" on="0"/>
        <pt x="335" y="-222" on="0"/>
        <pt x="231" y="-256" on="0"/>
      </contour>
    </TTGlyph>
    <TTGlyph name="four" xMin="83" yMin="0" xMax="1049" yMax="1793">
      <contour>
        <pt x="339" y="702" on="1"/>
        <pt x="595" y="702" on="1"/>
        <pt x="595" y="1472" on="1"/>
      </contour>
      <contour>
        <pt x="595" y="0" on="1"/>
        <pt x="595" y="460" on="1"/>
        <pt x="83" y="460" on="1"/>
        <pt x="83" y="745" on="1"/>
        <pt x="531" y="1793" on="1"/>
        <pt x="851" y="1793" on="1"/>
        <pt x="851" y="702" on="1"/>
        <pt x="1049" y="702" on="1"/>
        <pt x="1049" y="460" on="1"/>
        <pt x="851" y="460" on="1"/>
        <pt x="851" y="0" on="1"/>
      </contour>
    </TTGlyph>
    <TTGlyph name="fraction" xMin="18" yMin="383" xMax="520" yMax="1901">
      <contour>
        <pt x="18" y="383" on="1"/>
        <pt x="301" y="1901" on="1"/>
        <pt x="520" y="1901" on="1"/>
        <pt x="238" y="383" on="1"/>
      </contour>
    </TTGlyph>
    <TTGlyph name="g" xMin="10" yMin="-383" xMax="970" yMax="1298">
      <contour>
        <pt x="298" y="560" on="0"/>
        <pt x="618" y="560" on="0"/>
        <pt x="618" y="832" on="1"/>
        <pt x="618" y="887" on="0"/>
        <pt x="604" y="980" on="0"/>
        <pt x="570" y="1069" on="0"/>
        <pt x="504" y="1120" on="0"/>
        <pt x="458" y="1120" on="1"/>
        <pt x="411" y="1120" on="0"/>
        <pt x="345" y="1069" on="0"/>
        <pt x="312" y="980" on="0"/>
        <pt x="298" y="887" on="0"/>
        <pt x="298" y="832" on="1"/>
      </contour>
      <contour>
        <pt x="522" y="-194" on="1"/>
        <pt x="549" y="-194" on="0"/>
        <pt x="592" y="-192" on="0"/>
        <pt x="648" y="-186" on="0"/>
        <pt x="689" y="-173" on="0"/>
        <pt x="726" y="-153" on="0"/>
        <pt x="746" y="-120" on="0"/>
        <pt x="746" y="-99" on="1"/>
        <pt x="746" y="8" on="0"/>
        <pt x="541" y="32" on="1"/>
        <pt x="330" y="57" on="1"/>
        <pt x="291" y="29" on="0"/>
        <pt x="236" y="-77" on="0"/>
        <pt x="236" y="-135" on="1"/>
        <pt x="236" y="-151" on="0"/>
        <pt x="258" y="-174" on="0"/>
        <pt x="301" y="-186" on="0"/>
        <pt x="346" y="-194" on="0"/>
        <pt x="408" y="-196" on="0"/>
        <pt x="452" y="-196" on="0"/>
        <pt x="511" y="-194" on="0"/>
      </contour>
      <contour>
        <pt x="522" y="-383" on="1"/>
        <pt x="474" y="-383" on="0"/>
        <pt x="414" y="-382" on="0"/>
        <pt x="310" y="-378" on="0"/>
        <pt x="240" y="-367" on="0"/>
        <pt x="150" y="-350" on="0"/>
        <pt x="91" y="-322" on="0"/>
        <pt x="37" y="-284" on="0"/>
        <pt x="10" y="-229" on="0"/>
        <pt x="10" y="-195" on="1"/>
        <pt x="10" y="-95" on="0"/>
        <pt x="117" y="47" on="0"/>
        <pt x="202" y="89" on="1"/>
        <pt x="150" y="103" on="0"/>
        <pt x="74" y="160" on="0"/>
        <pt x="74" y="201" on="1"/>
        <pt x="74" y="218" on="0"/>
        <pt x="82" y="256" on="0"/>
        <pt x="92" y="287" on="0"/>
        <pt x="114" y="327" on="0"/>
        <pt x="127" y="350" on="0"/>
        <pt x="157" y="391" on="0"/>
        <pt x="168" y="406" on="0"/>
        <pt x="200" y="445" on="0"/>
        <pt x="202" y="448" on="1"/>
        <pt x="74" y="600" on="0"/>
        <pt x="74" y="832" on="1"/>
        <pt x="74" y="965" on="0"/>
        <pt x="158" y="1173" on="0"/>
        <pt x="335" y="1298" on="0"/>
        <pt x="458" y="1298" on="1"/>
        <pt x="529" y="1298" on="0"/>
        <pt x="635" y="1258" on="0"/>
        <pt x="702" y="1197" on="0"/>
        <pt x="734" y="1147" on="1"/>
        <pt x="810" y="1288" on="0"/>
        <pt x="950" y="1297" on="1"/>
        <pt x="953" y="1297" on="0"/>
        <pt x="959" y="1297" on="0"/>
        <pt x="968" y="1297" on="0"/>
        <pt x="970" y="1297" on="1"/>
        <pt x="970" y="1088" on="1"/>
        <pt x="965" y="1088" on="0"/>
        <pt x="954" y="1088" on="1"/>
        <pt x="911" y="1088" on="0"/>
        <pt x="867" y="1086" on="0"/>
        <pt x="813" y="1071" on="0"/>
        <pt x="797" y="1055" on="1"/>
        <pt x="815" y="1016" on="0"/>
        <pt x="842" y="887" on="0"/>
        <pt x="842" y="832" on="1"/>
        <pt x="842" y="698" on="0"/>
        <pt x="761" y="492" on="0"/>
        <pt x="584" y="368" on="0"/>
        <pt x="458" y="368" on="1"/>
        <pt x="329" y="383" on="1"/>
        <pt x="327" y="378" on="0"/>
        <pt x="311" y="353" on="0"/>
        <pt x="302" y="337" on="0"/>
        <pt x="294" y="312" on="0"/>
        <pt x="294" y="301" on="1"/>
        <pt x="294" y="275" on="0"/>
        <pt x="344" y="239" on="0"/>
        <pt x="432" y="222" on="0"/>
        <pt x="513" y="214" on="0"/>
        <pt x="613" y="209" on="0"/>
        <pt x="632" y="206" on="1"/>
        <pt x="689" y="198" on="0"/>
        <pt x="778" y="177" on="0"/>
        <pt x="871" y="137" on="0"/>
        <pt x="931" y="81" on="0"/>
        <pt x="970" y="-7" on="0"/>
        <pt x="970" y="-64" on="1"/>
        <pt x="970" y="-134" on="0"/>
        <pt x="921" y="-244" on="0"/>
        <pt x="839" y="-316" on="0"/>
        <pt x="723" y="-363" on="0"/>
        <pt x="595" y="-383" on="0"/>
      </contour>
    </TTGlyph>
    <TTGlyph name="gbreve" xMin="10" yMin="-383" xMax="970" yMax="1784">
      <component glyphName="g" x="0" y="0" flags="0x1004"/>
      <component glyphName="breve" x="114" y="-8" flags="0x1004"/>
    </TTGlyph>
    <TTGlyph name="gcircumflex" xMin="10" yMin="-383" xMax="970" yMax="1784">
      <component glyphName="g" x="0" y="0" flags="0x1004"/>
      <component glyphName="circumflex" x="114" y="-8" flags="0x1004"/>
    </TTGlyph>
    <TTGlyph name="gcommaaccent" xMin="33" yMin="-383" xMax="993" yMax="1889">
      <contour>
        <pt x="321" y="560" on="0"/>
        <pt x="641" y="560" on="0"/>
        <pt x="641" y="832" on="1"/>
        <pt x="641" y="887" on="0"/>
        <pt x="627" y="980" on="0"/>
        <pt x="593" y="1069" on="0"/>
        <pt x="527" y="1120" on="0"/>
        <pt x="481" y="1120" on="1"/>
        <pt x="434" y="1120" on="0"/>
        <pt x="368" y="1069" on="0"/>
        <pt x="335" y="980" on="0"/>
        <pt x="321" y="887" on="0"/>
        <pt x="321" y="832" on="1"/>
      </contour>
      <contour>
        <pt x="371" y="1377" on="1"/>
        <pt x="371" y="1407" on="0"/>
        <pt x="369" y="1508" on="0"/>
        <pt x="368" y="1571" on="0"/>
        <pt x="370" y="1661" on="0"/>
        <pt x="379" y="1720" on="0"/>
        <pt x="395" y="1789" on="0"/>
        <pt x="424" y="1832" on="0"/>
        <pt x="465" y="1871" on="0"/>
        <pt x="525" y="1889" on="0"/>
        <pt x="563" y="1889" on="1"/>
        <pt x="627" y="1761" on="1"/>
        <pt x="558" y="1761" on="0"/>
        <pt x="499" y="1701" on="0"/>
        <pt x="499" y="1633" on="1"/>
        <pt x="627" y="1633" on="1"/>
        <pt x="627" y="1377" on="1"/>
      </contour>
      <contour>
        <pt x="545" y="-194" on="1"/>
        <pt x="572" y="-194" on="0"/>
        <pt x="615" y="-192" on="0"/>
        <pt x="671" y="-186" on="0"/>
        <pt x="712" y="-173" on="0"/>
        <pt x="749" y="-153" on="0"/>
        <pt x="769" y="-120" on="0"/>
        <pt x="769" y="-99" on="1"/>
        <pt x="769" y="-81" on="0"/>
        <pt x="765" y="-66" on="1"/>
        <pt x="751" y="10" on="0"/>
        <pt x="564" y="32" on="1"/>
        <pt x="353" y="57" on="1"/>
        <pt x="314" y="29" on="0"/>
        <pt x="259" y="-77" on="0"/>
        <pt x="259" y="-135" on="1"/>
        <pt x="259" y="-151" on="0"/>
        <pt x="281" y="-174" on="0"/>
        <pt x="324" y="-186" on="0"/>
        <pt x="369" y="-194" on="0"/>
        <pt x="431" y="-196" on="0"/>
        <pt x="475" y="-196" on="0"/>
        <pt x="534" y="-194" on="0"/>
      </contour>
      <contour>
        <pt x="545" y="-383" on="1"/>
        <pt x="497" y="-383" on="0"/>
        <pt x="437" y="-382" on="0"/>
        <pt x="333" y="-378" on="0"/>
        <pt x="263" y="-367" on="0"/>
        <pt x="173" y="-350" on="0"/>
        <pt x="114" y="-322" on="0"/>
        <pt x="60" y="-284" on="0"/>
        <pt x="33" y="-229" on="0"/>
        <pt x="33" y="-195" on="1"/>
        <pt x="33" y="-95" on="0"/>
        <pt x="140" y="47" on="0"/>
        <pt x="225" y="89" on="1"/>
        <pt x="173" y="103" on="0"/>
        <pt x="97" y="160" on="0"/>
        <pt x="97" y="201" on="1"/>
        <pt x="97" y="218" on="0"/>
        <pt x="105" y="256" on="0"/>
        <pt x="115" y="287" on="0"/>
        <pt x="137" y="327" on="0"/>
        <pt x="150" y="350" on="0"/>
        <pt x="180" y="391" on="0"/>
        <pt x="191" y="406" on="0"/>
        <pt x="223" y="445" on="0"/>
        <pt x="225" y="448" on="1"/>
        <pt x="97" y="600" on="0"/>
        <pt x="97" y="832" on="1"/>
        <pt x="97" y="965" on="0"/>
        <pt x="181" y="1173" on="0"/>
        <pt x="358" y="1298" on="0"/>
        <pt x="481" y="1298" on="1"/>
        <pt x="552" y="1298" on="0"/>
        <pt x="658" y="1258" on="0"/>
        <pt x="725" y="1197" on="0"/>
        <pt x="757" y="1147" on="1"/>
        <pt x="838" y="1298" on="0"/>
        <pt x="993" y="1298" on="1"/>
        <pt x="993" y="1088" on="1"/>
        <pt x="897" y="1088" on="0"/>
        <pt x="833" y="1024" on="1"/>
        <pt x="865" y="930" on="0"/>
        <pt x="865" y="832" on="1"/>
        <pt x="865" y="698" on="0"/>
        <pt x="784" y="492" on="0"/>
        <pt x="607" y="368" on="0"/>
        <pt x="481" y="368" on="1"/>
        <pt x="444" y="368" on="0"/>
        <pt x="400" y="375" on="1"/>
        <pt x="352" y="375" on="1"/>
        <pt x="349" y="369" on="0"/>
        <pt x="328" y="340" on="0"/>
        <pt x="317" y="315" on="0"/>
        <pt x="317" y="301" on="1"/>
        <pt x="317" y="267" on="0"/>
        <pt x="392" y="226" on="0"/>
        <pt x="511" y="207" on="0"/>
        <pt x="655" y="192" on="0"/>
        <pt x="799" y="161" on="0"/>
        <pt x="918" y="111" on="0"/>
        <pt x="993" y="9" on="0"/>
        <pt x="993" y="-64" on="1"/>
        <pt x="993" y="-134" on="0"/>
        <pt x="944" y="-244" on="0"/>
        <pt x="862" y="-316" on="0"/>
        <pt x="746" y="-363" on="0"/>
        <pt x="618" y="-383" on="0"/>
      </contour>
    </TTGlyph>
    <TTGlyph name="gdotaccent" xMin="10" yMin="-383" xMax="970" yMax="1656">
      <contour>
        <pt x="370" y="1400" on="1"/>
        <pt x="370" y="1656" on="1"/>
        <pt x="626" y="1656" on="1"/>
        <pt x="626" y="1400" on="1"/>
      </contour>
      <contour>
        <pt x="298" y="560" on="0"/>
        <pt x="618" y="560" on="0"/>
        <pt x="618" y="832" on="1"/>
        <pt x="618" y="887" on="0"/>
        <pt x="604" y="980" on="0"/>
        <pt x="570" y="1069" on="0"/>
        <pt x="504" y="1120" on="0"/>
        <pt x="458" y="1120" on="1"/>
        <pt x="411" y="1120" on="0"/>
        <pt x="345" y="1069" on="0"/>
        <pt x="312" y="980" on="0"/>
        <pt x="298" y="887" on="0"/>
        <pt x="298" y="832" on="1"/>
      </contour>
      <contour>
        <pt x="522" y="-194" on="1"/>
        <pt x="549" y="-194" on="0"/>
        <pt x="592" y="-192" on="0"/>
        <pt x="648" y="-186" on="0"/>
        <pt x="689" y="-173" on="0"/>
        <pt x="726" y="-153" on="0"/>
        <pt x="746" y="-120" on="0"/>
        <pt x="746" y="-99" on="1"/>
        <pt x="746" y="8" on="0"/>
        <pt x="541" y="32" on="1"/>
        <pt x="330" y="57" on="1"/>
        <pt x="291" y="29" on="0"/>
        <pt x="236" y="-77" on="0"/>
        <pt x="236" y="-135" on="1"/>
        <pt x="236" y="-151" on="0"/>
        <pt x="258" y="-174" on="0"/>
        <pt x="301" y="-186" on="0"/>
        <pt x="346" y="-194" on="0"/>
        <pt x="408" y="-196" on="0"/>
        <pt x="452" y="-196" on="0"/>
        <pt x="511" y="-194" on="0"/>
      </contour>
      <contour>
        <pt x="522" y="-383" on="1"/>
        <pt x="474" y="-383" on="0"/>
        <pt x="414" y="-382" on="0"/>
        <pt x="310" y="-378" on="0"/>
        <pt x="240" y="-367" on="0"/>
        <pt x="150" y="-350" on="0"/>
        <pt x="91" y="-322" on="0"/>
        <pt x="37" y="-284" on="0"/>
        <pt x="10" y="-229" on="0"/>
        <pt x="10" y="-195" on="1"/>
        <pt x="10" y="-95" on="0"/>
        <pt x="117" y="47" on="0"/>
        <pt x="202" y="89" on="1"/>
        <pt x="150" y="103" on="0"/>
        <pt x="74" y="160" on="0"/>
        <pt x="74" y="201" on="1"/>
        <pt x="74" y="218" on="0"/>
        <pt x="82" y="256" on="0"/>
        <pt x="92" y="287" on="0"/>
        <pt x="114" y="327" on="0"/>
        <pt x="127" y="350" on="0"/>
        <pt x="157" y="391" on="0"/>
        <pt x="168" y="406" on="0"/>
        <pt x="200" y="445" on="0"/>
        <pt x="202" y="448" on="1"/>
        <pt x="74" y="600" on="0"/>
        <pt x="74" y="832" on="1"/>
        <pt x="74" y="965" on="0"/>
        <pt x="158" y="1173" on="0"/>
        <pt x="335" y="1298" on="0"/>
        <pt x="458" y="1298" on="1"/>
        <pt x="529" y="1298" on="0"/>
        <pt x="635" y="1258" on="0"/>
        <pt x="702" y="1197" on="0"/>
        <pt x="734" y="1147" on="1"/>
        <pt x="810" y="1288" on="0"/>
        <pt x="950" y="1297" on="1"/>
        <pt x="953" y="1297" on="0"/>
        <pt x="959" y="1297" on="0"/>
        <pt x="968" y="1297" on="0"/>
        <pt x="970" y="1297" on="1"/>
        <pt x="970" y="1088" on="1"/>
        <pt x="965" y="1088" on="0"/>
        <pt x="954" y="1088" on="1"/>
        <pt x="911" y="1088" on="0"/>
        <pt x="867" y="1086" on="0"/>
        <pt x="813" y="1071" on="0"/>
        <pt x="797" y="1055" on="1"/>
        <pt x="815" y="1016" on="0"/>
        <pt x="842" y="887" on="0"/>
        <pt x="842" y="832" on="1"/>
        <pt x="842" y="698" on="0"/>
        <pt x="761" y="492" on="0"/>
        <pt x="584" y="368" on="0"/>
        <pt x="458" y="368" on="1"/>
        <pt x="329" y="383" on="1"/>
        <pt x="327" y="378" on="0"/>
        <pt x="311" y="353" on="0"/>
        <pt x="302" y="337" on="0"/>
        <pt x="294" y="312" on="0"/>
        <pt x="294" y="301" on="1"/>
        <pt x="294" y="275" on="0"/>
        <pt x="344" y="239" on="0"/>
        <pt x="432" y="222" on="0"/>
        <pt x="513" y="214" on="0"/>
        <pt x="613" y="209" on="0"/>
        <pt x="632" y="206" on="1"/>
        <pt x="689" y="198" on="0"/>
        <pt x="778" y="177" on="0"/>
        <pt x="871" y="137" on="0"/>
        <pt x="931" y="81" on="0"/>
        <pt x="970" y="-7" on="0"/>
        <pt x="970" y="-64" on="1"/>
        <pt x="970" y="-134" on="0"/>
        <pt x="921" y="-244" on="0"/>
        <pt x="839" y="-316" on="0"/>
        <pt x="723" y="-363" on="0"/>
        <pt x="595" y="-383" on="0"/>
      </contour>
    </TTGlyph>
    <TTGlyph name="germandbls" xMin="128" yMin="-18" xMax="1024" yMax="1810">
      <contour>
        <pt x="512" y="-18" on="1"/>
        <pt x="512" y="192" on="1"/>
        <pt x="591" y="192" on="0"/>
        <pt x="692" y="229" on="0"/>
        <pt x="748" y="314" on="0"/>
        <pt x="768" y="426" on="0"/>
        <pt x="768" y="512" on="1"/>
        <pt x="768" y="653" on="0"/>
        <pt x="639" y="812" on="0"/>
        <pt x="512" y="812" on="1"/>
        <pt x="512" y="1024" on="1"/>
        <pt x="568" y="1024" on="0"/>
        <pt x="648" y="1078" on="0"/>
        <pt x="692" y="1173" on="0"/>
        <pt x="711" y="1280" on="0"/>
        <pt x="711" y="1344" on="1"/>
        <pt x="711" y="1404" on="0"/>
        <pt x="698" y="1488" on="0"/>
        <pt x="664" y="1562" on="0"/>
        <pt x="596" y="1600" on="0"/>
        <pt x="544" y="1600" on="1"/>
        <pt x="495" y="1600" on="0"/>
        <pt x="430" y="1565" on="0"/>
        <pt x="397" y="1495" on="0"/>
        <pt x="384" y="1415" on="0"/>
        <pt x="384" y="1359" on="1"/>
        <pt x="384" y="0" on="1"/>
        <pt x="128" y="0" on="1"/>
        <pt x="128" y="1354" on="1"/>
        <pt x="128" y="1561" on="0"/>
        <pt x="325" y="1810" on="0"/>
        <pt x="512" y="1810" on="1"/>
        <pt x="735" y="1810" on="0"/>
        <pt x="960" y="1570" on="0"/>
        <pt x="960" y="1344" on="1"/>
        <pt x="960" y="1191" on="0"/>
        <pt x="852" y="1000" on="0"/>
        <pt x="741" y="939" on="1"/>
        <pt x="873" y="903" on="0"/>
        <pt x="1024" y="679" on="0"/>
        <pt x="1024" y="512" on="1"/>
        <pt x="1024" y="247" on="0"/>
        <pt x="774" y="-18" on="0"/>
      </contour>
    </TTGlyph>
    <TTGlyph name="glyph00414" xMin="46" yMin="0" xMax="1222" yMax="1728">
      <contour>
        <pt x="174" y="0" on="1"/>
        <pt x="174" y="1088" on="1"/>
        <pt x="46" y="1088" on="1"/>
        <pt x="46" y="1280" on="1"/>
        <pt x="174" y="1280" on="1"/>
        <pt x="174" y="1329" on="1"/>
        <pt x="174" y="1410" on="0"/>
        <pt x="186" y="1523" on="0"/>
        <pt x="223" y="1628" on="0"/>
        <pt x="286" y="1691" on="0"/>
        <pt x="391" y="1728" on="0"/>
        <pt x="464" y="1728" on="1"/>
        <pt x="526" y="1728" on="0"/>
        <pt x="622" y="1716" on="1"/>
        <pt x="622" y="1526" on="1"/>
        <pt x="612" y="1527" on="0"/>
        <pt x="550" y="1536" on="0"/>
        <pt x="536" y="1536" on="1"/>
        <pt x="472" y="1536" on="0"/>
        <pt x="430" y="1455" on="0"/>
        <pt x="430" y="1376" on="1"/>
        <pt x="430" y="1280" on="1"/>
        <pt x="774" y="1280" on="1"/>
        <pt x="774" y="1329" on="1"/>
        <pt x="774" y="1410" on="0"/>
        <pt x="786" y="1523" on="0"/>
        <pt x="823" y="1628" on="0"/>
        <pt x="886" y="1691" on="0"/>
        <pt x="991" y="1728" on="0"/>
        <pt x="1064" y="1728" on="1"/>
        <pt x="1126" y="1728" on="0"/>
        <pt x="1222" y="1716" on="1"/>
        <pt x="1222" y="1526" on="1"/>
        <pt x="1212" y="1527" on="0"/>
        <pt x="1150" y="1536" on="0"/>
        <pt x="1136" y="1536" on="1"/>
        <pt x="1072" y="1536" on="0"/>
        <pt x="1030" y="1455" on="0"/>
        <pt x="1030" y="1376" on="1"/>
        <pt x="1030" y="1280" on="1"/>
        <pt x="1222" y="1280" on="1"/>
        <pt x="1222" y="1088" on="1"/>
        <pt x="1030" y="1088" on="1"/>
        <pt x="1030" y="0" on="1"/>
        <pt x="774" y="0" on="1"/>
        <pt x="774" y="1088" on="1"/>
        <pt x="430" y="1088" on="1"/>
        <pt x="430" y="0" on="1"/>
      </contour>
    </TTGlyph>
    <TTGlyph name="glyph00415" xMin="-70" yMin="277" xMax="1440" yMax="1710">
      <contour>
        <pt x="221" y="277" on="1"/>
        <pt x="389" y="819" on="1"/>
        <pt x="-70" y="1157" on="1"/>
        <pt x="502" y="1168" on="1"/>
        <pt x="680" y="1710" on="1"/>
        <pt x="868" y="1168" on="1"/>
        <pt x="1440" y="1168" on="1"/>
        <pt x="979" y="819" on="1"/>
        <pt x="1149" y="277" on="1"/>
        <pt x="680" y="604" on="1"/>
      </contour>
    </TTGlyph>
    <TTGlyph name="glyph00416" xMin="54" yMin="-18" xMax="1288" yMax="1728">
      <component glyphName="t" x="658" y="0" flags="0x1004"/>
      <component glyphName="t" x="0" y="0" flags="0x1004"/>
    </TTGlyph>
    <TTGlyph name="glyph00417" xMin="46" yMin="0" xMax="1590" yMax="1728">
      <contour>
        <pt x="1334" y="1472" on="1"/>
        <pt x="1334" y="1728" on="1"/>
        <pt x="1590" y="1728" on="1"/>
        <pt x="1590" y="1472" on="1"/>
      </contour>
      <contour>
        <pt x="174" y="0" on="1"/>
        <pt x="174" y="1088" on="1"/>
        <pt x="46" y="1088" on="1"/>
        <pt x="46" y="1280" on="1"/>
        <pt x="174" y="1280" on="1"/>
        <pt x="174" y="1329" on="1"/>
        <pt x="174" y="1410" on="0"/>
        <pt x="186" y="1523" on="0"/>
        <pt x="223" y="1628" on="0"/>
        <pt x="286" y="1691" on="0"/>
        <pt x="391" y="1728" on="0"/>
        <pt x="464" y="1728" on="1"/>
        <pt x="526" y="1728" on="0"/>
        <pt x="622" y="1716" on="1"/>
        <pt x="622" y="1526" on="1"/>
        <pt x="612" y="1527" on="0"/>
        <pt x="550" y="1536" on="0"/>
        <pt x="536" y="1536" on="1"/>
        <pt x="472" y="1536" on="0"/>
        <pt x="430" y="1455" on="0"/>
        <pt x="430" y="1376" on="1"/>
        <pt x="430" y="1280" on="1"/>
        <pt x="736" y="1280" on="1"/>
        <pt x="736" y="1329" on="1"/>
        <pt x="736" y="1410" on="0"/>
        <pt x="748" y="1523" on="0"/>
        <pt x="785" y="1628" on="0"/>
        <pt x="848" y="1691" on="0"/>
        <pt x="953" y="1728" on="0"/>
        <pt x="1026" y="1728" on="1"/>
        <pt x="1088" y="1728" on="0"/>
        <pt x="1184" y="1716" on="1"/>
        <pt x="1184" y="1526" on="1"/>
        <pt x="1174" y="1527" on="0"/>
        <pt x="1112" y="1536" on="0"/>
        <pt x="1098" y="1536" on="1"/>
        <pt x="1034" y="1536" on="0"/>
        <pt x="992" y="1455" on="0"/>
        <pt x="992" y="1376" on="1"/>
        <pt x="992" y="1280" on="1"/>
        <pt x="1590" y="1280" on="1"/>
        <pt x="1590" y="0" on="1"/>
        <pt x="1334" y="0" on="1"/>
        <pt x="1334" y="1088" on="1"/>
        <pt x="992" y="1088" on="1"/>
        <pt x="992" y="0" on="1"/>
        <pt x="736" y="0" on="1"/>
        <pt x="736" y="1088" on="1"/>
        <pt x="430" y="1088" on="1"/>
        <pt x="430" y="0" on="1"/>
      </contour>
    </TTGlyph>
    <TTGlyph name="glyph00418" xMin="46" yMin="0" xMax="1558" yMax="1728">
      <contour>
        <pt x="174" y="0" on="1"/>
        <pt x="174" y="1088" on="1"/>
        <pt x="46" y="1088" on="1"/>
        <pt x="46" y="1280" on="1"/>
        <pt x="174" y="1280" on="1"/>
        <pt x="174" y="1329" on="1"/>
        <pt x="174" y="1410" on="0"/>
        <pt x="186" y="1523" on="0"/>
        <pt x="223" y="1628" on="0"/>
        <pt x="286" y="1691" on="0"/>
        <pt x="391" y="1728" on="0"/>
        <pt x="464" y="1728" on="1"/>
        <pt x="526" y="1728" on="0"/>
        <pt x="622" y="1716" on="1"/>
        <pt x="622" y="1526" on="1"/>
        <pt x="612" y="1527" on="0"/>
        <pt x="550" y="1536" on="0"/>
        <pt x="536" y="1536" on="1"/>
        <pt x="472" y="1536" on="0"/>
        <pt x="430" y="1455" on="0"/>
        <pt x="430" y="1376" on="1"/>
        <pt x="430" y="1280" on="1"/>
        <pt x="712" y="1280" on="1"/>
        <pt x="712" y="1329" on="1"/>
        <pt x="712" y="1410" on="0"/>
        <pt x="724" y="1523" on="0"/>
        <pt x="761" y="1628" on="0"/>
        <pt x="824" y="1691" on="0"/>
        <pt x="929" y="1728" on="0"/>
        <pt x="1002" y="1728" on="1"/>
        <pt x="1107" y="1728" on="0"/>
        <pt x="1293" y="1716" on="0"/>
        <pt x="1418" y="1700" on="0"/>
        <pt x="1558" y="1681" on="1"/>
        <pt x="1558" y="0" on="1"/>
        <pt x="1302" y="0" on="1"/>
        <pt x="1302" y="1522" on="1"/>
        <pt x="1160" y="1536" on="0"/>
        <pt x="1074" y="1536" on="1"/>
        <pt x="1010" y="1536" on="0"/>
        <pt x="968" y="1455" on="0"/>
        <pt x="968" y="1376" on="1"/>
        <pt x="968" y="1280" on="1"/>
        <pt x="1160" y="1280" on="1"/>
        <pt x="1160" y="1088" on="1"/>
        <pt x="968" y="1088" on="1"/>
        <pt x="968" y="0" on="1"/>
        <pt x="712" y="0" on="1"/>
        <pt x="712" y="1088" on="1"/>
        <pt x="430" y="1088" on="1"/>
        <pt x="430" y="0" on="1"/>
      </contour>
    </TTGlyph>
    <TTGlyph name="grave" xMin="128" yMin="1408" xMax="512" yMax="1792">
      <contour>
        <pt x="384" y="1408" on="1"/>
        <pt x="128" y="1792" on="1"/>
        <pt x="384" y="1792" on="1"/>
        <pt x="512" y="1408" on="1"/>
      </contour>
    </TTGlyph>
    <TTGlyph name="greater" xMin="128" yMin="64" xMax="768" yMax="1216">
      <contour>
        <pt x="128" y="64" on="1"/>
        <pt x="128" y="320" on="1"/>
        <pt x="576" y="641" on="1"/>
        <pt x="128" y="960" on="1"/>
        <pt x="128" y="1216" on="1"/>
        <pt x="768" y="768" on="1"/>
        <pt x="768" y="512" on="1"/>
      </contour>
    </TTGlyph>
    <TTGlyph name="guillemotleft" xMin="64" yMin="64" xMax="960" yMax="1216">
      <contour>
        <pt x="960" y="64" on="1"/>
        <pt x="512" y="576" on="1"/>
        <pt x="512" y="704" on="1"/>
        <pt x="960" y="1216" on="1"/>
        <pt x="960" y="896" on="1"/>
        <pt x="704" y="641" on="1"/>
        <pt x="960" y="384" on="1"/>
      </contour>
      <contour>
        <pt x="512" y="64" on="1"/>
        <pt x="64" y="576" on="1"/>
        <pt x="64" y="704" on="1"/>
        <pt x="512" y="1216" on="1"/>
        <pt x="512" y="896" on="1"/>
        <pt x="256" y="641" on="1"/>
        <pt x="512" y="384" on="1"/>
      </contour>
    </TTGlyph>
    <TTGlyph name="guillemotright" xMin="64" yMin="64" xMax="960" yMax="1216">
      <contour>
        <pt x="512" y="64" on="1"/>
        <pt x="512" y="384" on="1"/>
        <pt x="768" y="641" on="1"/>
        <pt x="512" y="896" on="1"/>
        <pt x="512" y="1216" on="1"/>
        <pt x="960" y="704" on="1"/>
        <pt x="960" y="576" on="1"/>
      </contour>
      <contour>
        <pt x="64" y="64" on="1"/>
        <pt x="64" y="384" on="1"/>
        <pt x="320" y="641" on="1"/>
        <pt x="64" y="896" on="1"/>
        <pt x="64" y="1216" on="1"/>
        <pt x="512" y="704" on="1"/>
        <pt x="512" y="576" on="1"/>
      </contour>
    </TTGlyph>
    <TTGlyph name="guilsinglleft" xMin="64" yMin="64" xMax="512" yMax="1216">
      <contour>
        <pt x="512" y="64" on="1"/>
        <pt x="64" y="576" on="1"/>
        <pt x="64" y="704" on="1"/>
        <pt x="512" y="1216" on="1"/>
        <pt x="512" y="896" on="1"/>
        <pt x="256" y="641" on="1"/>
        <pt x="512" y="384" on="1"/>
      </contour>
    </TTGlyph>
    <TTGlyph name="guilsinglright" xMin="64" yMin="64" xMax="512" yMax="1216">
      <contour>
        <pt x="64" y="64" on="1"/>
        <pt x="64" y="384" on="1"/>
        <pt x="320" y="641" on="1"/>
        <pt x="64" y="896" on="1"/>
        <pt x="64" y="1216" on="1"/>
        <pt x="512" y="704" on="1"/>
        <pt x="512" y="576" on="1"/>
      </contour>
    </TTGlyph>
    <TTGlyph name="h" xMin="117" yMin="0" xMax="885" yMax="1792">
      <contour>
        <pt x="117" y="0" on="1"/>
        <pt x="117" y="1792" on="1"/>
        <pt x="373" y="1792" on="1"/>
        <pt x="373" y="1142" on="1"/>
        <pt x="430" y="1194" on="0"/>
        <pt x="502" y="1249" on="0"/>
        <pt x="629" y="1298" on="0"/>
        <pt x="701" y="1298" on="1"/>
        <pt x="783" y="1298" on="0"/>
        <pt x="885" y="1178" on="0"/>
        <pt x="885" y="1091" on="1"/>
        <pt x="885" y="0" on="1"/>
        <pt x="629" y="0" on="1"/>
        <pt x="629" y="960" on="1"/>
        <pt x="629" y="1026" on="0"/>
        <pt x="596" y="1088" on="0"/>
        <pt x="541" y="1088" on="1"/>
        <pt x="463" y="1088" on="0"/>
        <pt x="373" y="1013" on="1"/>
        <pt x="373" y="0" on="1"/>
      </contour>
    </TTGlyph>
    <TTGlyph name="hbar" xMin="-1" yMin="0" xMax="896" yMax="1792">
      <contour>
        <pt x="128" y="0" on="1"/>
        <pt x="128" y="1450" on="1"/>
        <pt x="-1" y="1450" on="1"/>
        <pt x="-1" y="1602" on="1"/>
        <pt x="128" y="1602" on="1"/>
        <pt x="128" y="1792" on="1"/>
        <pt x="384" y="1792" on="1"/>
        <pt x="384" y="1602" on="1"/>
        <pt x="551" y="1602" on="1"/>
        <pt x="551" y="1450" on="1"/>
        <pt x="384" y="1450" on="1"/>
        <pt x="384" y="1142" on="1"/>
        <pt x="441" y="1194" on="0"/>
        <pt x="513" y="1249" on="0"/>
        <pt x="640" y="1298" on="0"/>
        <pt x="712" y="1298" on="1"/>
        <pt x="794" y="1298" on="0"/>
        <pt x="896" y="1178" on="0"/>
        <pt x="896" y="1091" on="1"/>
        <pt x="896" y="0" on="1"/>
        <pt x="640" y="0" on="1"/>
        <pt x="640" y="960" on="1"/>
        <pt x="640" y="1026" on="0"/>
        <pt x="607" y="1088" on="0"/>
        <pt x="552" y="1088" on="1"/>
        <pt x="474" y="1088" on="0"/>
        <pt x="384" y="1013" on="1"/>
        <pt x="384" y="0" on="1"/>
      </contour>
    </TTGlyph>
    <TTGlyph name="hcircumflex" xMin="117" yMin="0" xMax="885" yMax="2278">
      <component glyphName="h" x="0" y="0" flags="0x1004"/>
      <component glyphName="circumflex" x="117" y="486" flags="0x1004"/>
    </TTGlyph>
    <TTGlyph name="hungarumlaut" xMin="218" yMin="1408" xMax="896" yMax="1792">
      <contour>
        <pt x="512" y="1408" on="1"/>
        <pt x="640" y="1792" on="1"/>
        <pt x="896" y="1792" on="1"/>
        <pt x="640" y="1408" on="1"/>
      </contour>
      <contour>
        <pt x="218" y="1408" on="1"/>
        <pt x="306" y="1792" on="1"/>
        <pt x="512" y="1792" on="1"/>
        <pt x="346" y="1408" on="1"/>
      </contour>
    </TTGlyph>
    <TTGlyph name="hyphen" xMin="0" yMin="448" xMax="384" yMax="640">
      <contour>
        <pt x="0" y="448" on="1"/>
        <pt x="0" y="640" on="1"/>
        <pt x="384" y="640" on="1"/>
        <pt x="384" y="448" on="1"/>
      </contour>
    </TTGlyph>
    <TTGlyph name="i" xMin="128" yMin="0" xMax="384" yMax="1728">
      <contour>
        <pt x="128" y="1472" on="1"/>
        <pt x="128" y="1728" on="1"/>
        <pt x="384" y="1728" on="1"/>
        <pt x="384" y="1472" on="1"/>
      </contour>
      <contour>
        <pt x="128" y="0" on="1"/>
        <pt x="128" y="1280" on="1"/>
        <pt x="384" y="1280" on="1"/>
        <pt x="384" y="0" on="1"/>
      </contour>
    </TTGlyph>
    <TTGlyph name="iacute" xMin="128" yMin="0" xMax="576" yMax="1784">
      <component glyphName="dotlessi" x="0" y="0" flags="0x1004"/>
      <component glyphName="acute" x="64" y="-8" flags="0x1004"/>
    </TTGlyph>
    <TTGlyph name="ibreve" xMin="-64" yMin="0" xMax="576" yMax="1784">
      <component glyphName="dotlessi" x="0" y="0" flags="0x1004"/>
      <component glyphName="breve" x="-128" y="-8" flags="0x1004"/>
    </TTGlyph>
    <TTGlyph name="icircumflex" xMin="-64" yMin="0" xMax="576" yMax="1784">
      <component glyphName="dotlessi" x="0" y="0" flags="0x1004"/>
      <component glyphName="circumflex" x="-128" y="-8" flags="0x1004"/>
    </TTGlyph>
    <TTGlyph name="idieresis" xMin="-64" yMin="0" xMax="576" yMax="1656">
      <component glyphName="dotlessi" x="0" y="0" flags="0x1004"/>
      <component glyphName="dieresis" x="-192" y="-136" flags="0x1004"/>
    </TTGlyph>
    <TTGlyph name="igrave" xMin="-64" yMin="0" xMax="384" yMax="1784">
      <component glyphName="dotlessi" x="0" y="0" flags="0x1004"/>
      <component glyphName="grave" x="-192" y="-8" flags="0x1004"/>
    </TTGlyph>
    <TTGlyph name="ij" xMin="128" yMin="-320" xMax="918" yMax="1728">
      <component glyphName="j" x="512" y="0" flags="0x1004"/>
      <component glyphName="i" x="0" y="0" flags="0x1004"/>
    </TTGlyph>
    <TTGlyph name="imacron" xMin="39" yMin="0" xMax="473" yMax="1552">
      <component glyphName="dotlessi" x="0" y="0" flags="0x1004"/>
      <component glyphName="macron" x="-84" y="-7" flags="0x1004"/>
    </TTGlyph>
    <TTGlyph name="integral" xMin="0" yMin="-256" xMax="640" yMax="1728">
      <contour>
        <pt x="158" y="-256" on="1"/>
        <pt x="96" y="-256" on="0"/>
        <pt x="0" y="-244" on="1"/>
        <pt x="0" y="-54" on="1"/>
        <pt x="60" y="-64" on="0"/>
        <pt x="86" y="-64" on="1"/>
        <pt x="150" y="-64" on="0"/>
        <pt x="192" y="17" on="0"/>
        <pt x="192" y="96" on="1"/>
        <pt x="192" y="1344" on="1"/>
        <pt x="192" y="1422" on="0"/>
        <pt x="205" y="1533" on="0"/>
        <pt x="242" y="1633" on="0"/>
        <pt x="306" y="1693" on="0"/>
        <pt x="409" y="1728" on="0"/>
        <pt x="482" y="1728" on="1"/>
        <pt x="544" y="1728" on="0"/>
        <pt x="640" y="1716" on="1"/>
        <pt x="640" y="1526" on="1"/>
        <pt x="630" y="1527" on="0"/>
        <pt x="568" y="1536" on="0"/>
        <pt x="554" y="1536" on="1"/>
        <pt x="490" y="1536" on="0"/>
        <pt x="448" y="1455" on="0"/>
        <pt x="448" y="1376" on="1"/>
        <pt x="448" y="128" on="1"/>
        <pt x="448" y="49" on="0"/>
        <pt x="435" y="-62" on="0"/>
        <pt x="399" y="-162" on="0"/>
        <pt x="335" y="-222" on="0"/>
        <pt x="231" y="-256" on="0"/>
      </contour>
    </TTGlyph>
    <TTGlyph name="iogonek" xMin="-64" yMin="-505" xMax="384" yMax="1728">
      <component glyphName="i" x="0" y="0" flags="0x1004"/>
      <component glyphName="ogonek" x="-18" y="8" flags="0x1004"/>
    </TTGlyph>
    <TTGlyph name="itilde" xMin="-97" yMin="0" xMax="609" yMax="1693">
      <component glyphName="dotlessi" x="0" y="0" flags="0x1004"/>
      <component glyphName="tilde" x="-224" y="-52" flags="0x1004"/>
    </TTGlyph>
    <TTGlyph name="j" xMin="-42" yMin="-320" xMax="406" yMax="1728">
      <contour>
        <pt x="150" y="1472" on="1"/>
        <pt x="150" y="1728" on="1"/>
        <pt x="406" y="1728" on="1"/>
        <pt x="406" y="1472" on="1"/>
      </contour>
      <contour>
        <pt x="86" y="-320" on="1"/>
        <pt x="2" y="-320" on="0"/>
        <pt x="-42" y="-303" on="1"/>
        <pt x="-42" y="-121" on="1"/>
        <pt x="-7" y="-128" on="0"/>
        <pt x="22" y="-128" on="1"/>
        <pt x="150" y="-128" on="0"/>
        <pt x="150" y="21" on="1"/>
        <pt x="150" y="1280" on="1"/>
        <pt x="406" y="1280" on="1"/>
        <pt x="406" y="-7" on="1"/>
        <pt x="406" y="-155" on="0"/>
        <pt x="235" y="-320" on="0"/>
      </contour>
    </TTGlyph>
    <TTGlyph name="jcircumflex" xMin="-16" yMin="-320" xMax="624" yMax="1784">
      <component glyphName="uni0237" x="0" y="0" flags="0x1004"/>
      <component glyphName="circumflex" x="-80" y="-8" flags="0x1004"/>
    </TTGlyph>
    <TTGlyph name="k" xMin="117" yMin="0" xMax="949" yMax="1792">
      <contour>
        <pt x="117" y="0" on="1"/>
        <pt x="117" y="1792" on="1"/>
        <pt x="373" y="1792" on="1"/>
        <pt x="373" y="807" on="1"/>
        <pt x="693" y="1280" on="1"/>
        <pt x="949" y="1280" on="1"/>
        <pt x="662" y="833" on="1"/>
        <pt x="949" y="0" on="1"/>
        <pt x="693" y="0" on="1"/>
        <pt x="501" y="619" on="1"/>
        <pt x="373" y="448" on="1"/>
        <pt x="373" y="0" on="1"/>
      </contour>
    </TTGlyph>
    <TTGlyph name="kcommaaccent" xMin="117" yMin="-634" xMax="949" yMax="1792">
      <component glyphName="uni0326" x="368" y="-43" flags="0x1004"/>
      <component glyphName="k" x="0" y="0" flags="0x1204"/>
    </TTGlyph>
    <TTGlyph name="kgreenlandic" xMin="128" yMin="0" xMax="960" yMax="1281">
      <contour>
        <pt x="128" y="0" on="1"/>
        <pt x="128" y="1281" on="1"/>
        <pt x="384" y="1281" on="1"/>
        <pt x="384" y="737" on="1"/>
        <pt x="704" y="1280" on="1"/>
        <pt x="960" y="1280" on="1"/>
        <pt x="673" y="793" on="1"/>
        <pt x="960" y="0" on="1"/>
        <pt x="704" y="0" on="1"/>
        <pt x="502" y="619" on="1"/>
        <pt x="384" y="438" on="1"/>
        <pt x="384" y="0" on="1"/>
      </contour>
    </TTGlyph>
    <TTGlyph name="l" xMin="118" yMin="0" xMax="374" yMax="1792">
      <contour>
        <pt x="118" y="0" on="1"/>
        <pt x="118" y="1792" on="1"/>
        <pt x="374" y="1792" on="1"/>
        <pt x="374" y="0" on="1"/>
      </contour>
    </TTGlyph>
    <TTGlyph name="lacute" xMin="118" yMin="0" xMax="570" yMax="2278">
      <component glyphName="l" x="0" y="0" flags="0x1004"/>
      <component glyphName="acute" x="58" y="486" flags="0x1004"/>
    </TTGlyph>
    <TTGlyph name="lcaron" xMin="118" yMin="0" xMax="787" yMax="1792">
      <component glyphName="l" x="0" y="0" flags="0x1004"/>
      <component glyphName="comma" x="455" y="1536" flags="0x1004"/>
    </TTGlyph>
    <TTGlyph name="lcommaaccent" xMin="118" yMin="-634" xMax="374" yMax="1792">
      <component glyphName="uni0326" x="81" y="-43" flags="0x1004"/>
      <component glyphName="l" x="0" y="0" flags="0x1204"/>
    </TTGlyph>
    <TTGlyph name="ldot" xMin="118" yMin="0" xMax="825" yMax="1792">
      <component glyphName="l" x="0" y="0" flags="0x1004"/>
      <component glyphName="periodcentered" x="505" y="0" flags="0x1004"/>
    </TTGlyph>
    <TTGlyph name="less" xMin="64" yMin="64" xMax="704" yMax="1216">
      <contour>
        <pt x="704" y="64" on="1"/>
        <pt x="64" y="512" on="1"/>
        <pt x="64" y="768" on="1"/>
        <pt x="704" y="1216" on="1"/>
        <pt x="704" y="960" on="1"/>
        <pt x="256" y="641" on="1"/>
        <pt x="704" y="320" on="1"/>
      </contour>
    </TTGlyph>
    <TTGlyph name="logicalnot" xMin="128" yMin="256" xMax="640" yMax="640">
      <contour>
        <pt x="512" y="256" on="1"/>
        <pt x="512" y="448" on="1"/>
        <pt x="128" y="448" on="1"/>
        <pt x="128" y="640" on="1"/>
        <pt x="640" y="640" on="1"/>
        <pt x="640" y="256" on="1"/>
      </contour>
    </TTGlyph>
    <TTGlyph name="lslash" xMin="12" yMin="0" xMax="556" yMax="1792">
      <contour>
        <pt x="142" y="0" on="1"/>
        <pt x="142" y="1160" on="1"/>
        <pt x="12" y="1100" on="1"/>
        <pt x="12" y="1292" on="1"/>
        <pt x="142" y="1352" on="1"/>
        <pt x="142" y="1792" on="1"/>
        <pt x="398" y="1792" on="1"/>
        <pt x="398" y="1469" on="1"/>
        <pt x="556" y="1542" on="1"/>
        <pt x="556" y="1347" on="1"/>
        <pt x="398" y="1277" on="1"/>
        <pt x="398" y="0" on="1"/>
      </contour>
    </TTGlyph>
    <TTGlyph name="m" xMin="117" yMin="0" xMax="1397" yMax="1298">
      <contour>
        <pt x="117" y="0" on="1"/>
        <pt x="117" y="1280" on="1"/>
        <pt x="373" y="1280" on="1"/>
        <pt x="373" y="1135" on="1"/>
        <pt x="510" y="1298" on="0"/>
        <pt x="692" y="1298" on="1"/>
        <pt x="784" y="1298" on="0"/>
        <pt x="870" y="1217" on="0"/>
        <pt x="885" y="1129" on="1"/>
        <pt x="948" y="1212" on="0"/>
        <pt x="1094" y="1298" on="0"/>
        <pt x="1205" y="1298" on="1"/>
        <pt x="1237" y="1298" on="0"/>
        <pt x="1288" y="1285" on="0"/>
        <pt x="1326" y="1267" on="0"/>
        <pt x="1355" y="1230" on="0"/>
        <pt x="1374" y="1199" on="0"/>
        <pt x="1387" y="1141" on="0"/>
        <pt x="1393" y="1103" on="0"/>
        <pt x="1397" y="1029" on="0"/>
        <pt x="1397" y="987" on="0"/>
        <pt x="1397" y="945" on="1"/>
        <pt x="1397" y="936" on="0"/>
        <pt x="1397" y="931" on="1"/>
        <pt x="1397" y="0" on="1"/>
        <pt x="1141" y="0" on="1"/>
        <pt x="1141" y="934" on="1"/>
        <pt x="1141" y="939" on="0"/>
        <pt x="1141" y="950" on="1"/>
        <pt x="1141" y="983" on="0"/>
        <pt x="1139" y="1019" on="0"/>
        <pt x="1128" y="1066" on="0"/>
        <pt x="1100" y="1088" on="0"/>
        <pt x="1077" y="1088" on="1"/>
        <pt x="1038" y="1088" on="0"/>
        <pt x="960" y="1057" on="0"/>
        <pt x="917" y="1028" on="0"/>
        <pt x="885" y="1002" on="1"/>
        <pt x="885" y="0" on="1"/>
        <pt x="629" y="0" on="1"/>
        <pt x="629" y="929" on="1"/>
        <pt x="629" y="935" on="0"/>
        <pt x="629" y="947" on="1"/>
        <pt x="629" y="975" on="0"/>
        <pt x="629" y="1003" on="0"/>
        <pt x="622" y="1048" on="0"/>
        <pt x="610" y="1070" on="0"/>
        <pt x="584" y="1088" on="0"/>
        <pt x="565" y="1088" on="1"/>
        <pt x="471" y="1088" on="0"/>
        <pt x="373" y="1007" on="1"/>
        <pt x="373" y="0" on="1"/>
      </contour>
    </TTGlyph>
    <TTGlyph name="macron" xMin="123" yMin="1407" xMax="557" yMax="1559">
      <contour>
        <pt x="123" y="1407" on="1"/>
        <pt x="123" y="1559" on="1"/>
        <pt x="557" y="1559" on="1"/>
        <pt x="557" y="1407" on="1"/>
      </contour>
    </TTGlyph>
    <TTGlyph name="minus" xMin="0" yMin="548" xMax="750" yMax="699">
      <contour>
        <pt x="0" y="548" on="1"/>
        <pt x="0" y="699" on="1"/>
        <pt x="750" y="699" on="1"/>
        <pt x="750" y="548" on="1"/>
      </contour>
    </TTGlyph>
    <TTGlyph name="multiply" xMin="64" yMin="320" xMax="704" yMax="960">
      <contour>
        <pt x="192" y="320" on="1"/>
        <pt x="64" y="448" on="1"/>
        <pt x="256" y="640" on="1"/>
        <pt x="64" y="832" on="1"/>
        <pt x="192" y="960" on="1"/>
        <pt x="384" y="768" on="1"/>
        <pt x="576" y="960" on="1"/>
        <pt x="704" y="832" on="1"/>
        <pt x="512" y="640" on="1"/>
        <pt x="704" y="448" on="1"/>
        <pt x="576" y="320" on="1"/>
        <pt x="384" y="512" on="1"/>
      </contour>
    </TTGlyph>
    <TTGlyph name="n" xMin="117" yMin="0" xMax="885" yMax="1298">
      <contour>
        <pt x="117" y="0" on="1"/>
        <pt x="117" y="1280" on="1"/>
        <pt x="373" y="1280" on="1"/>
        <pt x="373" y="1142" on="1"/>
        <pt x="430" y="1194" on="0"/>
        <pt x="502" y="1249" on="0"/>
        <pt x="629" y="1298" on="0"/>
        <pt x="701" y="1298" on="1"/>
        <pt x="783" y="1298" on="0"/>
        <pt x="885" y="1178" on="0"/>
        <pt x="885" y="1091" on="1"/>
        <pt x="885" y="0" on="1"/>
        <pt x="629" y="0" on="1"/>
        <pt x="629" y="960" on="1"/>
        <pt x="629" y="1027" on="0"/>
        <pt x="591" y="1088" on="0"/>
        <pt x="533" y="1088" on="1"/>
        <pt x="500" y="1088" on="0"/>
        <pt x="435" y="1061" on="0"/>
        <pt x="403" y="1038" on="0"/>
        <pt x="373" y="1013" on="1"/>
        <pt x="373" y="0" on="1"/>
      </contour>
    </TTGlyph>
    <TTGlyph name="nacute" xMin="117" yMin="0" xMax="885" yMax="1784">
      <component glyphName="n" x="0" y="0" flags="0x1004"/>
      <component glyphName="acute" x="309" y="-8" flags="0x1004"/>
    </TTGlyph>
    <TTGlyph name="ncaron" xMin="117" yMin="0" xMax="885" yMax="1784">
      <component glyphName="n" x="0" y="0" flags="0x1004"/>
      <component glyphName="caron" x="117" y="-8" flags="0x1004"/>
    </TTGlyph>
    <TTGlyph name="ncommaaccent" xMin="117" yMin="-634" xMax="885" yMax="1298">
      <component glyphName="uni0326" x="336" y="-43" flags="0x1004"/>
      <component glyphName="n" x="0" y="0" flags="0x1204"/>
    </TTGlyph>
    <TTGlyph name="nine" xMin="92" yMin="-18" xMax="988" yMax="1810">
      <contour>
        <pt x="540" y="896" on="1"/>
        <pt x="662" y="896" on="0"/>
        <pt x="732" y="1024" on="1"/>
        <pt x="732" y="1280" on="1"/>
        <pt x="732" y="1344" on="0"/>
        <pt x="714" y="1450" on="0"/>
        <pt x="673" y="1546" on="0"/>
        <pt x="595" y="1600" on="0"/>
        <pt x="485" y="1600" on="0"/>
        <pt x="407" y="1546" on="0"/>
        <pt x="366" y="1450" on="0"/>
        <pt x="348" y="1343" on="0"/>
        <pt x="348" y="1280" on="1"/>
        <pt x="348" y="1242" on="0"/>
        <pt x="348" y="1203" on="0"/>
        <pt x="351" y="1131" on="0"/>
        <pt x="356" y="1092" on="0"/>
        <pt x="365" y="1032" on="0"/>
        <pt x="379" y="999" on="0"/>
        <pt x="400" y="954" on="0"/>
        <pt x="428" y="930" on="0"/>
        <pt x="464" y="906" on="0"/>
        <pt x="512" y="896" on="0"/>
      </contour>
      <contour>
        <pt x="540" y="-18" on="1"/>
        <pt x="324" y="-18" on="0"/>
        <pt x="92" y="227" on="0"/>
        <pt x="92" y="448" on="1"/>
        <pt x="348" y="448" on="1"/>
        <pt x="348" y="320" on="0"/>
        <pt x="431" y="192" on="0"/>
        <pt x="540" y="192" on="1"/>
        <pt x="732" y="192" on="0"/>
        <pt x="732" y="576" on="1"/>
        <pt x="732" y="832" on="1"/>
        <pt x="656" y="704" on="0"/>
        <pt x="476" y="704" on="1"/>
        <pt x="368" y="704" on="0"/>
        <pt x="215" y="779" on="0"/>
        <pt x="130" y="922" on="0"/>
        <pt x="92" y="1100" on="0"/>
        <pt x="92" y="1216" on="1"/>
        <pt x="92" y="1342" on="0"/>
        <pt x="142" y="1551" on="0"/>
        <pt x="246" y="1717" on="0"/>
        <pt x="422" y="1810" on="0"/>
        <pt x="540" y="1810" on="1"/>
        <pt x="632" y="1810" on="0"/>
        <pt x="782" y="1748" on="0"/>
        <pt x="885" y="1640" on="0"/>
        <pt x="956" y="1489" on="0"/>
        <pt x="988" y="1314" on="0"/>
        <pt x="988" y="1216" on="1"/>
        <pt x="988" y="640" on="1"/>
        <pt x="988" y="530" on="0"/>
        <pt x="962" y="343" on="0"/>
        <pt x="898" y="172" on="0"/>
        <pt x="798" y="52" on="0"/>
        <pt x="641" y="-18" on="0"/>
      </contour>
    </TTGlyph>
    <TTGlyph name="ntilde" xMin="117" yMin="0" xMax="885" yMax="1693">
      <component glyphName="n" x="0" y="0" flags="0x1004"/>
      <component glyphName="tilde" x="21" y="-52" flags="0x1004"/>
    </TTGlyph>
    <TTGlyph name="numbersign" xMin="64" yMin="0" xMax="1024" yMax="1792">
      <contour>
        <pt x="437" y="832" on="1"/>
        <pt x="630" y="832" on="1"/>
        <pt x="657" y="1024" on="1"/>
        <pt x="465" y="1024" on="1"/>
      </contour>
      <contour>
        <pt x="64" y="0" on="1"/>
        <pt x="154" y="640" on="1"/>
        <pt x="64" y="640" on="1"/>
        <pt x="64" y="832" on="1"/>
        <pt x="181" y="832" on="1"/>
        <pt x="209" y="1024" on="1"/>
        <pt x="64" y="1024" on="1"/>
        <pt x="64" y="1216" on="1"/>
        <pt x="236" y="1216" on="1"/>
        <pt x="318" y="1792" on="1"/>
        <pt x="574" y="1792" on="1"/>
        <pt x="492" y="1216" on="1"/>
        <pt x="684" y="1216" on="1"/>
        <pt x="766" y="1792" on="1"/>
        <pt x="1022" y="1792" on="1"/>
        <pt x="940" y="1216" on="1"/>
        <pt x="1024" y="1216" on="1"/>
        <pt x="1024" y="1024" on="1"/>
        <pt x="913" y="1024" on="1"/>
        <pt x="885" y="832" on="1"/>
        <pt x="1024" y="832" on="1"/>
        <pt x="1024" y="640" on="1"/>
        <pt x="858" y="640" on="1"/>
        <pt x="768" y="0" on="1"/>
        <pt x="512" y="0" on="1"/>
        <pt x="602" y="640" on="1"/>
        <pt x="410" y="640" on="1"/>
        <pt x="320" y="0" on="1"/>
      </contour>
    </TTGlyph>
    <TTGlyph name="o" xMin="93" yMin="-18" xMax="861" yMax="1298">
      <contour>
        <pt x="683" y="-18" on="0"/>
        <pt x="271" y="-18" on="0"/>
        <pt x="93" y="222" on="0"/>
        <pt x="93" y="448" on="1"/>
        <pt x="93" y="832" on="1"/>
        <pt x="93" y="1058" on="0"/>
        <pt x="271" y="1298" on="0"/>
        <pt x="683" y="1298" on="0"/>
        <pt x="861" y="1058" on="0"/>
        <pt x="861" y="832" on="1"/>
        <pt x="861" y="448" on="1"/>
        <pt x="861" y="222" on="0"/>
      </contour>
      <contour>
        <pt x="450" y="192" on="0"/>
        <pt x="504" y="192" on="0"/>
        <pt x="545" y="208" on="0"/>
        <pt x="572" y="231" on="0"/>
        <pt x="590" y="276" on="0"/>
        <pt x="600" y="310" on="0"/>
        <pt x="604" y="374" on="0"/>
        <pt x="605" y="411" on="0"/>
        <pt x="605" y="448" on="1"/>
        <pt x="605" y="832" on="1"/>
        <pt x="605" y="869" on="0"/>
        <pt x="604" y="906" on="0"/>
        <pt x="600" y="970" on="0"/>
        <pt x="590" y="1004" on="0"/>
        <pt x="572" y="1049" on="0"/>
        <pt x="545" y="1072" on="0"/>
        <pt x="504" y="1088" on="0"/>
        <pt x="450" y="1088" on="0"/>
        <pt x="409" y="1072" on="0"/>
        <pt x="382" y="1049" on="0"/>
        <pt x="364" y="1004" on="0"/>
        <pt x="354" y="970" on="0"/>
        <pt x="350" y="906" on="0"/>
        <pt x="349" y="869" on="0"/>
        <pt x="349" y="832" on="1"/>
        <pt x="349" y="448" on="1"/>
        <pt x="349" y="411" on="0"/>
        <pt x="350" y="374" on="0"/>
        <pt x="354" y="310" on="0"/>
        <pt x="364" y="276" on="0"/>
        <pt x="382" y="231" on="0"/>
        <pt x="409" y="208" on="0"/>
      </contour>
    </TTGlyph>
    <TTGlyph name="oacute" xMin="93" yMin="-18" xMax="861" yMax="1784">
      <component glyphName="o" x="0" y="0" flags="0x1004"/>
      <component glyphName="acute" x="285" y="-8" flags="0x1004"/>
    </TTGlyph>
    <TTGlyph name="obreve" xMin="93" yMin="-18" xMax="861" yMax="1784">
      <component glyphName="o" x="0" y="0" flags="0x1004"/>
      <component glyphName="breve" x="93" y="-8" flags="0x1004"/>
    </TTGlyph>
    <TTGlyph name="ocircumflex" xMin="93" yMin="-18" xMax="861" yMax="1784">
      <component glyphName="o" x="0" y="0" flags="0x1004"/>
      <component glyphName="circumflex" x="93" y="-8" flags="0x1004"/>
    </TTGlyph>
    <TTGlyph name="odieresis" xMin="93" yMin="-18" xMax="861" yMax="1656">
      <component glyphName="o" x="0" y="0" flags="0x1004"/>
      <component glyphName="dieresis" x="29" y="-136" flags="0x1004"/>
    </TTGlyph>
    <TTGlyph name="oe" xMin="128" yMin="-18" xMax="1408" yMax="1298">
      <contour>
        <pt x="896" y="768" on="1"/>
        <pt x="1152" y="768" on="1"/>
        <pt x="1152" y="772" on="0"/>
        <pt x="1152" y="780" on="1"/>
        <pt x="1152" y="818" on="0"/>
        <pt x="1151" y="860" on="0"/>
        <pt x="1147" y="936" on="0"/>
        <pt x="1138" y="979" on="0"/>
        <pt x="1119" y="1036" on="0"/>
        <pt x="1093" y="1066" on="0"/>
        <pt x="1051" y="1088" on="0"/>
        <pt x="1025" y="1088" on="1"/>
        <pt x="1001" y="1088" on="0"/>
        <pt x="963" y="1073" on="0"/>
        <pt x="937" y="1041" on="0"/>
        <pt x="918" y="1008" on="0"/>
        <pt x="906" y="953" on="0"/>
        <pt x="899" y="914" on="0"/>
        <pt x="897" y="846" on="0"/>
        <pt x="896" y="810" on="0"/>
        <pt x="896" y="777" on="1"/>
        <pt x="896" y="771" on="0"/>
      </contour>
      <contour>
        <pt x="485" y="192" on="0"/>
        <pt x="539" y="192" on="0"/>
        <pt x="580" y="208" on="0"/>
        <pt x="607" y="231" on="0"/>
        <pt x="625" y="276" on="0"/>
        <pt x="635" y="310" on="0"/>
        <pt x="639" y="374" on="0"/>
        <pt x="640" y="411" on="0"/>
        <pt x="640" y="448" on="1"/>
        <pt x="640" y="832" on="1"/>
        <pt x="640" y="869" on="0"/>
        <pt x="639" y="906" on="0"/>
        <pt x="635" y="970" on="0"/>
        <pt x="625" y="1004" on="0"/>
        <pt x="607" y="1049" on="0"/>
        <pt x="580" y="1072" on="0"/>
        <pt x="539" y="1088" on="0"/>
        <pt x="485" y="1088" on="0"/>
        <pt x="444" y="1072" on="0"/>
        <pt x="417" y="1049" on="0"/>
        <pt x="399" y="1004" on="0"/>
        <pt x="389" y="970" on="0"/>
        <pt x="385" y="906" on="0"/>
        <pt x="384" y="869" on="0"/>
        <pt x="384" y="832" on="1"/>
        <pt x="384" y="448" on="1"/>
        <pt x="384" y="411" on="0"/>
        <pt x="385" y="374" on="0"/>
        <pt x="389" y="310" on="0"/>
        <pt x="399" y="276" on="0"/>
        <pt x="417" y="231" on="0"/>
        <pt x="444" y="208" on="0"/>
      </contour>
      <contour>
        <pt x="512" y="-18" on="1"/>
        <pt x="306" y="-18" on="0"/>
        <pt x="128" y="222" on="0"/>
        <pt x="128" y="448" on="1"/>
        <pt x="128" y="832" on="1"/>
        <pt x="128" y="1058" on="0"/>
        <pt x="306" y="1298" on="0"/>
        <pt x="512" y="1298" on="1"/>
        <pt x="688" y="1298" on="0"/>
        <pt x="768" y="1152" on="1"/>
        <pt x="842" y="1298" on="0"/>
        <pt x="1025" y="1298" on="1"/>
        <pt x="1106" y="1298" on="0"/>
        <pt x="1231" y="1255" on="0"/>
        <pt x="1314" y="1168" on="0"/>
        <pt x="1369" y="1061" on="0"/>
        <pt x="1397" y="910" on="0"/>
        <pt x="1408" y="764" on="0"/>
        <pt x="1408" y="670" on="1"/>
        <pt x="1408" y="640" on="1"/>
        <pt x="896" y="640" on="1"/>
        <pt x="896" y="576" on="1"/>
        <pt x="896" y="563" on="0"/>
        <pt x="896" y="535" on="1"/>
        <pt x="894" y="498" on="0"/>
        <pt x="897" y="419" on="0"/>
        <pt x="901" y="343" on="0"/>
        <pt x="919" y="274" on="0"/>
        <pt x="945" y="222" on="0"/>
        <pt x="992" y="192" on="0"/>
        <pt x="1024" y="192" on="1"/>
        <pt x="1051" y="192" on="0"/>
        <pt x="1093" y="209" on="0"/>
        <pt x="1120" y="230" on="0"/>
        <pt x="1138" y="276" on="0"/>
        <pt x="1147" y="307" on="0"/>
        <pt x="1152" y="375" on="0"/>
        <pt x="1152" y="409" on="0"/>
        <pt x="1152" y="448" on="1"/>
        <pt x="1408" y="448" on="1"/>
        <pt x="1408" y="218" on="0"/>
        <pt x="1227" y="-18" on="0"/>
        <pt x="1024" y="-18" on="1"/>
        <pt x="844" y="-18" on="0"/>
        <pt x="768" y="128" on="1"/>
        <pt x="692" y="-18" on="0"/>
      </contour>
    </TTGlyph>
    <TTGlyph name="ogonek" xMin="-46" yMin="-513" xMax="402" yMax="9">
      <contour>
        <pt x="357" y="-513" on="1"/>
        <pt x="310" y="-513" on="0"/>
        <pt x="251" y="-512" on="0"/>
        <pt x="172" y="-508" on="0"/>
        <pt x="123" y="-501" on="0"/>
        <pt x="63" y="-487" on="0"/>
        <pt x="26" y="-468" on="0"/>
        <pt x="-12" y="-439" on="0"/>
        <pt x="-33" y="-402" on="0"/>
        <pt x="-46" y="-352" on="0"/>
        <pt x="-46" y="-321" on="1"/>
        <pt x="-46" y="-213" on="0"/>
        <pt x="116" y="-18" on="0"/>
        <pt x="210" y="9" on="1"/>
        <pt x="338" y="9" on="1"/>
        <pt x="332" y="1" on="0"/>
        <pt x="238" y="-113" on="0"/>
        <pt x="194" y="-175" on="0"/>
        <pt x="146" y="-277" on="0"/>
        <pt x="146" y="-317" on="1"/>
        <pt x="146" y="-391" on="0"/>
        <pt x="290" y="-391" on="1"/>
        <pt x="309" y="-391" on="0"/>
        <pt x="388" y="-385" on="0"/>
        <pt x="402" y="-385" on="1"/>
        <pt x="402" y="-513" on="1"/>
      </contour>
    </TTGlyph>
    <TTGlyph name="ograve" xMin="93" yMin="-18" xMax="861" yMax="1784">
      <component glyphName="o" x="0" y="0" flags="0x1004"/>
      <component glyphName="grave" x="29" y="-8" flags="0x1004"/>
    </TTGlyph>
    <TTGlyph name="ohungarumlaut" xMin="93" yMin="-18" xMax="944" yMax="1784">
      <component glyphName="o" x="0" y="0" flags="0x1004"/>
      <component glyphName="hungarumlaut" x="48" y="-8" flags="0x1004"/>
    </TTGlyph>
    <TTGlyph name="omacron" xMin="93" yMin="-18" xMax="861" yMax="1552">
      <component glyphName="o" x="0" y="0" flags="0x1004"/>
      <component glyphName="macron" x="137" y="-7" flags="0x1004"/>
    </TTGlyph>
    <TTGlyph name="one" xMin="64" yMin="0" xMax="512" yMax="1792">
      <contour>
        <pt x="256" y="0" on="1"/>
        <pt x="256" y="1408" on="1"/>
        <pt x="64" y="1408" on="1"/>
        <pt x="64" y="1600" on="1"/>
        <pt x="257" y="1669" on="0"/>
        <pt x="320" y="1792" on="1"/>
        <pt x="512" y="1792" on="1"/>
        <pt x="512" y="0" on="1"/>
      </contour>
    </TTGlyph>
    <TTGlyph name="onehalf" xMin="66" yMin="0" xMax="1642" yMax="1792">
      <contour>
        <pt x="1130" y="3" on="1"/>
        <pt x="1130" y="131" on="1"/>
        <pt x="1322" y="387" on="1"/>
        <pt x="1329" y="396" on="0"/>
        <pt x="1370" y="449" on="0"/>
        <pt x="1389" y="474" on="0"/>
        <pt x="1422" y="526" on="0"/>
        <pt x="1437" y="564" on="0"/>
        <pt x="1450" y="617" on="0"/>
        <pt x="1450" y="643" on="1"/>
        <pt x="1450" y="664" on="0"/>
        <pt x="1449" y="686" on="0"/>
        <pt x="1446" y="722" on="0"/>
        <pt x="1438" y="741" on="0"/>
        <pt x="1424" y="762" on="0"/>
        <pt x="1402" y="771" on="0"/>
        <pt x="1370" y="771" on="0"/>
        <pt x="1348" y="762" on="0"/>
        <pt x="1334" y="741" on="0"/>
        <pt x="1326" y="722" on="0"/>
        <pt x="1323" y="686" on="0"/>
        <pt x="1322" y="664" on="0"/>
        <pt x="1322" y="643" on="1"/>
        <pt x="1130" y="643" on="1"/>
        <pt x="1130" y="764" on="0"/>
        <pt x="1263" y="899" on="0"/>
        <pt x="1509" y="899" on="0"/>
        <pt x="1642" y="764" on="0"/>
        <pt x="1642" y="643" on="1"/>
        <pt x="1642" y="572" on="0"/>
        <pt x="1567" y="417" on="0"/>
        <pt x="1479" y="311" on="0"/>
        <pt x="1348" y="166" on="0"/>
        <pt x="1322" y="131" on="1"/>
        <pt x="1642" y="131" on="1"/>
        <pt x="1642" y="3" on="1"/>
      </contour>
      <contour>
        <pt x="434" y="0" on="1"/>
        <pt x="1009" y="1792" on="1"/>
        <pt x="1266" y="1792" on="1"/>
        <pt x="690" y="0" on="1"/>
      </contour>
      <contour>
        <pt x="194" y="744" on="1"/>
        <pt x="194" y="1320" on="1"/>
        <pt x="66" y="1320" on="1"/>
        <pt x="66" y="1448" on="1"/>
        <pt x="234" y="1531" on="0"/>
        <pt x="322" y="1640" on="1"/>
        <pt x="386" y="1640" on="1"/>
        <pt x="386" y="744" on="1"/>
      </contour>
    </TTGlyph>
    <TTGlyph name="onequarter" xMin="69" yMin="-1" xMax="1621" yMax="1792">
      <contour>
        <pt x="1173" y="383" on="1"/>
        <pt x="1301" y="383" on="1"/>
        <pt x="1301" y="639" on="1"/>
      </contour>
      <contour>
        <pt x="1301" y="-1" on="1"/>
        <pt x="1301" y="255" on="1"/>
        <pt x="981" y="255" on="1"/>
        <pt x="981" y="383" on="1"/>
        <pt x="1321" y="959" on="1"/>
        <pt x="1493" y="959" on="1"/>
        <pt x="1493" y="383" on="1"/>
        <pt x="1621" y="383" on="1"/>
        <pt x="1621" y="255" on="1"/>
        <pt x="1493" y="255" on="1"/>
        <pt x="1493" y="-1" on="1"/>
      </contour>
      <contour>
        <pt x="409" y="0" on="1"/>
        <pt x="984" y="1792" on="1"/>
        <pt x="1241" y="1792" on="1"/>
        <pt x="665" y="0" on="1"/>
      </contour>
      <contour>
        <pt x="197" y="744" on="1"/>
        <pt x="197" y="1320" on="1"/>
        <pt x="69" y="1320" on="1"/>
        <pt x="69" y="1448" on="1"/>
        <pt x="237" y="1531" on="0"/>
        <pt x="325" y="1640" on="1"/>
        <pt x="389" y="1640" on="1"/>
        <pt x="389" y="744" on="1"/>
      </contour>
    </TTGlyph>
    <TTGlyph name="ordfeminine" xMin="108" yMin="-10" xMax="678" yMax="863">
      <contour>
        <pt x="374" y="144" on="1"/>
        <pt x="410" y="144" on="0"/>
        <pt x="470" y="188" on="0"/>
        <pt x="485" y="219" on="1"/>
        <pt x="485" y="408" on="1"/>
        <pt x="390" y="357" on="0"/>
        <pt x="361" y="332" on="1"/>
        <pt x="303" y="285" on="0"/>
        <pt x="303" y="228" on="1"/>
        <pt x="303" y="189" on="0"/>
        <pt x="340" y="144" on="0"/>
      </contour>
      <contour>
        <pt x="301" y="-10" on="1"/>
        <pt x="218" y="-10" on="0"/>
        <pt x="108" y="100" on="0"/>
        <pt x="108" y="183" on="1"/>
        <pt x="108" y="251" on="0"/>
        <pt x="161" y="350" on="0"/>
        <pt x="288" y="420" on="0"/>
        <pt x="363" y="449" on="0"/>
        <pt x="450" y="475" on="1"/>
        <pt x="474" y="482" on="0"/>
        <pt x="485" y="486" on="1"/>
        <pt x="485" y="580" on="1"/>
        <pt x="485" y="719" on="0"/>
        <pt x="409" y="719" on="1"/>
        <pt x="319" y="719" on="0"/>
        <pt x="319" y="568" on="1"/>
        <pt x="141" y="568" on="1"/>
        <pt x="143" y="702" on="0"/>
        <pt x="285" y="863" on="0"/>
        <pt x="413" y="863" on="1"/>
        <pt x="492" y="863" on="0"/>
        <pt x="598" y="818" on="0"/>
        <pt x="655" y="725" on="0"/>
        <pt x="678" y="607" on="0"/>
        <pt x="678" y="521" on="1"/>
        <pt x="678" y="0" on="1"/>
        <pt x="501" y="0" on="1"/>
        <pt x="501" y="111" on="1"/>
        <pt x="472" y="58" on="0"/>
        <pt x="365" y="-10" on="0"/>
      </contour>
    </TTGlyph>
    <TTGlyph name="ordmasculine" xMin="99" yMin="-14" xMax="800" yMax="1153">
      <contour>
        <pt x="450" y="-14" on="1"/>
        <pt x="261" y="-14" on="0"/>
        <pt x="99" y="202" on="0"/>
        <pt x="99" y="410" on="1"/>
        <pt x="99" y="729" on="1"/>
        <pt x="99" y="937" on="0"/>
        <pt x="261" y="1153" on="0"/>
        <pt x="450" y="1153" on="1"/>
        <pt x="630" y="1153" on="0"/>
        <pt x="800" y="927" on="0"/>
        <pt x="800" y="729" on="1"/>
        <pt x="800" y="410" on="1"/>
        <pt x="800" y="212" on="0"/>
        <pt x="630" y="-14" on="0"/>
      </contour>
      <contour>
        <pt x="445" y="186" on="1"/>
        <pt x="464" y="186" on="0"/>
        <pt x="497" y="192" on="0"/>
        <pt x="521" y="209" on="0"/>
        <pt x="540" y="224" on="0"/>
        <pt x="554" y="256" on="0"/>
        <pt x="563" y="276" on="0"/>
        <pt x="569" y="321" on="0"/>
        <pt x="573" y="343" on="0"/>
        <pt x="574" y="398" on="0"/>
        <pt x="574" y="420" on="0"/>
        <pt x="574" y="451" on="1"/>
        <pt x="574" y="688" on="1"/>
        <pt x="574" y="692" on="0"/>
        <pt x="574" y="700" on="1"/>
        <pt x="574" y="730" on="0"/>
        <pt x="574" y="759" on="0"/>
        <pt x="572" y="812" on="0"/>
        <pt x="567" y="839" on="0"/>
        <pt x="558" y="881" on="0"/>
        <pt x="546" y="903" on="0"/>
        <pt x="526" y="930" on="0"/>
        <pt x="501" y="943" on="0"/>
        <pt x="466" y="952" on="0"/>
        <pt x="445" y="952" on="1"/>
        <pt x="418" y="952" on="0"/>
        <pt x="376" y="936" on="0"/>
        <pt x="348" y="913" on="0"/>
        <pt x="328" y="869" on="0"/>
        <pt x="318" y="832" on="0"/>
        <pt x="313" y="769" on="0"/>
        <pt x="312" y="725" on="0"/>
        <pt x="312" y="688" on="1"/>
        <pt x="312" y="451" on="1"/>
        <pt x="312" y="408" on="0"/>
        <pt x="314" y="357" on="0"/>
        <pt x="321" y="286" on="0"/>
        <pt x="339" y="245" on="0"/>
        <pt x="367" y="204" on="0"/>
        <pt x="413" y="186" on="0"/>
      </contour>
    </TTGlyph>
    <TTGlyph name="oslash" xMin="128" yMin="-222" xMax="896" yMax="1491">
      <contour>
        <pt x="384" y="346" on="1"/>
        <pt x="622" y="1015" on="1"/>
        <pt x="594" y="1088" on="0"/>
        <pt x="512" y="1088" on="1"/>
        <pt x="485" y="1088" on="0"/>
        <pt x="444" y="1072" on="0"/>
        <pt x="417" y="1049" on="0"/>
        <pt x="399" y="1004" on="0"/>
        <pt x="389" y="970" on="0"/>
        <pt x="385" y="906" on="0"/>
        <pt x="384" y="869" on="0"/>
        <pt x="384" y="832" on="1"/>
      </contour>
      <contour>
        <pt x="512" y="192" on="1"/>
        <pt x="539" y="192" on="0"/>
        <pt x="580" y="208" on="0"/>
        <pt x="607" y="231" on="0"/>
        <pt x="625" y="276" on="0"/>
        <pt x="635" y="310" on="0"/>
        <pt x="639" y="374" on="0"/>
        <pt x="640" y="411" on="0"/>
        <pt x="640" y="448" on="1"/>
        <pt x="640" y="803" on="1"/>
        <pt x="431" y="220" on="1"/>
        <pt x="464" y="192" on="0"/>
      </contour>
      <contour>
        <pt x="272" y="-222" on="1"/>
        <pt x="196" y="-196" on="1"/>
        <pt x="280" y="43" on="1"/>
        <pt x="128" y="141" on="0"/>
        <pt x="128" y="448" on="1"/>
        <pt x="128" y="832" on="1"/>
        <pt x="128" y="942" on="0"/>
        <pt x="168" y="1108" on="0"/>
        <pt x="256" y="1233" on="0"/>
        <pt x="407" y="1298" on="0"/>
        <pt x="512" y="1298" on="1"/>
        <pt x="619" y="1298" on="0"/>
        <pt x="707" y="1258" on="1"/>
        <pt x="789" y="1491" on="1"/>
        <pt x="876" y="1462" on="1"/>
        <pt x="784" y="1205" on="1"/>
        <pt x="896" y="1093" on="0"/>
        <pt x="896" y="832" on="1"/>
        <pt x="896" y="448" on="1"/>
        <pt x="896" y="222" on="0"/>
        <pt x="718" y="-18" on="0"/>
        <pt x="512" y="-18" on="1"/>
        <pt x="418" y="-18" on="0"/>
        <pt x="354" y="6" on="1"/>
      </contour>
    </TTGlyph>
    <TTGlyph name="otilde" xMin="93" yMin="-18" xMax="861" yMax="1693">
      <component glyphName="o" x="0" y="0" flags="0x1004"/>
      <component glyphName="tilde" x="-3" y="-52" flags="0x1004"/>
    </TTGlyph>
    <TTGlyph name="p" xMin="117" yMin="-384" xMax="949" yMax="1298">
      <contour>
        <pt x="565" y="192" on="1"/>
        <pt x="606" y="192" on="0"/>
        <pt x="661" y="252" on="0"/>
        <pt x="686" y="363" on="0"/>
        <pt x="695" y="472" on="0"/>
        <pt x="695" y="545" on="1"/>
        <pt x="693" y="714" on="1"/>
        <pt x="693" y="759" on="0"/>
        <pt x="692" y="814" on="0"/>
        <pt x="686" y="905" on="0"/>
        <pt x="675" y="963" on="0"/>
        <pt x="653" y="1033" on="0"/>
        <pt x="622" y="1073" on="0"/>
        <pt x="573" y="1101" on="0"/>
        <pt x="542" y="1101" on="1"/>
        <pt x="527" y="1101" on="0"/>
        <pt x="500" y="1097" on="0"/>
        <pt x="471" y="1088" on="0"/>
        <pt x="452" y="1081" on="0"/>
        <pt x="422" y="1065" on="0"/>
        <pt x="409" y="1058" on="0"/>
        <pt x="377" y="1038" on="0"/>
        <pt x="373" y="1036" on="1"/>
        <pt x="373" y="244" on="1"/>
        <pt x="461" y="192" on="0"/>
      </contour>
      <contour>
        <pt x="117" y="-384" on="1"/>
        <pt x="117" y="1280" on="1"/>
        <pt x="373" y="1280" on="1"/>
        <pt x="373" y="1152" on="1"/>
        <pt x="404" y="1185" on="0"/>
        <pt x="428" y="1209" on="0"/>
        <pt x="487" y="1259" on="0"/>
        <pt x="530" y="1279" on="0"/>
        <pt x="597" y="1298" on="0"/>
        <pt x="633" y="1298" on="1"/>
        <pt x="698" y="1298" on="0"/>
        <pt x="800" y="1251" on="0"/>
        <pt x="866" y="1185" on="0"/>
        <pt x="912" y="1062" on="0"/>
        <pt x="935" y="962" on="0"/>
        <pt x="947" y="792" on="0"/>
        <pt x="949" y="687" on="0"/>
        <pt x="949" y="595" on="1"/>
        <pt x="949" y="576" on="1"/>
        <pt x="949" y="492" on="0"/>
        <pt x="932" y="336" on="0"/>
        <pt x="887" y="175" on="0"/>
        <pt x="818" y="57" on="0"/>
        <pt x="703" y="-18" on="0"/>
        <pt x="629" y="-18" on="1"/>
        <pt x="499" y="-18" on="0"/>
        <pt x="373" y="115" on="1"/>
        <pt x="373" y="-384" on="1"/>
      </contour>
    </TTGlyph>
    <TTGlyph name="paragraph" xMin="16" yMin="0" xMax="896" yMax="1536">
      <contour>
        <pt x="382" y="0" on="1"/>
        <pt x="382" y="876" on="1"/>
        <pt x="218" y="876" on="0"/>
        <pt x="16" y="1048" on="0"/>
        <pt x="16" y="1204" on="1"/>
        <pt x="16" y="1373" on="0"/>
        <pt x="230" y="1536" on="0"/>
        <pt x="423" y="1536" on="1"/>
        <pt x="896" y="1536" on="1"/>
        <pt x="896" y="0" on="1"/>
        <pt x="718" y="0" on="1"/>
        <pt x="718" y="876" on="1"/>
        <pt x="579" y="876" on="1"/>
        <pt x="579" y="0" on="1"/>
      </contour>
    </TTGlyph>
    <TTGlyph name="parenleft" xMin="128" yMin="-64" xMax="576" yMax="1856">
      <contour>
        <pt x="576" y="-64" on="1"/>
        <pt x="496" y="-64" on="0"/>
        <pt x="366" y="-21" on="0"/>
        <pt x="275" y="70" on="0"/>
        <pt x="208" y="170" on="0"/>
        <pt x="167" y="329" on="0"/>
        <pt x="141" y="458" on="0"/>
        <pt x="131" y="659" on="0"/>
        <pt x="128" y="790" on="0"/>
        <pt x="128" y="896" on="1"/>
        <pt x="128" y="1018" on="0"/>
        <pt x="131" y="1167" on="0"/>
        <pt x="149" y="1394" on="0"/>
        <pt x="183" y="1535" on="0"/>
        <pt x="248" y="1700" on="0"/>
        <pt x="342" y="1793" on="0"/>
        <pt x="485" y="1856" on="0"/>
        <pt x="576" y="1856" on="1"/>
        <pt x="576" y="1664" on="1"/>
        <pt x="526" y="1664" on="0"/>
        <pt x="453" y="1601" on="0"/>
        <pt x="412" y="1505" on="0"/>
        <pt x="388" y="1359" on="0"/>
        <pt x="381" y="1227" on="0"/>
        <pt x="381" y="1143" on="1"/>
        <pt x="381" y="1095" on="0"/>
        <pt x="384" y="928" on="0"/>
        <pt x="384" y="864" on="0"/>
        <pt x="381" y="694" on="0"/>
        <pt x="381" y="645" on="1"/>
        <pt x="381" y="561" on="0"/>
        <pt x="388" y="430" on="0"/>
        <pt x="412" y="286" on="0"/>
        <pt x="453" y="190" on="0"/>
        <pt x="526" y="128" on="0"/>
        <pt x="576" y="128" on="1"/>
      </contour>
    </TTGlyph>
    <TTGlyph name="parenright" xMin="64" yMin="-64" xMax="512" yMax="1856">
      <contour>
        <pt x="64" y="-64" on="1"/>
        <pt x="64" y="128" on="1"/>
        <pt x="114" y="128" on="0"/>
        <pt x="187" y="191" on="0"/>
        <pt x="228" y="287" on="0"/>
        <pt x="252" y="433" on="0"/>
        <pt x="259" y="565" on="0"/>
        <pt x="259" y="649" on="1"/>
        <pt x="259" y="697" on="0"/>
        <pt x="256" y="864" on="0"/>
        <pt x="256" y="928" on="0"/>
        <pt x="259" y="1098" on="0"/>
        <pt x="259" y="1147" on="1"/>
        <pt x="259" y="1231" on="0"/>
        <pt x="252" y="1362" on="0"/>
        <pt x="228" y="1506" on="0"/>
        <pt x="187" y="1602" on="0"/>
        <pt x="114" y="1664" on="0"/>
        <pt x="64" y="1664" on="1"/>
        <pt x="64" y="1856" on="1"/>
        <pt x="144" y="1856" on="0"/>
        <pt x="274" y="1813" on="0"/>
        <pt x="365" y="1722" on="0"/>
        <pt x="432" y="1622" on="0"/>
        <pt x="473" y="1463" on="0"/>
        <pt x="499" y="1334" on="0"/>
        <pt x="509" y="1133" on="0"/>
        <pt x="512" y="1002" on="0"/>
        <pt x="512" y="896" on="1"/>
        <pt x="512" y="774" on="0"/>
        <pt x="509" y="625" on="0"/>
        <pt x="491" y="398" on="0"/>
        <pt x="457" y="257" on="0"/>
        <pt x="392" y="92" on="0"/>
        <pt x="298" y="-1" on="0"/>
        <pt x="155" y="-64" on="0"/>
      </contour>
    </TTGlyph>
    <TTGlyph name="percent" xMin="78" yMin="0" xMax="1921" yMax="1518">
      <contour>
        <pt x="1649" y="0" on="0"/>
        <pt x="1459" y="0" on="0"/>
        <pt x="1316" y="77" on="0"/>
        <pt x="1230" y="214" on="0"/>
        <pt x="1188" y="388" on="0"/>
        <pt x="1188" y="492" on="1"/>
        <pt x="1188" y="598" on="0"/>
        <pt x="1229" y="769" on="0"/>
        <pt x="1314" y="902" on="0"/>
        <pt x="1457" y="975" on="0"/>
        <pt x="1651" y="975" on="0"/>
        <pt x="1795" y="902" on="0"/>
        <pt x="1880" y="769" on="0"/>
        <pt x="1921" y="598" on="0"/>
        <pt x="1921" y="492" on="1"/>
        <pt x="1921" y="387" on="0"/>
        <pt x="1879" y="213" on="0"/>
        <pt x="1793" y="76" on="0"/>
      </contour>
      <contour>
        <pt x="1554" y="195" on="1"/>
        <pt x="1688" y="195" on="0"/>
        <pt x="1688" y="492" on="1"/>
        <pt x="1688" y="780" on="0"/>
        <pt x="1554" y="780" on="1"/>
        <pt x="1421" y="780" on="0"/>
        <pt x="1421" y="492" on="1"/>
        <pt x="1421" y="440" on="0"/>
        <pt x="1431" y="350" on="0"/>
        <pt x="1457" y="252" on="0"/>
        <pt x="1513" y="195" on="0"/>
      </contour>
      <contour>
        <pt x="751" y="0" on="1"/>
        <pt x="1034" y="1518" on="1"/>
        <pt x="1253" y="1518" on="1"/>
        <pt x="971" y="0" on="1"/>
      </contour>
      <contour>
        <pt x="539" y="541" on="0"/>
        <pt x="349" y="541" on="0"/>
        <pt x="206" y="618" on="0"/>
        <pt x="120" y="754" on="0"/>
        <pt x="78" y="928" on="0"/>
        <pt x="78" y="1032" on="1"/>
        <pt x="78" y="1138" on="0"/>
        <pt x="118" y="1310" on="0"/>
        <pt x="203" y="1443" on="0"/>
        <pt x="347" y="1516" on="0"/>
        <pt x="444" y="1516" on="1"/>
        <pt x="522" y="1516" on="0"/>
        <pt x="646" y="1467" on="0"/>
        <pt x="730" y="1381" on="0"/>
        <pt x="786" y="1259" on="0"/>
        <pt x="811" y="1116" on="0"/>
        <pt x="811" y="1032" on="1"/>
        <pt x="811" y="928" on="0"/>
        <pt x="768" y="753" on="0"/>
        <pt x="682" y="617" on="0"/>
      </contour>
      <contour>
        <pt x="444" y="735" on="1"/>
        <pt x="578" y="735" on="0"/>
        <pt x="578" y="1032" on="1"/>
        <pt x="578" y="1321" on="0"/>
        <pt x="444" y="1321" on="1"/>
        <pt x="311" y="1321" on="0"/>
        <pt x="311" y="1032" on="1"/>
        <pt x="311" y="980" on="0"/>
        <pt x="321" y="889" on="0"/>
        <pt x="347" y="792" on="0"/>
        <pt x="403" y="735" on="0"/>
      </contour>
    </TTGlyph>
    <TTGlyph name="period" xMin="64" yMin="0" xMax="320" yMax="256">
      <contour>
        <pt x="64" y="0" on="1"/>
        <pt x="64" y="256" on="1"/>
        <pt x="320" y="256" on="1"/>
        <pt x="320" y="0" on="1"/>
      </contour>
    </TTGlyph>
    <TTGlyph name="periodcentered" xMin="64" yMin="706" xMax="320" yMax="962">
      <contour>
        <pt x="64" y="706" on="1"/>
        <pt x="64" y="962" on="1"/>
        <pt x="320" y="962" on="1"/>
        <pt x="320" y="706" on="1"/>
      </contour>
    </TTGlyph>
    <TTGlyph name="plus" xMin="64" yMin="384" xMax="640" yMax="960">
      <contour>
        <pt x="256" y="384" on="1"/>
        <pt x="256" y="576" on="1"/>
        <pt x="64" y="576" on="1"/>
        <pt x="64" y="768" on="1"/>
        <pt x="256" y="768" on="1"/>
        <pt x="256" y="960" on="1"/>
        <pt x="448" y="960" on="1"/>
        <pt x="448" y="768" on="1"/>
        <pt x="640" y="768" on="1"/>
        <pt x="640" y="576" on="1"/>
        <pt x="448" y="576" on="1"/>
        <pt x="448" y="384" on="1"/>
      </contour>
    </TTGlyph>
</ttFont>
